<?xml version="1.0" standalone="no"?>
<!DOCTYPE svg PUBLIC "-//W3C//DTD SVG 1.1//EN" "http://www.w3.org/Graphics/SVG/1.1/DTD/svg11.dtd" >
<svg xmlns="http://www.w3.org/2000/svg">
<metadata>
This is a custom SVG webfont generated by Font Squirrel.
Copyright   : Copyright c 2011 by Tyler Finck All rights reserved
Designer    : Tyler Finck
Foundry     : Tyler Finck
Foundry URL : wwwsurslycom
</metadata>
<defs>
<font id="KnewaveOutlineRegular" horiz-adv-x="639" >
<font-face units-per-em="1000" ascent="800" descent="-200" />
<missing-glyph horiz-adv-x="312" />
<glyph unicode=" "  horiz-adv-x="312" />
<glyph unicode="&#x09;" horiz-adv-x="312" />
<glyph unicode="&#xa0;" horiz-adv-x="312" />
<glyph unicode="!" horiz-adv-x="370" d="M489 728q4 -11 8 -13q6 -5 10 -8.5t4.5 -8t-3 -11t-10.5 -17.5q-6 -11 -13.5 -24t-14.5 -24q-10 -15 -19 -30t-14 -26q-42 -84 -64.5 -152t-39.5 -123q-17 -54 -31.5 -96.5t-40.5 -73.5l-2 -2q-14 -19 -40.5 -29.5t-55.5 -10.5q-24 0 -47 6t-40 17.5t-25.5 28t-3.5 38.5 l-1 -3q4 40 11.5 74.5t16.5 66t20.5 62t23.5 62.5q9 23 18 46.5t18 49.5q7 18 18.5 44.5t27 55.5t33 58.5t35.5 54.5t36 43t34 24q33 14 70 14t63.5 -17t26.5 -52q0 -14 -10 -39zM452 729q6 13 6 23q0 15 -15 22t-35 7q-13 0 -27.5 -3.5t-28.5 -8.5q-21 -8 -45.5 -40 t-47.5 -72t-41 -79.5t-26 -62.5q-9 -26 -18 -50.5t-18 -47.5q-24 -61 -43 -121t-27 -132q-3 -11 3 -19.5t17.5 -14t26.5 -8.5t30 -3q20 0 38.5 6t25.5 18l4 4q21 26 35 65.5t29 90.5q17 56 40.5 126.5t65.5 154.5q5 13 15 29.5t20 30.5q7 11 15 24t16 29l-2 4q0 -11 1 -12 q-3 4 -7.5 10.5t-7.5 14.5zM250 -38q-7 -25 -21.5 -43.5t-34.5 -31t-43 -18.5t-46 -6q-44 0 -80 20.5t-47 60.5q-5 21 -0.5 40t15 34t26 26t32.5 16q18 5 40 8.5t45 3.5t45 -4t39 -12.5t27.5 -23t10.5 -35.5q0 -8 -2 -17.5t-7 -20.5zM213 -25q5 10 5 22q0 10 -7 16.5 t-18.5 10.5t-26 6t-30.5 2q-21 0 -40.5 -3t-34.5 -7q-21 -6 -35.5 -24.5t-9.5 -43.5q7 -23 32.5 -37t56.5 -14q35 0 66.5 17t40.5 52z" />
<glyph unicode="&#x22;" horiz-adv-x="458" d="M362 671q-10 -23 -13.5 -37t-6.5 -27q-2 -11 -5.5 -24t-9.5 -29l-38 -58v1q-12 -20 -33 -32t-42 -12q-26 0 -46.5 18t-21.5 58q-13 29 -18.5 56.5t-5.5 53.5q0 39 11.5 72.5t30.5 57.5t43.5 37.5t49.5 13.5q31 0 59 -23.5t46 -76.5q3 28 14 49.5t27.5 35t36 20.5t40.5 7 q24 0 46 -10.5t38 -30t24 -46.5t4 -61q1 -41 -16 -74t-37 -63q-5 -8 -10 -15.5t-10 -15.5q-12 -20 -33.5 -32.5t-42.5 -12.5q-28 0 -48.5 19t-20.5 64q0 17 -2 34t-4 36zM186 533q0 -21 8.5 -30.5t19.5 -9.5t22.5 6.5t18.5 17.5l36 56q7 21 11 42q3 14 6.5 27.5t9.5 28.5v1 q0 1 -0.5 4t-0.5 4l10 24q-12 42 -31 59t-39 17q-18 0 -35 -10.5t-30.5 -29.5t-21.5 -45t-8 -56q0 -23 5 -47.5t17 -50.5zM401 700q1 -19 3 -36.5t4 -34.5q2 -20 4 -37.5t2 -37.5q0 -23 9 -33t20 -10q12 0 24 7t18 18h-1q5 8 10.5 16.5t10.5 16.5q19 28 34 57.5t13 64.5 q4 25 -0.5 43.5t-15 31.5t-25.5 19.5t-31 6.5q-15 0 -29 -5.5t-25 -17t-18 -29t-7 -40.5zM362 674q0 2 -0.5 3.5t-0.5 3.5l-2 -6q2 0 3 -1z" />
<glyph unicode="#" horiz-adv-x="833" d="M655 334q11 -3 27 -1q14 1 27.5 0t30.5 -15q8 -8 11 -17.5t4 -19.5q1 -5 -0.5 -5t0.5 -2q15 -15 24 -33.5t9 -34.5q0 -18 -8.5 -34t-23.5 -28t-36 -18.5t-46 -5.5q-9 0 -17 0.5t-17 0.5q-10 0 -19.5 -0.5t-18.5 -0.5t-18 -0.5t-17 -0.5h-16.5t-16.5 1l-23 -85 q-14 -16 -33 -24.5t-37 -8.5q-26 0 -48.5 16t-25.5 51q0 6 1 9q-1 8 -1 15.5v15.5h-7q-12 0 -23.5 -0.5t-22.5 -1.5q-25 -2 -51 0q-5 0 -7.5 -0.5t-6.5 -0.5q-3 -5 -6 -10.5t-5 -10.5q-8 -18 -16.5 -38.5t-13.5 -48.5q-15 -19 -36 -29t-41 -10q-26 0 -44.5 14t-23.5 46v5.5 t1 5.5l9 58q-5 -1 -23 -1q-29 -2 -48.5 15t-19.5 43q0 15 10.5 34t30.5 36q10 8 17 13t14 8t14.5 5t17.5 4h1q5 1 4 1t7 2q4 25 6.5 45t7.5 50h-22q-23 0 -46 4t-43 14q-23 22 -23 42q0 26 35 56q27 14 59 27t74 24l7 29h-1q7 34 15.5 73.5t22.5 71.5q25 57 70 84.5t92 27.5 q25 0 47.5 -7.5t40 -22.5t27.5 -36.5t10 -49.5q0 -11 -2 -23.5t-7 -28.5l-19 -40l19 6l5 15q4 10 7.5 23t5.5 36q8 39 30.5 66t51.5 43.5t61 24t60 7.5q11 0 22 -1t21 -4l-1 1q27 -6 46 -24.5t19 -46.5q0 -20 -13 -42q-3 -30 -20 -67l15 -4q17 -5 31 -10t31 -19 q5 -4 9.5 -7.5t3.5 -3.5q12 -8 19.5 -16t7.5 -23q0 -6 -1 -13.5t-5 -16.5q19 -35 19 -69q0 -36 -20 -61t-53 -35q-1 0 -2.5 -0.5t-2.5 -0.5q-21 -1 -40 0v-1q-4 0 -8.5 0.5t-9.5 1.5l-16 3l-111 7q-2 -5 -5 -9.5t-5 -8.5l-1 -1l33 -3zM758 389q4 -1 7.5 -1t6.5 -2 q18 -2 41 0q1 0 1 0.5t2 0.5q14 7 25.5 22t11.5 34q0 28 -25 69q7 14 9.5 20.5t2.5 9.5q0 1 -7 6q-5 3 -9.5 6.5t-9.5 7.5q-12 10 -22 14t-24 7l-14 4l3 -1l-53 6q16 33 26.5 62.5t12.5 48.5q13 19 13 31q0 11 -10 19.5t-24 11.5q-15 4 -33 4q-23 0 -48.5 -6t-48.5 -19.5 t-41 -34t-25 -50.5q-2 -23 -6 -38t-9 -26l-11 -33l-127 -37l59 121q5 18 5 34q0 37 -25.5 56.5t-59.5 19.5q-35 0 -70 -21.5t-55 -66.5h1q-14 -35 -22.5 -71t-14.5 -66l-13 -53q-45 -11 -80 -25t-66 -31l3 3q-17 -14 -17 -22q0 -4 5 -8q14 -8 31 -10t36 -2q10 0 28 1.5 t44 5.5q-3 -17 -7 -40.5t-8 -48.5t-7.5 -48t-5.5 -39q-8 -2 -21 -5t-19 -4q-16 -3 -24 -6t-21 -14q-27 -23 -27 -40q0 -8 8.5 -13t17.5 -5q5 1 8 1h5q-2 0 -2 0.5t5 2t18 4l39 7.5q-2 -11 -4 -27t-4 -32.5t-4.5 -32t-4.5 -26.5v-2q5 -23 27 -23q9 0 20 4.5t19 10.5 q5 28 14 49t18 40v-1q4 8 10 22t9 22h47q11 -1 22 -0.5t22 1.5t23.5 1.5t24.5 0.5q8 0 17.5 -0.5t29.5 -2.5v-37.5t1 -37.5v1q3 -16 12.5 -23t20.5 -7q20 0 34 12l31 108q11 -1 30 -2t31 -1q8 0 17 0.5t18 0.5t18.5 0.5t19.5 0.5q9 0 19 -0.5t19 -0.5q32 -3 51 11.5t19 34.5 q0 22 -25 43q-6 10 -8 27v1q-1 3 -2 7t-1 6q-11 5 -27 3h1q-9 -1 -18.5 -0.5t-21.5 2.5h2q-13 2 -38.5 3t-51.5 1q10 27 16 39t12 22q5 8 10 18t10 21l133 -9l1 2l3 -1v1l4 -2zM317 404l149 9l-17 -59v1l-22 -76q-15 -3 -38 -7.5t-47.5 -10t-47.5 -10.5t-38 -9zM320 299 q35 8 76 16q4 14 8 26.5t8 25.5v2q-19 -1 -31.5 -1t-34.5 -2zM408 79q2 -4 0 -7v7z" />
<glyph unicode="$" horiz-adv-x="591" d="M341 871q10 17 28.5 30.5t41.5 22.5t49 14t51 5q27 0 51 -6t39.5 -19.5t21 -34t-4.5 -48.5q-9 -9 -11.5 -16t-6.5 -15t-8 -16.5t-9 -17.5q29 -8 48 -19.5t37 -24.5l-1 1l10 -7q19 -18 26.5 -29.5t6 -20.5t-10 -16.5t-19.5 -15.5q-8 -5 -17 -12.5t-15 -21.5q2 -13 2.5 -30 t-7 -33t-25 -29.5t-51.5 -19.5q-23 -4 -48.5 -4.5t-51.5 -1.5q-43 -1 -74.5 -7.5t-31.5 -26.5q3 -6 17.5 -17t33.5 -23q22 -15 47 -32.5t45.5 -40t34 -50t13.5 -61.5q0 -9 -1 -19t-4 -21q-7 -26 -22 -55.5t-39 -58.5t-58 -54t-79 -42v-1q-5 -5 -6 -8l-9 -13l-12 -23l1 1 q-7 -12 -13.5 -24.5t-17.5 -27.5q-5 -20 -15.5 -37.5t-25.5 -30.5t-32.5 -21t-35.5 -8q-20 0 -39 11t-35 36v122q-37 7 -64 23.5t-45 38.5t-26.5 47.5t-8.5 50.5q0 27 12 56q21 30 54.5 37.5t71.5 7.5h29q24 -1 45.5 0t36.5 6q23 5 37.5 8.5t24.5 5.5q-22 8 -40 19 q-28 14 -58.5 38t-54.5 57t-38.5 75t-9.5 93q6 45 22.5 81t40 63.5t51 47.5t54.5 32q22 9 41 17t38 13q1 13 1.5 20t0.5 13v14t1 9.5t2.5 9t4.5 12.5v-1l7 19zM370 835q-5 -11 -5.5 -15.5t-0.5 -15.5q0 -8 -1 -26.5t-2 -37.5q-26 -7 -51.5 -15.5t-50.5 -19.5 q-24 -11 -47.5 -27.5t-44 -40t-34.5 -54t-18 -70.5q-5 -44 7.5 -80t34.5 -64t49 -48.5t52 -32.5q7 -5 17.5 -8.5t19.5 -7.5h-1q17 -6 29.5 -12.5t12.5 -21.5q0 -14 -24.5 -26.5t-86.5 -28.5h1q-20 -7 -44.5 -8t-50.5 0h-28q-29 0 -54 -5t-39 -23q-5 -15 -5 -33q0 -20 9 -40 t27 -37.5t45 -30t63 -16.5v-140l1 -7q15 -18 33 -18q12 0 24 6t22.5 16t17.5 23t10 28q9 13 16 26.5t14 27.5l13 24l-1 -1l4 6l4 6q4 8 8 12l8 12q43 16 75.5 38.5t55 48t36 51.5t19.5 49q3 13 3 30q0 26 -12 48t-30 40t-39.5 33.5t-40.5 28.5q-26 18 -46 33.5t-23 33.5 q-5 29 5.5 45t30.5 24t48.5 10t60.5 2q23 1 47.5 1.5t47.5 4.5h-1q21 4 31.5 13t14.5 20t2.5 22t-2.5 19q9 25 24 40.5t26 23.5q7 7 -1 16l-11 7q-17 13 -32.5 23.5t-34.5 15.5q-2 0 -5.5 0.5t-5.5 0.5l-64 10q18 17 29 29t17.5 21t9.5 15l6 12q5 10 7.5 18.5t10.5 16.5 q7 25 -16 36.5t-55 11.5q-20 0 -41 -3.5t-40 -10t-33.5 -16.5t-21.5 -22l2 3z" />
<glyph unicode="%" horiz-adv-x="976" d="M434 98q-2 5 -2.5 10.5t-1.5 10.5q-32 -38 -65.5 -75.5t-69.5 -73.5l-19 -16q-4 -5 -8.5 -11.5t-8.5 -10.5q-21 -16 -47 -25.5t-50 -9.5q-20 0 -38.5 8t-29.5 24q-16 6 -22 19t-6 31q0 15 6.5 34t17.5 39.5t26.5 41t32.5 38.5q8 7 12 12t8 11v-1q7 11 21.5 28.5 t50.5 52.5l71 71h-15q-29 0 -57 8t-51.5 23.5t-41 38.5t-24.5 53q-10 41 -10 76q0 50 17.5 87.5t45.5 63.5t63.5 40.5t72.5 19.5h6l1 1h-1q24 10 48.5 16t49.5 6q34 0 70 -15q35 -16 52 -37.5t16 -44.5q5 -7 9.5 -15t8.5 -16l23 30q5 11 7 11t5 4q11 17 23 33t28 33l-1 2 q-5 7 -8 16t-1 19q10 24 29 42.5t43 31t51 18.5t53 6q29 0 55.5 -7.5t45 -22.5t27.5 -38t4 -53q-17 -40 -42.5 -78.5t-55.5 -75t-63 -70.5t-63 -64l-27 -27q35 -2 74.5 -16.5t84.5 -47.5q37 -28 52.5 -63t15.5 -72q0 -29 -8.5 -58t-22.5 -55t-32.5 -48.5t-38.5 -38.5 q-35 -27 -81 -39t-86 -18q-14 -3 -22 -2.5t-16 2.5q-2 0 -7 1t-7 1q-33 6 -60.5 14.5t-50 22.5t-39.5 36.5t-27 57.5zM478 160q-4 -12 -6 -25.5t0 -24.5q17 -49 55.5 -71t89.5 -32q4 0 8.5 -1t7.5 -1q5 -1 9 -1.5t15 1.5q37 6 78.5 16t70.5 33l-1 -1q17 14 32.5 33t27.5 41 t19.5 46.5t7.5 48.5q0 28 -12.5 54.5t-39.5 48.5q-38 28 -75 42t-66 14q-11 0 -23.5 -2.5t-26.5 -7.5l-19 30l16 16l58 59q31 31 62 62.5t59 65t52 70t41 76.5q3 33 -26 50t-68 17q-41 0 -80.5 -17t-56.5 -51q2 0 4 -3q5 -8 9 -17.5t-2 -21.5q-18 -19 -32 -38t-27 -37 q-4 -4 -8 -10q-2 -3 -4 -5l-83 -106v32.5t-0.5 18t-1 8.5t-0.5 4q-3 16 -11 29.5t-20 27.5q3 16 -6.5 31t-34.5 26q-27 11 -54 11q-21 0 -43.5 -6t-45.5 -16q-2 0 -4.5 -0.5t-3.5 -0.5h-1q-30 -5 -59.5 -17.5t-53 -33.5t-38 -51t-14.5 -69q0 -17 2 -33.5t6 -33.5v1 q12 -46 51.5 -69.5t84.5 -23.5q41 0 78 20l22 -31l-128 -128l-28.5 -28.5t-19 -20t-11.5 -14.5t-7 -11q-5 -8 -11.5 -15t-18.5 -18q-29 -30 -48 -63.5t-19 -57.5q0 -13 17 -17q7 -14 17 -19.5t22 -5.5q17 0 36.5 7.5t35.5 18.5q3 4 6.5 9.5t6.5 8.5l22 19q23 24 49.5 53.5 t55 62t57.5 66.5t56 67v-10t-0.5 -21.5t-0.5 -21.5v-10l-5 -14zM762 227q24 -8 28.5 -26.5t-4 -40.5t-27.5 -44.5t-41.5 -38.5t-46 -21.5t-40.5 6.5q-14 9 -20 21t-6 24q0 14 8 27t19 25t23.5 22t21.5 17l8 6l7 5l11 8q15 0 29.5 2.5t29.5 7.5zM420 560q0 -33 -12.5 -58.5 t-32.5 -43t-45 -26t-51 -8.5q-13 17 -14 32.5t1 30.5q7 11 13 23t13 22t17.5 15t26.5 2zM748 179q0 2 1 2h-1l-1 -1l1 1h-1q-2 0 -5.5 -0.5t-8.5 -1.5t-8.5 -1.5t-8.5 -0.5l-4 -3l-9 -6l-5 -4q-7 -6 -16 -13t-17.5 -15t-14 -15.5t-5.5 -13.5t8 -11q9 -6 19 -3.5t20.5 10.5 t20.5 20t18 25h-2l17 28l-1 2l2 2v-1h1zM379 514q-1 -1 -5.5 0.5t-10 3.5t-10.5 3.5t-6 1.5q-12 -4 -17.5 -11.5t-6.5 -15.5t0.5 -15.5t2.5 -11.5q15 5 30.5 19t22.5 26z" />
<glyph unicode="&#x26;" horiz-adv-x="712" d="M643 20q13 3 22 3q32 0 41 -11.5t1.5 -29t-28 -37.5t-47 -37t-56 -27.5t-53.5 -9.5q-28 6 -44 23.5t-28 35.5l-9 14q-26 -16 -55 -30t-59.5 -24t-60 -14t-55.5 0q-54 8 -94.5 23t-68 39t-41.5 58.5t-14 81.5q0 44 15 109q13 35 36.5 67.5t52 62t59.5 55t60 47.5 q-2 15 -3 30.5t-1 30.5q0 55 14 103t36.5 86.5t51 66.5t57.5 45l-1 -1q27 18 66 29.5t81 11.5q33 0 64.5 -8t56 -25t39.5 -45.5t15 -68.5q0 -11 -1.5 -24t-5.5 -28l1 1q-6 -25 -23 -56.5t-43.5 -65.5t-61.5 -69t-76 -66q3 -31 14 -59.5t24 -57.5l3 -7q7 10 17 20 q2 2 8.5 6.5t15.5 9t20 6t21 -2.5l1 1l-1 -1q0 -1 2 -1h-2v-6q3 17 20.5 24.5t37.5 7.5q25 0 45 -10.5t21 -31.5q1 -14 -5.5 -30.5t-15.5 -30.5q-17 -42 -36.5 -78t-48.5 -72q6 -8 10 -15l8 -14l-1 1zM616 -14q-3 5 -5.5 10l-4.5 9q-5 9 -11.5 20.5t-20.5 31.5l14 14 q29 35 48.5 71.5t36.5 78.5q7 11 12.5 22.5t4.5 17.5q0 2 -8 3.5t-18 1.5h-18v2q-2 -6 -9.5 -13t-15.5 -10l-4 -3q-3 -2 -7 -3q-8 4 -14.5 4t-12 -1.5t-9.5 -4t-5 -3.5q-4 -4 -8.5 -10.5t-9.5 -12.5h1q-5 -7 -15.5 -19t-24.5 -26l-28 69l1 -1q-15 34 -27.5 70t-14.5 81 q45 31 80.5 64t61 65.5t41.5 62.5t21 54q6 25 6 43q0 29 -11.5 49.5t-30.5 33t-43.5 18.5t-49.5 6q-37 0 -71 -9.5t-57 -25.5q-25 -14 -49.5 -39t-44 -59t-31.5 -76.5t-12 -91.5q0 -16 2 -36t6 -44l-19 -12q-26 -20 -55 -44t-56 -52t-49.5 -58.5t-35.5 -64.5v2 q-12 -51 -12 -93q0 -74 47.5 -111t136.5 -51q24 -3 53.5 2.5t60 16.5t60 27t54.5 33q17 -14 25 -24t14 -19q8 -14 19.5 -26t26.5 -15q21 -3 44 5t42.5 21t32.5 27.5t14 24.5q-3 -4 -25 -11zM408 493q-14 8 -20 29t-5 45.5t10 49t25.5 39.5t40 16.5t54.5 -19.5l17 -16 q-2 -28 -9.5 -47.5t-22.5 -35t-37 -29.5t-53 -32zM304 225q15 -44 27.5 -64.5t22.5 -33.5q1 -2 7 -8t11.5 -13.5t9.5 -14t1 -10.5q-2 0 -8.5 -1.5t-14.5 -3t-14.5 -2.5t-8.5 -1q-8 -1 -16 -1.5t-16 -0.5q-22 0 -39 6.5t-31 26.5h1q-7 10 -11 20t-4 20q0 22 13.5 41.5 t35.5 45.5zM469 577q28 15 32.5 28t-4 20t-25 7t-30 -9.5t-18.5 -31t8 -56.5q-2 11 2 18t10.5 11.5t13.5 7t11 5.5zM315 111q-8 11 -17 26.5t-20 40.5q-17 -22 -17 -34q0 -8 7 -18q6 -9 15 -12t22 -3h10zM509 658l19 -15q-4 3 -7.5 5.5t-7.5 4.5z" />
<glyph unicode="'" horiz-adv-x="250" d="M151 662q0 34 10.5 58.5t27 41t38 24.5t43.5 8q24 0 46 -10.5t38 -30t24 -46.5t4 -61q1 -41 -16 -74t-37 -63q-5 -8 -10 -15.5t-10 -15.5q-12 -20 -33.5 -32.5t-42.5 -12.5q-28 0 -48.5 19t-20.5 64q0 17 -2 34t-4 36q-2 16 -4 35t-3 40v1zM191 663q1 -19 3 -37t4 -35 q2 -20 4 -37.5t2 -37.5q0 -23 9 -33t20 -10q12 0 24 7t18 18h-1q5 8 10.5 16.5t10.5 16.5q19 28 34 57.5t13 64.5q4 25 -0.5 43.5t-15 31.5t-25.5 19.5t-31 6.5q-15 0 -29 -5.5t-25 -17t-18 -29t-7 -40.5v1z" />
<glyph unicode="(" horiz-adv-x="342" d="M-26 208q11 109 34 196t53 154.5t64.5 116t68.5 79.5t65 46t54 15q13 0 24 -3q20 24 48 34t57 10q21 0 41 -5.5t35.5 -15.5t24.5 -23t9 -28t-10 -30t-31 -29l1 1q-67 -48 -123 -102.5t-98.5 -122.5t-70.5 -152.5t-39 -192.5q-2 -13 -2 -24.5v-22.5q0 -54 8.5 -94.5 t17.5 -70.5q6 -20 9.5 -35.5t3.5 -27.5q0 -26 -15.5 -40t-55.5 -17q-34 0 -60.5 18t-46 48t-33 69.5t-21 82t-10.5 85.5t-2 80v1zM14 205q-1 -33 1 -71t8 -76t16 -73t25 -62t35.5 -43t46.5 -16h-2q19 2 26.5 6t7.5 11q0 8 -3 21t-8 30q-9 32 -18.5 76t-9.5 101v25t2 26 q12 110 41.5 199t74 161t103 130t128.5 108q24 14 24 26q0 14 -21 23t-49 9q-23 0 -48.5 -14t-46.5 -49q-22 22 -34 22q-30 0 -74.5 -31.5t-89 -100.5t-82 -177.5t-53.5 -261.5v1z" />
<glyph unicode=")" horiz-adv-x="427" d="M-95 -46q72 53 122 127t81 160t44.5 179t13.5 184q0 46 -3 91q-2 42 9 73.5t30 52.5t43.5 32t50.5 11q24 0 46.5 -10t40.5 -30t29.5 -49.5t12.5 -68.5q1 -14 0 -30.5t-2 -30.5q-1 -11 -1.5 -21t-0.5 -20q-1 -66 -17.5 -144t-43.5 -156.5t-62.5 -151.5t-73.5 -130 q-22 -32 -49 -69t-56 -68t-57.5 -51.5t-53.5 -20.5q-15 0 -29 8q-27 -13 -51 -13q-34 0 -52.5 20.5t-18.5 49.5q0 20 12 41t38 36zM-73 -79q-16 -9 -23 -20.5t-7 -22.5q0 -12 8.5 -21t22.5 -9q18 0 54 23q18 -18 26 -18q18 0 41.5 19t48 47.5t49 62t45.5 62.5q38 54 72 124 t59.5 145t41 150t16.5 141q0 10 0.5 21t1.5 22q1 14 1.5 30t0.5 27q0 30 -7.5 52.5t-20 37.5t-28.5 22.5t-33 7.5t-34 -9.5t-30 -26t-21 -40t-8 -51.5q2 -22 2.5 -46.5t0.5 -46.5q0 -95 -14.5 -192t-47 -187t-85.5 -168.5t-130 -134.5z" />
<glyph unicode="*" horiz-adv-x="558" d="M575 711q11 1 22.5 1.5t23.5 0.5q35 0 70.5 -7.5t62.5 -32.5q25 -23 19.5 -45t-27.5 -40t-53 -31t-58 -17l2 1q-42 -11 -85 -22.5t-74 -22.5q19 -18 40.5 -39t42.5 -43t40.5 -43t34.5 -39q9 -19 9 -31.5t-6.5 -20.5t-18 -11.5t-26.5 -3.5q-25 0 -45 7q-9 2 -17.5 6.5 t-15.5 9.5q-2 2 -5.5 3.5t-5.5 3.5h1q-20 11 -39.5 23.5t-38.5 24.5v-2q-2 -11 -2.5 -25t-1.5 -28q-2 -3 -2.5 -8.5t-2.5 -13.5q-2 -7 -3 -12.5t-9 -16.5q-18 -23 -44.5 -34.5t-53.5 -11.5q-26 0 -52 9t-45.5 25.5t-31 38.5t-9.5 49q5 30 16 58l-17 -4q-19 0 -46 6t-47 18.5 t-25.5 31.5t17.5 43q17 16 36.5 28.5t40.5 23.5q-11 4 -21.5 7.5t-18.5 7.5h2q-42 13 -58.5 36.5t-16.5 46.5q0 25 15 42t35 17q14 26 39 38t53 12q21 0 42.5 -5.5t40.5 -15.5q18 -10 26 -17t17 -17l2 -4q25 52 51 93t55 81l-1 -1q13 19 32 28t38 9q17 0 32 -6.5t25 -18.5 t12 -30t-7 -41q-11 -25 -19.5 -43t-15.5 -39q13 4 22 5t20 3l27 5h1zM554 666q-12 -2 -26.5 -4.5t-22.5 -5.5l-10 -2l6 1q-2 -1 -4.5 -2l-7.5 -3t-15 -7l-26 -13q9 36 15.5 59.5t13 41.5t13 33t14.5 32l-1 -1q8 20 -1.5 30.5t-23.5 10.5q-10 0 -19.5 -4.5t-17.5 -15.5 q-16 -23 -32 -46.5t-32 -52t-33.5 -62.5t-36.5 -77l-5 10t-9 17.5t-9 18t-5 11.5q-3 3 -6 6.5t-5 5.5q-4 4 -11 9.5t-18 11.5h1q-32 17 -65 17q-20 0 -39 -15t-30 -50q-12 8 -22.5 6t-10.5 -10q0 -11 12 -24t43 -23q22 -9 36.5 -14t25.5 -8l-2 1l75 -17q-52 -26 -98 -50 t-68 -44v1q-7 -7 -1 -12.5t18 -9.5t27 -6.5t26 -2.5l77 19l-11 -46q-16 -35 -22 -72q-1 -17 7 -31t22 -24.5t32 -16t37 -5.5t36.5 7t29.5 23q4 5 3 6.5t1 8.5l5 22q1 12 1.5 24t2.5 23q2 9 6.5 25t10.5 35l42 -26q20 -13 42.5 -27.5t42.5 -25.5l6 -5q4 -3 8.5 -5.5t9.5 -3.5 q9 -3 19.5 -5t18.5 -2t8 6q-18 21 -41.5 46.5t-50 51.5t-53.5 51t-51 47q46 23 107.5 40.5t121.5 33.5q16 3 36 9.5t36 15t23 18.5t-3 19h1q-20 19 -49 24.5t-58 5.5q-12 0 -22.5 -0.5t-21.5 -1.5h3z" />
<glyph unicode="+" horiz-adv-x="497" d="M346 329q-5 -2 -10.5 -4t-11.5 -7q-14 -57 -26 -89t-23.5 -48.5t-24 -22.5t-26.5 -10q-5 -2 -10 -3.5t-13 -5.5q-31 -14 -59 -14q-41 0 -69.5 25t-28.5 69q0 11 1.5 23t6.5 23v-2q3 14 6 24t7 20q-8 5 -11 12q-8 6 -13 17l-10 4q-17 8 -34 16.5t-31 19.5q-27 27 -27 50 q0 21 18 35.5t48 24.5q18 -1 30.5 -1h19.5h7l60 -9l6 -1.5t3.5 -0.5t3.5 -0.5t7 -0.5q14 36 25.5 70t19.5 66q-5 17 0 42q25 36 67 58t87 21q21 2 42 -0.5t37.5 -10.5t25 -21.5t4.5 -34.5q7 -7 12.5 -15.5t5.5 -18.5q-11 -31 -27 -57.5t-34 -52.5h1q-8 -12 -15 -21.5 t-14 -20.5q29 3 68 9q19 2 40.5 -2t38.5 -12t28.5 -20t11.5 -26t-12.5 -29t-42.5 -29q-20 -2 -47.5 -9t-55.5 -14l-64 -16q-1 0 -1.5 -0.5t-1.5 -0.5zM362 435q-11 -2 -19.5 -2t-16.5 -1l1 20l-4 2v2q0 1 2 5v2l1 1v-1v-1h1l1 5q1 2 1.5 2.5t0.5 3.5q12 22 22.5 36.5 t21.5 31.5q17 23 31 45t22 45q-1 1 -2.5 1.5t-2.5 2.5q-5 5 -9.5 11t-6.5 11q4 11 -0.5 18t-13.5 11t-21.5 4.5t-24.5 -0.5q-36 2 -68 -12.5t-52 -40.5q-1 -12 3 -25q-11 -46 -26.5 -91t-32.5 -90q-16 1 -30 2t-25 4q-17 2 -27.5 4t-17.5 4q-8 2 -13 3q-5 5 -6 5t-4 -1.5 t-10.5 -3.5t-25.5 -2q-32 -11 -32 -20q0 -7 11 -18q11 -8 26 -16t31 -15l-1 1l24 -11q7 -15 12 -19l6 -10h1q-3 3 1 1q5 0 16.5 -1t12.5 -1l-13 -37q-5 -12 -9 -24.5t-8 -28.5q-5 -13 -5 -28q0 -26 17 -40t41 -14q21 0 41 10q8 4 15.5 6.5t15.5 4.5q9 3 17.5 7.5t17 19 t18 43t21.5 78.5l5 9q13 13 24 17.5t20 7.5q1 0 2.5 0.5t2.5 0.5l56 14q14 4 30 8t30.5 7.5t26.5 6t19 3.5q22 11 22 18q0 5 -7 9.5t-18 7t-24 3.5t-25 0h1q-20 -3 -43.5 -6t-45.5 -5v-1z" />
<glyph unicode="," horiz-adv-x="288" d="M185 117q29 -20 51 -33.5t44 -37.5q-2 -21 1 -31q0 -6 2 -16q1 -4 1 -9q-2 -28 -20 -53t-41 -45q-28 -32 -67 -56.5t-79 -24.5q-20 0 -40.5 7.5t-40.5 24.5q-8 17 -8 32t6 29q5 11 12.5 23t15.5 24q-1 2 -1 6l-3 3l-16 15l-1 6q-13 28 -13 48q0 22 11 39.5t29 29.5 t41 18.5t47 8.5t38.5 -0.5t32.5 -8.5zM225 45q-5 11 -15 13.5t-24 16.5q-1 0 -2.5 0.5t-3.5 0.5q-17 5 -29 8t-32 1q-17 -1 -33.5 -5t-29.5 -11t-20.5 -17t-7.5 -23q0 -14 12 -36v-2q10 -9 19 -11.5t12.5 -5.5t1 -11t-14.5 -30l1 1q-8 -12 -16.5 -24t-10.5 -20 q-6 -14 -2 -23q11 -9 22.5 -12.5t24.5 -3.5q32 0 63.5 20t54.5 49q19 16 33 34.5t16 36.5q0 6 -1 10.5t-2 10.5q-2 10 -2 19z" />
<glyph unicode="-" horiz-adv-x="588" d="M139 229q-48 -1 -79 19t-31 48q0 19 17.5 37.5t55.5 32.5h8q14 26 51.5 50t98.5 32q9 1 34.5 1.5t58.5 0.5h29.5t29.5 -1q9 2 18.5 3.5t23.5 1.5h-1q30 1 58 -5.5t49.5 -18.5t34.5 -29.5t13 -39.5q0 -37 -45 -82q-10 -4 -18 -7t-14 -6q-8 -5 -18 -8.5t-20 -7.5 q-43 -14 -90 -19.5t-93 -5.5q-19 0 -38.5 0.5t-38.5 1.5q-20 1 -40 1.5t-40 0.5q-4 -1 -9 -1q-1 0 -8 -0.5t-9 -0.5zM140 267q2 0 2.5 0.5t1.5 0.5q-2 0 0 1q21 0 45 -0.5t46 -1.5q19 -1 37.5 -1.5t37.5 -0.5q45 0 87.5 4.5t83.5 18.5q8 2 15.5 5.5t16.5 8.5q15 8 30 13 q11 12 18 24.5t7 21.5q0 13 -9.5 23t-25 17t-36.5 10.5t-43 2.5q-14 0 -22.5 -1.5t-16.5 -3.5q-15 1 -31 1h-31q-31 0 -55 -0.5t-33 -1.5h1q-59 -8 -89.5 -31t-37.5 -49l-29 -2q-23 -9 -32 -16.5t-9 -13.5q0 -11 23.5 -19.5t58.5 -7.5z" />
<glyph unicode="." horiz-adv-x="235" d="M45 -125q-35 16 -49.5 37t-14.5 46q0 22 11.5 44t30.5 40.5t41.5 31.5t45.5 17h-1q24 5 36 3.5t32 -7.5q3 -1 6 -1h4l3 -3q27 -21 38.5 -43t11.5 -43q0 -20 -9.5 -39.5t-24.5 -36t-34 -29t-39 -18.5q-22 -7 -34.5 -8t-31.5 3h3q-3 0 -6.5 1t-6.5 1q-2 0 -5 1q-2 1 -5 1.5 t-5 2.5zM64 -90q-1 0 -2 0.5t-2 0.5h-3l16 -2q15 -2 23 -2t25 5q15 4 29 13t25.5 20t18 24.5t6.5 27.5q0 12 -6 23.5t-21 24.5l-4 3q-16 5 -25.5 6t-27.5 -3q-17 -3 -33.5 -12t-30.5 -22t-22.5 -28.5t-8.5 -30.5q0 -28 40 -47z" />
<glyph unicode="/" horiz-adv-x="567" d="M414 768l2 3q2 29 30.5 54.5t89.5 36.5h11q25 -1 47.5 -4t42 -12.5t34.5 -27t25 -47.5q3 -23 -7 -41.5t-23 -33.5q3 -17 -2.5 -36.5t-25.5 -42.5q-35 -32 -62.5 -69.5t-55.5 -76.5l1 1q-5 -7 -10.5 -14t-10.5 -14q-46 -64 -91 -135t-90 -143q-60 -97 -121.5 -191.5 t-130.5 -179.5q-17 -19 -42 -19q-15 0 -31.5 7.5t-30 21t-22.5 32t-9 41.5q0 16 5 33.5t16 34.5l-1 -3q52 119 112.5 223t123.5 208q35 57 70 115.5t70 121.5l-1 -1l25 47q13 26 26.5 51.5t28.5 48.5zM441 735q-15 -23 -28 -47t-25 -49l-26 -48q-35 -63 -70 -122t-70 -116v1 q-63 -104 -123.5 -208t-112.5 -223q-8 -12 -11 -23.5t-3 -21.5q0 -14 5 -25.5t13 -19.5t17 -12.5t18 -4.5q3 0 6.5 1.5t5.5 3.5q63 78 125.5 174.5t122.5 192.5q45 73 90.5 144t92.5 136l19 26q30 42 60 81.5t66 74.5l-1 -2q12 14 13 29t-4 28q12 15 24.5 31.5t10.5 28.5 l1 -3q-7 19 -18 30.5t-25 17.5t-31.5 8.5t-36.5 3.5h1h-3q-47 -9 -68.5 -25.5t-19.5 -33.5q-3 -12 -4.5 -15.5t-2 -3.5t-0.5 1.5t-1 0.5z" />
<glyph unicode="0" horiz-adv-x="600" d="M144 681q13 25 39 49.5t58.5 44t70 32t74.5 12.5q38 0 76 -16q33 -15 44.5 -25t13.5 -24q13 3 27 3q33 0 56 -16.5t38 -45.5t22 -68t7 -84q0 -38 -5 -79.5t-14.5 -82.5t-23 -79.5t-29.5 -70.5q-22 -59 -54.5 -110t-66 -89t-63 -60t-45.5 -24h2l-32 -7q-11 -2 -17.5 -3.5 t-14.5 -2.5v-2l-34 -10q-8 -15 -28.5 -22.5t-46.5 -7.5q-19 0 -40.5 4t-41.5 13t-37.5 22.5t-28.5 31.5q-19 39 -30.5 83t-11.5 107v17t1 17v-1q4 81 13.5 144.5t25 120t39.5 111t57 117.5v1zM180 662q-33 -62 -56 -115t-38 -107.5t-24 -115.5t-13 -140q-1 -8 -1 -15.5 v-14.5q0 -57 11 -97.5t28 -77.5l-1 1q15 -24 48 -35.5t64 -11.5q17 0 28.5 5t12.5 16l36 11q0 1 1 2l4 6q20 2 29.5 3t19.5 3q6 2 16.5 5t21.5 5q10 -2 33.5 16.5t52.5 53t58 82.5t49 105q16 31 29 67.5t22 75t14 78t5 76.5q0 36 -4.5 68t-14.5 55.5t-26 37t-38 13.5 q-9 0 -20 2.5t-34 -7.5q-4 8 -7 15q-2 6 -4 11.5t-2 7.5q0 4 -4.5 7t-29.5 14q-14 7 -28.5 9.5t-31.5 2.5q-32 0 -63.5 -10.5t-59.5 -27.5t-49.5 -38t-33.5 -42v1zM340 583q9 15 21 33.5t24 34.5q20 2 27.5 -1.5t9.5 -8.5q-2 4 -2.5 6.5t-2.5 4.5q16 -17 23 -34.5t7 -35.5 q0 -19 -3.5 -41t-8.5 -43.5t-11 -41.5t-11 -35q-28 -85 -65 -160t-87 -150h-5t-10.5 -0.5t-10.5 -0.5h-6q-2 25 -2.5 36t-0.5 19q0 51 10 107t25 110t33.5 102t36.5 83zM367 549q-16 -31 -32.5 -73t-30.5 -88.5t-24 -96t-13 -95.5q33 56 60 114t48 123q5 14 10.5 33t10.5 39 t8 40t3 37q0 11 -1 16q-4 -1 -8 3l-27 -43q3 3 0.5 -1.5t-4.5 -7.5zM412 657q2 2 5 -5q-1 2 -2 2.5t-3 2.5z" />
<glyph unicode="1" horiz-adv-x="420" d="M487 721q-2 -14 -8 -31t-16 -35v-2q0 -1 1 -1l-1 1q8 -15 15 -32.5t0 -40.5l-27 -56q-20 -39 -39 -77.5t-36 -79.5l1 1l-14 -31q-11 -25 -22.5 -54l-23 -58t-22 -56.5t-18.5 -50.5v1l-15 -51q-11 -37 -22.5 -73t-29.5 -70l2 9q0 -1 -0.5 -3.5t-0.5 -3.5 q-11 -29 -38.5 -43.5t-58.5 -14.5q-19 0 -37 5.5t-31.5 16t-21 25.5t-5.5 35q2 22 5 36.5t6 29.5q2 11 4 21t4 21q17 101 41 202.5t53 205.5q-11 3 -20 7.5t-20 12.5l1 -1q-24 16 -34.5 33.5t-10.5 35.5q0 16 8 31.5t22 28t32.5 23t39.5 18.5h-1l12 7q1 0 3 1q19 17 37 36.5 t35 40.5l4 5q1 2 1 3.5t1 2.5q20 32 55.5 48t71.5 16q42 0 76 -22.5t42 -67.5v-5zM447 720q-5 29 -27.5 42.5t-50.5 13.5q-27 0 -52.5 -11t-39.5 -33l-4 -9l-2 -4q-19 -23 -40 -45.5t-44 -42.5l-8 -4l-17 -10q-1 0 -4.5 -0.5t-6.5 -0.5l7 1q-27 -11 -48.5 -27.5t-21.5 -34.5 t27 -36q10 -8 27.5 -12.5t39.5 -8.5q-14 -53 -29 -110.5t-28.5 -115t-25.5 -113.5t-21 -106q-2 -11 -4 -22.5t-4 -21.5l-6 -34t-5 -28q-2 -19 15.5 -28.5t39.5 -9.5q20 0 36.5 7.5t21.5 21.5v1q19 37 30 71.5t22 69.5l15 51q8 23 18.5 51t22.5 57.5l24 59t23 54.5l-1 -1 l13 30q17 41 36.5 81t39.5 79l27 56q0 8 -4.5 17.5t-9.5 17.5l-11 22q13 22 21 39.5t9 30.5v-5z" />
<glyph unicode="2" horiz-adv-x="545" d="M339 537q-6 -20 -22 -36t-38 -27t-48.5 -17t-51.5 -6q-24 0 -46 5t-38.5 15.5t-26 26.5t-9.5 38q0 20 11 45q13 25 31 53t38 54t42 48t44 36l-1 -1q32 25 81 40.5t101 15.5q48 0 94.5 -16t81.5 -49q29 -26 43.5 -58t14.5 -66q0 -39 -14.5 -79.5t-37 -79.5t-49 -74.5 t-50.5 -65.5q-35 -44 -80.5 -87t-93.5 -87h6q25 0 50 -2t46 -6t36.5 -10.5t22.5 -14.5q11 -9 17 -25t6 -34q0 -17 -4.5 -36.5t-13 -38t-20.5 -35.5t-26 -28q-13 -12 -41 -21t-64.5 -16t-78.5 -10.5t-83 -3.5q-42 0 -79 5t-63 15t-38.5 25.5t-6.5 37.5q3 11 -8 23 q-7 10 -13 20t-6 27q0 9 3.5 21.5t11.5 27.5q10 17 18.5 29.5t16.5 23t16 20.5t18 21l30 34q26 29 52.5 58.5t51.5 55.5q42 44 80.5 86.5t73.5 90.5v-1q11 17 20.5 32.5t14.5 31.5q-14 -15 -22 -33v2zM301 549q10 26 22 38l26 26q4 4 10.5 11t14 14t15 10.5t14.5 0.5 q17 -1 17 -20t-9.5 -46t-24.5 -55t-28 -47q-37 -51 -77.5 -96.5t-78.5 -84.5q-24 -26 -51.5 -54.5t-52.5 -57.5l-30 -34q-18 -21 -33 -40t-32 -48q-5 -8 -7 -16t-2 -13q0 -7 3.5 -12.5t7.5 -11.5v1q9 -12 15 -25t-1 -34q-3 -8 8 -14t32 -10t49 -5.5t60 -1.5q38 0 77 3 t73 8.5t58.5 13.5t34.5 18q22 17 35 48t13 58q0 22 -12 30q-4 6 -16 10t-29.5 6.5t-38 4t-42.5 1.5q-13 0 -25.5 -0.5t-24.5 -0.5q-9 -2 -17 2.5t-12 10.5t-2.5 12.5t11.5 10.5l23 22h1q46 43 93.5 88.5t88.5 94.5q22 28 47.5 62t46.5 70t35 72t14 69q0 26 -10.5 49.5 t-34.5 44.5q-29 29 -68 42t-81 13q-46 0 -89 -13.5t-72 -36.5q-19 -12 -38.5 -32.5t-38 -44.5t-35 -50.5t-29.5 -50.5v1q-5 -10 -5 -24q0 -23 24 -34t56 -11q20 0 40 4t37 11t29 17.5t16 23.5v2z" />
<glyph unicode="3" horiz-adv-x="597" d="M184 263q-26 8 -37 23.5t-11 36.5t15 47.5t37 49.5q15 17 30.5 31.5t31.5 28.5h1q28 26 57.5 53.5t48.5 53.5l-38 -13q-26 -8 -44.5 -13t-33.5 -5q-33 0 -58 26h1q-9 9 -16 28.5t-7 39.5q0 24 11.5 45t41.5 27l-1 -1q5 2 7.5 4.5t5.5 7.5q8 11 18 22.5t31 16.5h-2 q8 3 15.5 5t16.5 6q38 14 81 28t85 14q17 0 34.5 -4t32.5 -10q42 -20 71.5 -58t29.5 -96q0 -54 -34 -131q-23 -36 -48 -59.5t-61 -50.5q45 -19 65.5 -59t20.5 -92q0 -48 -16.5 -100t-45.5 -103q-26 -43 -65.5 -72t-86.5 -47t-97.5 -27.5t-97.5 -14.5q-78 -5 -130 19t-62 68 v-3q-10 29 -0.5 60t29.5 54t47 33.5t53 -1.5q4 -1 7 -1.5t6 -0.5q25 -3 42 -3q20 0 42 6.5t61 25.5q12 6 25.5 16.5t25 22.5t18.5 24.5t7 21.5q0 3 -14 4h-16q-22 0 -55 2t-75 14zM196 301q37 -11 67.5 -12.5t50.5 -1.5h17q29 -1 41 -12.5t12 -31.5q0 -14 -9.5 -31.5 t-24 -34.5t-31.5 -32t-33 -23q-38 -19 -68 -27.5t-53 -8.5q-22 0 -46 3q-4 0 -10 1t-10 1q-16 9 -33.5 3t-30 -20t-18.5 -33t0 -37q7 -32 49 -49.5t105 -13.5h-1q42 4 88.5 14t89 26.5t79 41t59.5 59.5q26 45 41 93t15 90q0 48 -35 83.5t-114 44.5l57 39l-1 -1q44 32 73 57 t49 56q14 31 21 61t7 52q0 46 -22 75t-55 43q-11 5 -24 7.5t-27 2.5q-36 0 -76 -12.5t-75 -26.5l1 1l-31 -12q-14 -3 -19.5 -9.5t-10.5 -13.5v1q-7 -11 -15.5 -19t-22.5 -12q-12 -3 -16.5 -12t-4.5 -20q0 -13 3 -24t8 -16q13 -14 29 -14q11 0 28 4.5t38 11.5q9 3 23.5 7 t31 8.5t32.5 9t28 7.5q-9 -32 -25 -59.5t-35.5 -51t-41.5 -44t-43 -39.5h1q-20 -18 -37.5 -34.5t-22.5 -21.5q-20 -19 -31 -38t-11 -33q0 -16 20 -22z" />
<glyph unicode="4" horiz-adv-x="588" d="M425 78q-11 -35 -22 -71.5t-27.5 -67.5t-41.5 -50.5t-62 -19.5q-32 0 -61.5 18t-49.5 54q-3 11 -1.5 21.5t3.5 21.5v4v-1q-2 0 -3.5 0.5t-3.5 0.5q-17 4 -31 12t-14 36l11 44q7 29 15.5 58t25.5 56q-17 -2 -33 -2.5t-28 -0.5q-33 0 -54.5 8.5t-44.5 34.5q-20 25 -31 45 t-11 43q0 26 15.5 56.5t49.5 74.5q42 54 79.5 99t77 85.5t83.5 79.5t99 82q20 14 48.5 23t52.5 9q21 -1 40.5 -4t36 -11.5t29 -24.5t19.5 -41q12 -12 18 -30v1q9 -28 -4 -55.5t-29 -53.5q-8 -12 -14.5 -22.5t-8.5 -18.5l-21 -80q-6 -23 -10 -41.5t-9 -37.5l-6 -26h8l2 1 q1 0 2 1q9 4 19 7.5t20 4.5t19 -3t16 -15q8 -11 11 -23.5t3 -24.5q0 -37 -29.5 -60t-101.5 -33q-3 -1 -2.5 -0.5t-2.5 0.5q-10 -36 -21.5 -78t-21.5 -75l1 3q-1 -5 -2 -6.5t-2 -6.5zM272 -91q32 0 58 30t34 78q8 14 11.5 29.5t8.5 32.5q1 5 2.5 8.5t2.5 8.5q5 18 12 42 t14 49t13.5 49.5t11.5 42.5h14.5t12.5 2l72 22q11 0 19.5 9.5t8.5 21.5q0 14 -8 26q-4 6 -5.5 6t-3.5 -2.5t-5 -6t-10 -6.5l-13 -5q-11 1 -15.5 0.5t-6.5 -0.5h-5t-12 -0.5t-14 -0.5h-13l19 77q5 19 9 37.5t10 41.5l21 80q5 13 12 26t15 27q13 20 23.5 40.5t5.5 34.5 q-3 10 -20 22v16q-4 14 -12.5 22.5t-20 13t-25 6t-28.5 2.5q-19 0 -40.5 -6.5t-35.5 -17.5q-56 -43 -99 -81.5t-81 -77.5t-74 -82.5t-77 -96.5q-24 -33 -40.5 -61.5t-16.5 -45.5q0 -14 8.5 -29t23.5 -33q14 -16 30 -22.5t39 -6.5q22 0 58 3l61 2l-23 -62q-16 -24 -23.5 -50 t-13.5 -53l1 1q-2 -11 -5.5 -20t-5.5 -20q1 -1 4.5 -1.5t8.5 -2.5q8 -2 18 -5.5t24 -15.5q0 -1 -1 -11.5t-2 -16.5q-2 -8 -3 -15.5t-2 -7.5q14 -23 34 -35t40 -12zM305 488q-2 -9 -12.5 -33.5t-21.5 -51.5q-9 -21 -16.5 -41t-11.5 -34l-54 -15q-18 -5 -31.5 -9t-22.5 -4 q-24 0 -30.5 9t8.5 32.5t53.5 63.5t104.5 102zM210 359q3 11 9.5 25.5t13.5 30.5q-26 -24 -42.5 -41t-27.5 -28l15 5z" />
<glyph unicode="5" horiz-adv-x="603" d="M277 776q20 1 45.5 3.5t55.5 5.5q39 5 81 8t76 3q41 0 66.5 -7.5t27.5 -30.5q7 -22 7 -45q0 -47 -28 -76t-68 -38q-27 -6 -52 -10.5t-54 -4.5q-8 0 -15.5 0.5t-15.5 1.5q-6 0 -12 0.5t-11 1.5q-8 -14 -21.5 -34.5t-27.5 -41.5l-26 -39q41 11 87 11q26 0 49.5 -3.5 t41.5 -11.5q66 -30 90.5 -74.5t24.5 -93.5q0 -38 -9.5 -74t-20.5 -67q-14 -40 -38 -74.5t-53.5 -63t-62.5 -50t-64 -34.5q-34 -14 -72 -21t-80 -7q-34 0 -71.5 6t-72.5 16q-45 14 -69.5 48.5t-24.5 69.5q0 19 6.5 36.5t20 31t34.5 21.5t49 8q19 0 46 -6q35 -8 64 -8 q31 0 55.5 16.5t48.5 59.5q4 6 8.5 19t4.5 25q0 7 -1 8q-7 2 -28.5 -0.5t-46.5 -7.5q-26 -5 -54.5 -9t-54.5 -4q-36 0 -60.5 12.5t-24.5 46.5q-2 17 -3.5 29t-4 21.5t-5 18t-5.5 18.5q15 42 33 77.5t36 69.5l20 36q7 20 13 34t11 24.5t9.5 19t9.5 16.5l5 10q-5 28 7 48 t32.5 32t45.5 17.5t46 5.5zM277 736q-15 0 -32.5 -3.5t-32 -11.5t-22 -21t-1.5 -33q-5 -10 -2.5 -6.5t6.5 5.5l-47 -91q-3 -6 -6.5 -12t-6.5 -13l-16 -29h1q-20 -35 -38 -71t-31 -71q15 -18 18 -35.5t5 -31.5t9 -23t31 -9q22 0 49.5 4t53.5 9q30 5 55.5 7.5t39.5 -2.5 q16 -8 21.5 -19.5t5.5 -25.5q0 -18 -7 -36.5t-12 -27.5q-31 -52 -64 -74t-74 -22q-33 0 -73 10l1 -1q-25 5 -38 5q-35 0 -52.5 -17t-17.5 -40q0 -24 17 -47.5t49 -32.5q66 -20 132 -20q70 0 136 26v-1q27 12 56 31.5t55.5 45.5t48.5 57t36 65q9 27 18.5 63t9.5 64 q0 38 -20 73.5t-71 58.5q-14 6 -33 8.5t-42 2.5q-38 0 -72.5 -8t-44.5 -22l-34 19l2 6q0 1 0.5 1t0.5 1l18 41l37 54l-1 -1q15 23 28.5 42.5t21.5 33.5l-1 -1l9 18q20 0 31 -0.5t20 -1.5q8 -1 15 -1.5t12 -0.5q23 0 47.5 4.5t50.5 10.5q26 7 45 26t19 48q0 17 -7 38 q0 3 -15.5 4t-38.5 1q-32 0 -72.5 -3t-80.5 -8q-30 -3 -57 -5.5t-47 -3.5h-1z" />
<glyph unicode="6" horiz-adv-x="582" d="M435 807q18 6 38 6t38 -6t31 -16t19 -23.5t2 -27.5q0 -2 3.5 -5.5t8.5 -6.5q11 -8 19.5 -17t8.5 -22t-12 -27t-43 -32q-13 -5 -29.5 -12.5t-30.5 -15.5l-22 -11h1q-50 -24 -90.5 -68t-73.5 -95q20 7 39.5 10.5t37.5 2.5q34 -1 67.5 -20t58 -50t37 -71.5t5.5 -84.5 q-14 -84 -43 -142.5t-72 -95.5t-98.5 -53.5t-120.5 -16.5q-63 3 -107.5 21.5t-73.5 50t-42.5 75.5t-13.5 97t12 113q22 95 58 178t89.5 152t127 122.5t170.5 90.5h1zM448 769q-92 -35 -161 -86t-119.5 -116t-84.5 -143.5t-55 -168.5l1 1q-12 -59 -12 -105q0 -87 49.5 -141.5 t149.5 -62.5q56 1 104 16t86 47.5t64 84.5t38 126q6 35 -3.5 67t-28.5 57t-45 40t-53 16q-15 1 -35 -8.5t-38.5 -20.5t-32.5 -18t-17 -2l-26 14q-5 6 2.5 24.5t24 43.5t40 54t49.5 56t53 49t51 34q5 2 10 5t11 6h-1q14 8 31.5 16t33.5 14q16 10 22.5 14.5t6.5 6.5 q0 7 -1 4.5t-9 2.5q-15 10 -25 23.5t-1 36.5q1 3 -3 6.5t-12 5.5t-18.5 3.5t-20.5 1.5q-8 0 -14 -1t-12 -3h1zM318 246q-7 1 -18.5 -5t-24 -16.5t-24 -23.5t-17 -26t-4.5 -24t14 -16q38 12 56.5 28t25.5 31.5t5.5 30t-2.5 23.5zM311 284q28 8 42 -6t15.5 -39t-9.5 -54.5 t-33.5 -53t-56 -34t-77.5 2.5l1 -2q-13 21 -10.5 44.5t13.5 45.5t27.5 42t34 33.5t32 19.5t21.5 1z" />
<glyph unicode="7" horiz-adv-x="548" d="M157 296q32 69 68 139.5t78 125.5l-93 2h-17.5h-24t-24 0.5t-17.5 0.5q-5 1 -9.5 2t-12.5 3l2 -1q-4 2 -6 2q-26 6 -38 24t-12 42q0 19 8 40.5t23.5 39.5t38 31t51.5 15q73 5 128 13.5t100 16.5q15 3 31.5 5.5t30.5 4.5l16 2q13 2 27 4.5t29 2.5q29 0 51.5 -12.5 t32.5 -50.5l-2 -17q26 -13 43.5 -34.5t17.5 -49.5q0 -34 -30 -71q-30 -32 -59.5 -72t-59 -83.5t-57.5 -89t-55 -89.5q-37 -61 -78.5 -127.5t-80.5 -120.5q-9 -12 -20 -26t-25 -30q-1 -2 -2 -3l-3 -3l-3 -4q-13 -10 -20 -17.5t-15.5 -13t-22.5 -8.5t-41 -3q-11 0 -20 0.5 t-16 1.5q-19 5 -37 14t-29 22t-15.5 25.5t-4.5 23.5q0 20 10 35t22 30q5 8 11.5 16t8.5 10q23 36 44 75q20 36 39 75.5t39 81.5zM338 541q-44 -55 -78.5 -123t-66.5 -138q-20 -42 -39.5 -83t-39.5 -77l1 1q-21 -39 -46 -78v1q-7 -11 -12.5 -17t-10.5 -14q-9 -11 -16 -21 t-7 -19q0 -10 10 -23q7 -8 17 -14t21 -8l-2 1q21 -3 36 -3q22 1 37.5 7t28.5 17t25.5 28t28.5 40q42 59 81.5 121.5t75.5 122.5q58 95 115 183t120 157h-1q21 27 21 45t-20 33.5t-49 25.5l10 36q-6 16 -18 22.5t-26 6.5q-9 0 -23.5 -2.5t-28.5 -4.5l-17 -2h3l-60 -10 q-43 -8 -100 -16.5t-133 -13.5q-20 -2 -35.5 -10.5t-26.5 -21t-16.5 -27t-5.5 -27.5q0 -10 2 -16.5t10 -9.5q2 0 5.5 -1t5.5 -1q3 -1 7.5 -2t10.5 -2q17 -1 39 -1h39q16 0 39 -1t46.5 -2t46 -2t39.5 -2z" />
<glyph unicode="8" horiz-adv-x="658" d="M126 615q16 46 48 86.5t74.5 69.5t92 44.5t99.5 13.5h10q14 0 31 -0.5t34 -6t32.5 -18t27.5 -36.5q28 2 49.5 -9.5t36.5 -32t22.5 -48t7.5 -57.5q0 -28 -7 -55q-20 -66 -64 -123.5t-98 -96.5q16 -17 28 -39.5t19.5 -47t10.5 -49.5t2 -47q-6 -63 -36.5 -111.5t-70 -81.5 t-82 -51.5t-73.5 -22.5q-26 -3 -53 -5.5t-56 -2.5q-39 0 -75 7t-66 26.5t-52 53.5t-31 88q-2 11 -2 21v21q0 48 12.5 86t33.5 69t48.5 54.5t57.5 42.5l45 26q-29 38 -48.5 77t-19.5 87q0 32 12 68zM438 789q-42 1 -84.5 -13.5t-79.5 -40t-66 -60t-44 -72.5q-5 -14 -7.5 -28 t-2.5 -28q0 -44 25.5 -87t62.5 -88l-84 -49h1q-26 -17 -50.5 -37.5t-43 -47.5t-29.5 -60t-11 -73v-17t2 -19q8 -41 26 -68t43 -43.5t54.5 -23t60.5 -6.5q25 0 52 2.5t53 5.5q28 5 65.5 22t71.5 45.5t59.5 69.5t29.5 94q2 22 -3 46.5t-16 49t-28.5 47t-40.5 39.5 q34 23 65.5 48.5t57 53.5t43.5 59t26 66q5 22 5 45t-7 43.5t-19.5 35t-31 21.5t-41.5 2q-11 24 -24 37.5t-26.5 20t-27 7.5t-24.5 1h-12zM469 618q2 -8 4 -12.5t4 -8.5v1q6 -12 10.5 -24t-3.5 -27q-25 -38 -44.5 -57.5t-37.5 -33.5q-6 -5 -13.5 -11t-21.5 -20l-20 22 q-10 16 -14 31t-4 32q0 36 16.5 65.5t38.5 47t44 19t32 -18.5zM375 142q-5 -25 -22.5 -36t-40.5 -11q-17 0 -35 6.5t-33 17t-24.5 24.5t-9.5 30q0 31 34 54v-1q4 3 5 3t2 -2q0 3 1 6t4.5 7t10.5 8.5t20 11.5l38 14q13 -18 23.5 -34t17.5 -32t9.5 -32t-0.5 -34zM335 150 q4 23 -3 39.5t-21 36.5l-8 -3q-10 -4 -12 1q0 -5 -4 -12.5t-21 -18.5q-16 -12 -16 -20t6 -14.5t15 -12t20 -8.5t21 -3q8 0 14.5 3.5t8.5 11.5zM441 578q-4 6 -7 15l-8 9q-4 10 -13.5 4t-19 -21t-17 -35.5t-7.5 -39.5q0 -14 4 -26l5 4q15 11 32 28t39 51q-3 0 -8 11z" />
<glyph unicode="9" horiz-adv-x="603" d="M353 -44q-22 -29 -60.5 -45t-74.5 -16q-20 0 -38.5 5t-32.5 15t-22 25.5t-8 37.5t9 46q15 26 28 49t26 44.5t27 44t31 47.5q-15 -2 -29.5 -1.5t-25.5 2.5q-38 6 -69.5 24t-54.5 46t-36 63t-13 75q0 24 4.5 49t14.5 49q24 58 63.5 112t89.5 94.5t107.5 62.5t117.5 18 q4 0 8.5 -0.5t8.5 -0.5q30 -3 67.5 -7.5t67.5 -17.5t46.5 -36t4.5 -63q-2 -8 0 -12t7 -7q6 -5 12.5 -11.5t11.5 -16t7 -23.5t-1 -35q-11 -83 -36.5 -167t-63 -163.5t-87 -152.5t-107.5 -134zM325 -16q55 58 101.5 128t83 147.5t61 158.5t36.5 161q2 22 -3.5 33t-12.5 17 q-13 11 -19.5 23.5t0.5 37.5q4 20 -10.5 33t-38.5 21t-52 12t-51 6q-5 0 -9.5 0.5t-7.5 0.5q-56 5 -107.5 -14t-95.5 -55t-78 -85.5t-55 -106.5q-17 -45 -17 -84q0 -33 10 -61.5t28.5 -51t44 -37t56.5 -18.5q18 -3 55 2.5t87 18.5q-36 -50 -60.5 -85.5t-43 -64.5t-33 -55 t-31.5 -57l2 3q-8 -22 -8 -34q0 -23 18.5 -33t42.5 -10q30 0 60 12t45 34zM401 626q18 -3 26 -9t10 -14t-0.5 -18.5t-6.5 -22.5l-6 -18v1q-9 -37 -25 -62t-35 -39t-39 -18t-37 1q-18 5 -26.5 19t-8.5 33q0 22 12 49.5t32.5 50.5t47 38t56.5 11v-2zM392 574q2 5 1.5 8.5 t-11.5 5.5q-18 -2 -34 -14t-28.5 -28.5t-19.5 -34.5t-7 -32q0 -12 5 -14q21 -6 47.5 15t40.5 75z" />
<glyph unicode=":" horiz-adv-x="339" d="M381 397q-10 -17 -27 -29.5t-37.5 -21t-43.5 -13t-46 -4.5q-26 0 -49.5 5.5t-41.5 16.5t-28.5 28t-10.5 40q0 9 1 17.5t5 17.5l4 8q10 20 27 34.5t37.5 23.5t43 13.5t44.5 4.5q27 0 51.5 -6t44 -17.5t31 -28.5t11.5 -39t-13 -44l1 1l-3 -6zM308 192q-3 -31 -20.5 -56 t-42 -43t-54.5 -27.5t-59 -9.5q-37 0 -67 15.5t-42 49.5h-3v2l-3 16v6v1h3q4 30 24.5 53.5t50 40.5t63 26t63.5 9q22 0 40 -4.5t30 -14t16.5 -24t-0.5 -35.5q0 -1 0.5 -1.5t0.5 -1.5v-2zM349 422q5 8 6.5 14t1.5 11q0 12 -8 21.5t-21.5 16t-31.5 10t-37 3.5q-35 0 -67.5 -14 t-48.5 -40q0 -1 -0.5 -1t-0.5 -1q-1 -1 -1 -2q-2 -5 -3 -10.5t-1 -10.5q0 -26 27.5 -38t62.5 -12q37 0 71.5 12.5t48.5 35.5l-1 -1zM132 96q22 0 44.5 7t42 19.5t33 30.5t16.5 41l-1 4q5 20 -9 28.5t-37 8.5q-24 0 -52 -7t-51.5 -19.5t-40 -30t-17.5 -39.5q8 -23 27.5 -33 t44.5 -10z" />
<glyph unicode=";" horiz-adv-x="339" d="M304 263q3 -4 5.5 -6.5t4.5 -6.5l2 -3l22 -22q-2 -21 1 -31q0 -6 2 -16q1 -4 1 -9q-2 -28 -20 -53t-41 -45q-28 -32 -67 -56.5t-79 -24.5q-20 0 -40.5 7.5t-40.5 24.5q-8 17 -8 32t6 29q5 10 12.5 22.5t15.5 24.5q-1 2 -1 6l-3 3l-16 15l-1 5q-13 26 -13 49q0 22 11 39.5 t29 29.5t41 18.5t47 8.5t38.5 -0.5t32.5 -8.5l-2 1l20 -5q4 -5 8 -8.5t7 -5.5l5 5l19 -17zM381 407q-10 -17 -27 -29.5t-37.5 -21t-43.5 -13t-46 -4.5q-26 0 -49.5 5.5t-41.5 16.5t-28.5 28t-10.5 40q0 9 1 17.5t5 17.5l4 8q10 20 27 34.5t37.5 23.5t43 13.5t44.5 4.5 q27 0 51.5 -6t44 -17.5t31 -28.5t11.5 -39t-13 -44l1 1l-3 -6zM283 224l-2 1q-9 6 -19.5 14t-17.5 15q-1 0 -2.5 0.5t-3.5 0.5q-17 5 -29 8t-32 1q-17 -1 -33.5 -5t-29.5 -11t-20.5 -17t-7.5 -23q0 -14 10 -33l4 -3q3 -3 6.5 -6t12.5 -9q0 8 -1.5 11.5t-10.5 -1.5l7 -7 l21 -20l-19 -28l1 1q-8 -12 -16.5 -24t-10.5 -20q-6 -14 -2 -23q11 -9 22.5 -12.5t24.5 -3.5q32 0 63.5 20t54.5 49q19 16 33 34.5t16 36.5q0 6 -1 10.5t-2 10.5q-2 10 -2 19zM349 432q5 8 6.5 14t1.5 11q0 12 -8 21.5t-21.5 16t-31.5 10t-37 3.5q-35 0 -67.5 -14t-48.5 -40 q0 -1 -0.5 -1t-0.5 -1q-1 -1 -1 -2q-2 -5 -3 -10.5t-1 -10.5q0 -26 27.5 -38t62.5 -12q37 0 71.5 12.5t48.5 35.5l-1 -1z" />
<glyph unicode="&#x3c;" horiz-adv-x="570" d="M497 624q17 3 32 4t38 -2q19 -3 39 -12.5t36 -22.5t26.5 -30t10.5 -35q0 -9 -1 -17t-6 -16q0 -26 -17.5 -50.5t-49.5 -43.5q-54 -28 -112 -49t-114 -41q-23 -8 -39 -13t-40 -14q7 -4 28 -15t50 -27q37 -20 79 -43.5t75 -50.5q6 -22 1.5 -41.5t-16 -34t-27.5 -23.5 t-33 -10q-11 3 -33 7t-49 9q-33 5 -71.5 12.5t-79 18t-80 25.5t-74 36t-62 48.5t-42.5 63.5q0 10 2.5 16.5t7.5 14.5l-1 -1q3 6 5 13t-6 17q0 21 10.5 38t26.5 31.5t34.5 26.5t35.5 22q-2 -1 2.5 2l10.5 7l94 49q69 38 140 72t157 57zM489 582q-75 -21 -144.5 -54.5 t-138.5 -70.5l-89 -47l-22 -13q-12 -8 -25.5 -16t-25 -16t-20 -17t-10.5 -18q13 -20 8.5 -34t-11.5 -27l-1 -1l-3 -6q21 -44 65.5 -73t98 -47.5t109.5 -30t101 -18.5q25 -5 45 -8t36 -8q14 3 26 15t10 29q-30 23 -68 44.5t-70 38.5q-24 13 -45.5 24.5t-36 23.5t-21.5 25 t-3 30q25 10 55 20.5t56 19.5q56 20 113.5 41t108.5 47l-1 -1q23 14 35 32t9 36q5 8 7 13.5t2 10.5q0 11 -7 21t-18.5 18t-25.5 13.5t-27 7.5q-19 3 -30 2t-26 -4l-17 -3z" />
<glyph unicode="=" horiz-adv-x="567" d="M83 125q-28 -3 -50 3t-37.5 18t-23.5 28.5t-8 34.5q0 24 16 46.5t49 34.5l-1 -1q57 24 120 29.5t128 7.5q38 1 75.5 3t72.5 8q18 3 35 3q45 0 68 -21t23 -50q0 -33 -33 -68t-99 -51q-59 -10 -108 -14t-102 -5q-28 -1 -58.5 -2.5t-67.5 -3.5h1zM475 561q63 -6 94 -32.5 t31 -56.5q0 -17 -10 -33.5t-29 -29t-47 -20.5t-65 -8q-29 4 -55 -3t-52.5 -17.5t-54 -19.5t-57.5 -9q-48 0 -78 3q-42 9 -67 31.5t-25 49.5q0 10 2.5 18.5t11.5 18.5q12 31 62 47h-1q17 6 36 10.5t39 8.5l29 6l28 6q51 11 101 19.5t104 10.5h3zM80 165q37 2 67.5 3.5 t58.5 2.5q51 2 98 5t107 14l-2 -1q51 12 76 35.5t25 44.5q0 13 -12.5 22t-38.5 9q-5 0 -13.5 -1t-15.5 -2q-35 -6 -74.5 -8t-79.5 -3q-62 -2 -121.5 -7t-111.5 -27q-20 -7 -29.5 -19t-9.5 -24q0 -9 5 -18t15 -15.5t23.5 -9.5t31.5 -1h1zM471 521q-45 -2 -96.5 -11t-99.5 -19 l-26 -6l-31 -5q-18 -4 -37 -8.5t-33 -9.5q-34 -11 -38 -29q-10 -10 -10 -17q0 -13 17 -24t45 -17h-2q30 -3 70 -3q28 0 63.5 8t68.5 18t58.5 18t33.5 8q7 0 10 -3q48 2 72 17.5t24 33.5q0 16 -22 30t-67 19zM456 384q-4 0 -7 -0.5t-6 -0.5h6.5t6.5 1z" />
<glyph unicode="&#x3e;" horiz-adv-x="745" d="M437 316q-1 0 -2 1t-2 1q-19 12 -39.5 24.5t-43.5 25.5q-29 17 -58.5 34.5t-64.5 43.5q-25 26 -25 60q0 14 4.5 25.5t13.5 23.5q7 16 21.5 33.5t40.5 34.5l25 10l26 12q19 6 35.5 8.5t32.5 2.5q38 0 69 -14.5t57 -35.5l16 -11q18 -13 44 -33t54 -43.5t55 -49t46 -50.5 t27.5 -48t-0.5 -40l-13 -18l-4 -5q6 -33 -7 -71q-14 -24 -27 -36t-38 -27q-42 -14 -79.5 -21t-77.5 -13q-51 -8 -102.5 -20t-103.5 -25q-71 -18 -143 -33.5t-134 -18.5q-2 8 -4.5 15.5t-4.5 12.5q-7 15 -11 32.5t8 33.5l14 19q4 6 8 10.5t6 7.5q21 22 64 42.5t93 37 t100.5 30t85.5 22.5q10 2 18.5 5t15.5 5l-1 -1zM441 276l-33 -8h1q-34 -8 -81.5 -20.5t-95 -28.5t-87.5 -34t-58 -38l1 2q-2 -2 -3.5 -4.5t-3.5 -4.5q-3 -3 -5 -6l-16 -21q-2 -4 1 -12t7 -16q2 -5 1 -1t0 1q51 4 112.5 17.5t125.5 30.5q56 14 112 27.5t98 19.5q37 6 75.5 13 t73.5 19q14 9 23.5 17.5t18.5 22.5q5 17 5.5 34t-3.5 31l12 18l12 16q4 10 -6.5 27t-29 37t-43.5 41.5t-50.5 41.5t-48 37t-37.5 28q-5 4 -13 9.5t-6 4.5q-21 17 -45 28t-54 11q-25 0 -55 -9h1l-25 -11l1 1l-18 -7q-20 -14 -32.5 -28.5t-18.5 -27.5q-12 -17 -12 -28 q0 -17 16 -33l-3 2q28 -20 57 -37.5t58 -34.5v1q42 -23 85 -52h-1l80 -50z" />
<glyph unicode="?" horiz-adv-x="570" d="M647 543q5 -45 -16 -85t-55.5 -76t-77 -67.5t-81.5 -57.5q-15 -11 -30.5 -21.5t-28 -20.5t-21 -17.5t-11.5 -12.5q-3 -21 -16 -36.5t-31.5 -26.5t-40.5 -16.5t-42 -5.5t-37.5 6t-28.5 17q-13 29 -13 52q0 30 14 61t37 62t51 61.5t57 59.5q20 20 39.5 40.5t35.5 39.5 q-9 -5 -18 -8.5t-19 -7.5l-18 -7l-8 -4q-5 -3 -11.5 -6.5t-23.5 -8.5t-31.5 -6.5t-27.5 -1.5q-40 0 -67 18.5t-44 65.5q-7 27 0 55.5t21.5 54.5t33.5 47t37 32q51 29 117 47t129 18q68 0 125 -21t86 -69v1q13 -20 10.5 -42t-7.5 -42l-4 -30q1 -3 5 -9q4 -8 7 -16t4 -16z M607 539q-1 5 -3 10l-4 10v-1q-4 8 -7 15.5t-3 15.5q0 18 1.5 21.5t3.5 11.5q4 15 6 30.5t-3 23.5q-23 38 -70.5 54.5t-106.5 16.5q-60 0 -120 -15.5t-106 -43.5q-14 -8 -29.5 -24t-27.5 -35t-18 -40t-1 -40v2q14 -34 31.5 -48t43.5 -14q23 0 49 6h-1q15 5 20.5 8t10.5 6 l11 5h-1l17 7l-1 -1q16 7 29 13t28 14t22 14.5t12 11.5l41 29l-2 -50q-11 -38 -47 -78t-78 -83q-26 -27 -52.5 -55t-47.5 -55.5t-34 -54.5t-13 -51q0 -17 5 -28q12 -7 34 -7q14 0 29.5 3.5t28.5 10.5t22 17t10 23q4 20 35 44t74 53q36 24 75 52t71 59.5t51 66t15 70.5z M263 -25q-25 -48 -64 -70.5t-75 -22.5q-39 0 -65.5 25t-23.5 68q2 24 11 40t21.5 26.5t26.5 16.5t27 9q8 2 17.5 3.5t17.5 1.5q25 0 50 -7t42.5 -20t22.5 -31.5t-9 -40.5zM228 -5q5 8 -0.5 15t-16.5 12t-26 7.5t-29 2.5q-5 0 -12 -1t-14 -3l1 1q-8 -2 -17.5 -5.5t-17.5 -10 t-14 -17t-7 -25.5q-2 -24 12.5 -36.5t36.5 -12.5q26 0 55 17t48 54z" />
<glyph unicode="@" horiz-adv-x="815" d="M520 26q-53 0 -88.5 24t-36.5 74q-13 -6 -26.5 -10t-27.5 -4q-66 -1 -104 37t-38 101q0 27 8 58t26 65q-9 -12 -18 -30t-17 -40t-13 -46t-5 -48q0 -22 6 -42.5t19.5 -37t36 -28t56.5 -15.5q28 -3 44 -9.5t23.5 -15t9.5 -18.5t3 -20q1 -5 2 -11.5t4 -9.5q21 -18 21 -40 q0 -16 -13 -29.5t-35 -23.5t-51.5 -16t-62.5 -6q-35 0 -71.5 7.5t-70 24t-61 42t-44.5 62.5q-19 45 -19 105q0 58 17.5 127.5t48.5 139.5t74.5 136t96.5 117q80 75 173.5 114.5t182.5 39.5q60 0 116.5 -18t101.5 -52q17 -13 32 -34.5t26 -50t17.5 -62t6.5 -70.5 q0 -80 -34 -180t-105 -200q-20 -24 -46 -44t-54 -34t-57 -21.5t-54 -7.5zM435 130q-1 -32 24 -48t61 -16q46 0 96 23t83 68q72 97 101.5 188t29.5 168q0 67 -18.5 115.5t-47.5 69.5q-40 31 -89.5 46.5t-104.5 15.5q-82 0 -167.5 -35t-160.5 -107q-51 -48 -92.5 -110 t-71 -128.5t-45.5 -132t-16 -121.5q0 -26 3.5 -48.5t11.5 -40.5q13 -31 36.5 -52.5t52 -34.5t60.5 -19t62 -6q25 0 47 2.5t38.5 7.5t26.5 11t10 14q0 2 -2.5 5t-4.5 5q-12 11 -15.5 23.5t-4.5 23.5q-1 9 -7 16t-37 11q-43 6 -72.5 21t-47.5 37t-26 49t-8 56t6 58t16 55.5 t21 47.5t22 34v-1q37 48 64.5 80t54.5 53.5t57.5 36.5t72.5 30h-1q40 15 77 15q57 0 98 -31.5t65 -82.5q9 -20 17.5 -51t8.5 -64q0 -37 -12 -75t-44 -67q-10 -9 -23 -16t-28 -14q-32 14 -46.5 26.5t-14.5 32.5q0 14 9 30.5t27 42.5q6 7 9 20t3 28q0 17 -3.5 32t-11.5 27 q-13 5 -18.5 11t-6.5 13t1.5 14t5.5 14q0 -2 4 -2q-20 29 -55 29q-27 0 -58 -12.5t-62 -33.5t-59 -47.5t-47 -54.5q-26 -38 -38 -73t-12 -64q0 -45 27 -72t75 -26q15 0 36.5 12.5t46.5 32.5q5 -47 9 -56zM295 221q-1 26 9 51.5t28 45t41 31.5t47 11q8 -2 16 -7.5t21 -21.5 q-6 -7 -18 -19.5t-18 -20.5q-23 -25 -45.5 -49t-51.5 -38zM530 576q-10 0 -19 -1.5t-19 -3.5q6 1 11.5 1.5t11.5 0.5q23 0 43.5 -8.5t35.5 -26.5q14 -8 15 -19t-4 -24q-2 -5 3 -7q16 -20 23.5 -44.5t7.5 -48.5q0 -23 -5.5 -43.5t-18.5 -34.5l1 2q-12 -18 -18.5 -29t-6.5 -16 t20 -15q5 3 11.5 7t12.5 9q25 23 34.5 53t9.5 59t-7 54.5t-15 42.5q-20 41 -51.5 66.5t-75.5 25.5zM388 314q-14 -6 -25.5 -19t-19.5 -29q12 11 23 23t22 25zM396 125q-1 0 -1 -1q0 -2 0.5 -2.5t0.5 3.5z" />
<glyph unicode="A" horiz-adv-x="564" d="M388 770q16 8 33.5 14.5t34.5 7.5q22 1 44.5 -4.5t41 -16t30 -26t11.5 -35.5q0 -14 -4 -25q12 -10 22 -25t15 -35q-8 -47 -15.5 -94t-14.5 -93q-10 -66 -20.5 -131t-24.5 -131q-4 -18 -7 -36.5t-6 -36.5l-11 -70l-7 -25q-2 -9 -3.5 -17.5t-3.5 -17.5q0 -2 -0.5 -5.5 t-0.5 -4.5q-20 -23 -46 -34t-52 -11t-50 8t-41 22q-11 8 -15 17.5t-4.5 20t2 21t4.5 20.5q2 5 2 8.5t1 8.5q2 11 2.5 21.5t1.5 21.5q-14 -8 -25 -15.5t-16 -12.5l1 1l-3 -3q-1 -1 -3 -2q-15 -9 -28 -12.5t-24 -4.5q-2 -1 -5 -1h-5q-11 -19 -24 -38t-27 -35.5t-30 -29 t-32 -17.5h1q-22 -7 -45 -7q-24 0 -45.5 8.5t-35.5 34.5q-8 10 -12 24t-4 30q0 22 5.5 48t13 50t15 42.5t10.5 26.5q33 76 72.5 155.5t86 156t99.5 146t114 126.5zM387 726q-62 -58 -114 -125t-96 -140t-81.5 -149.5t-70.5 -153.5q-3 -6 -9.5 -23t-13.5 -39t-12 -45.5 t-5 -43.5q0 -21 8 -29q9 -16 22 -22t27 -6q16 0 33 5q12 3 25 14.5t25 27t23.5 33.5t21.5 35q12 10 19 11t16 2q8 1 16 3t18 8l2 1q8 6 34 23t74 29l-2 -51q-1 -13 -1.5 -26.5t-2.5 -26.5l-5 -21q-3 -11 -4.5 -22.5t3.5 -15.5q12 -11 30 -16t37 -5q17 0 32.5 5t26.5 16 q2 8 3 15.5t3 15.5l7 25l12 74q3 19 6 37.5t7 37.5q14 66 24.5 130t20.5 130q7 45 14 91t15 91q-10 24 -50 43q10 17 14 26.5t4 14.5q0 10 -8 18.5t-20 13.5t-27 7.5t-30 2.5q-13 -1 -26.5 -6.5t-27.5 -11.5zM312 195q-2 0 -2 3l-79 -3l33 81q10 23 17.5 43t12.5 34 q3 9 12.5 26t21 34t24 29t22.5 10q13 -3 17 -19t3 -39.5t-6 -52t-11 -55.5t-11.5 -50t-7.5 -36l-14 -1v-2q-7 -1 -14.5 -1.5t-17.5 -0.5zM332 339q-5 -14 -13.5 -35t-18.5 -44l-10 -23h14t18 1q2 15 6 33.5t9 37.5t9.5 37t6.5 33z" />
<glyph unicode="B" horiz-adv-x="603" d="M216 -68q-20 0 -27 2t-12 6l-2 1q-38 -24 -82 -24q-24 0 -47 7.5t-41 23.5t-28.5 39t-10.5 55q2 12 3 21t6 19q-1 5 -1.5 12t-0.5 13q13 70 31 147t42 153t55.5 146.5t71.5 126.5q22 29 50 51.5t59.5 38t65.5 23.5t67 8q63 0 121 -28h1q17 -11 30.5 -20.5t23.5 -20.5 q13 -14 26.5 -31.5t24 -37t17 -40t6.5 -41.5q0 -29 -10 -55q-20 -50 -61 -97t-87 -81q1 -1 0.5 0t0.5 0q6 -3 14 -5.5t16 -7.5q23 -13 34.5 -37.5t11.5 -57.5q0 -45 -22 -99t-65 -101t-105 -79t-142 -32q-10 0 -19 0.5t-17 1.5h2zM218 -28q8 -1 16.5 -1.5t15.5 -0.5 q70 0 125 28t92.5 69t57 88t19.5 86q0 21 -6.5 36.5t-19.5 22.5q-8 5 -14.5 7.5t-12.5 5.5h1q-11 5 -22 11.5t-37 24.5q29 19 57.5 42t53.5 48t44 51t29 51q8 22 8 41q0 34 -19 65t-45 56q-20 21 -35 31h-4q-50 27 -107 27q-27 0 -56.5 -7.5t-57 -21.5t-52.5 -33t-44 -43 q-36 -53 -65.5 -121.5t-53.5 -143t-42.5 -150.5t-30.5 -142q0 -5 1 -9.5t3 -9.5q-8 -17 -11 -42v2q0 -42 26.5 -62.5t60.5 -20.5q37 0 72 27q18 -2 24 -5.5t10 -5.5q1 -1 3.5 -1h13.5h2zM253 141q-7 -23 -11 -35.5t-6 -18.5t-1 -7.5t5 -1.5h12.5t16.5 3t23.5 10t32.5 20 q10 10 16.5 22.5t8.5 26.5v-1q1 14 -4.5 18.5t-13.5 4.5q-5 0 -18.5 -2t-22.5 -4q-10 -2 -14.5 -2.5t-14.5 -2.5q-2 -9 -4.5 -15.5t-4.5 -14.5zM193 59q5 29 10 50t12 44q2 6 5 17.5t9 38.5q16 2 29.5 3.5t24.5 3.5l24 4t25 2q27 0 43.5 -13.5t14.5 -52.5 q-2 -24 -15.5 -44.5t-27.5 -34.5q-24 -15 -40.5 -23.5t-29 -12t-21.5 -3.5h-17h1h-8t-11 -2h-8zM376 543q-18 -20 -28 -38t-16 -41q1 1 4 1.5t4 1.5q28 10 51.5 21t39.5 32q3 3 7 11t4 13q-7 9 -20 15q-5 -2 -11 -3t-11 -1h-6t-5 -1q-8 -4 -13 -10v-1zM346 570q13 14 27 20 h-1q8 4 15 4.5t13 0.5t19 10q19 -10 34 -20t26 -24q4 -9 3 -19t-4 -18.5t-7 -16t-8 -11.5q-21 -27 -50 -41.5t-59 -25.5l-77 -28q7 33 13 57.5t13.5 44t17.5 36t25 32.5v-1z" />
<glyph unicode="C" horiz-adv-x="590" d="M458 -14q-43 -27 -99 -45.5t-113 -18.5q-13 0 -26.5 1t-24.5 3q-37 7 -70.5 20t-59.5 37t-44 61t-23 93v-1q-2 17 -3 34t-1 34q0 94 31.5 183t79 162t103.5 124.5t106 72.5q36 18 77.5 28t83.5 10q11 0 19.5 -0.5t17.5 -1.5q86 -11 129 -59.5t43 -122.5q0 -56 -27 -122h1 q-9 -23 -26.5 -40.5t-38.5 -29t-43.5 -17t-43.5 -5.5q-44 0 -63.5 21t-19.5 56q0 17 6 38q0 7 -1 7q-4 0 -10 -2l-12 -4h-1l-10 -4q-9 -5 -17.5 -10.5t-18.5 -14.5t-22.5 -23t-28.5 -37q-22 -30 -36 -60.5t-21.5 -58t-9.5 -49.5t0 -36q5 -27 22.5 -39.5t31.5 -11.5 q16 1 26.5 6t20.5 12q13 8 27 14.5t36 6.5q10 0 22 -1.5t26 -6.5q18 -5 26.5 -13.5t11.5 -18.5t2 -21t-2 -21q-2 -6 -0.5 -11t11.5 -7q15 -17 15.5 -32t-7 -28t-20.5 -24.5t-26 -21.5l2 2l-5 -4zM440 23q12 9 24.5 19t14.5 18q-14 3 -21 9t-9 14.5t-1 18t3 19.5q2 8 0 17 t-10 13q-20 6 -36 6q-14 0 -23.5 -5t-18.5 -10h1q-13 -9 -27.5 -16t-39.5 -8q-12 0 -27 4.5t-29 15t-25 27t-15 38.5q-2 16 0.5 42t11.5 57.5t24.5 66.5t38.5 68q17 23 30 38.5t24.5 25.5t21 16.5t19.5 12.5l7 5l15 5h-1q8 3 17.5 5.5t18.5 2.5q17 0 28 -11t13 -41 q-6 -20 -6 -33q0 -17 10 -27t33 -10q15 0 32 4t33 12.5t29 21.5t20 30q24 60 24 106q0 58 -34 96t-103 46h1q-9 1 -17 1.5t-16 0.5q-38 0 -75 -9.5t-71 -26.5q-46 -18 -98 -65.5t-95.5 -115.5t-72.5 -151t-29 -172q0 -15 1 -30.5t3 -32.5q4 -46 19 -77t36.5 -50.5 t49.5 -30.5t60 -17q20 -4 43 -4q51 0 101.5 17t88.5 41l-1 -1z" />
<glyph unicode="D" horiz-adv-x="594" d="M625 310q-11 -41 -31.5 -82.5t-48 -81t-61.5 -74t-72.5 -60.5t-80 -41t-84.5 -15h-13t-13 1q-17 -28 -43 -40.5t-55 -12.5q-26 0 -51.5 10t-46 27.5t-33 42.5t-12.5 55q0 61 7 115.5t19 104t27.5 95.5t33.5 91q17 40 31 80.5t25 79.5q2 8 3 16t3 17q4 26 11 52t25 48 q9 11 20.5 18t22.5 12q46 21 90 21q39 0 76 -13t70.5 -34t63.5 -46t55 -49q45 -44 63.5 -93t18.5 -106q0 -32 -5.5 -66.5t-14.5 -71.5zM587 320q8 34 13 66t5 62q0 49 -16 91t-54 80q-23 22 -50 45t-57 42t-63 31t-67 12q-18 0 -36.5 -4t-37.5 -13q-8 -4 -15.5 -8.5 t-13.5 -11.5q-11 -14 -17 -36.5t-9 -43.5q-3 -20 -8 -37q-12 -44 -27 -85.5t-30 -79.5l1 1q-35 -88 -60 -182t-25 -210q0 -21 9 -38.5t24 -30t33.5 -19.5t36.5 -7q21 0 41 14t34 43q15 -2 27.5 -3.5t21.5 -1.5q57 0 112 30t100.5 76.5t79 104t48.5 113.5zM253 142 q-15 -8 -9.5 -5t16.5 10q20 14 35.5 25.5t29.5 24.5l33 28q17 17 31.5 40t22.5 46q14 44 14 75q0 32 -14 58.5t-46 47.5q-4 3 -11.5 8.5t-13.5 10t-6.5 5t8.5 -5.5q-4 -13 -7.5 -27t-6.5 -28t-6.5 -27.5t-8.5 -29.5l-26 -86l-22 -95q-3 -26 -8 -48zM213 146l5 30 q2 12 4 22.5t4 27.5l22 95l28 89q3 10 6.5 23.5t6.5 29.5q5 20 12 44.5t23 59.5q6 -3 15 -9t18.5 -12t18.5 -11.5t14 -9.5l-1 1q40 -27 58.5 -62t18.5 -78t-16 -88v1q-10 -30 -26.5 -55.5t-39.5 -48.5l-33 -28q-17 -14 -34.5 -28t-34.5 -26q-5 -3 -16 -9.5t-23 -13 t-22.5 -12t-15.5 -8.5z" />
<glyph unicode="E" horiz-adv-x="524" d="M535 790q44 -1 63.5 -24t19.5 -56q0 -23 -10 -47.5t-28 -46t-43.5 -37.5t-57.5 -20l2 1q-23 -6 -39 -11t-27.5 -10t-18.5 -12t-13 -16l-8 -13l1 1q-11 -17 -19.5 -32t-11.5 -32v1q-1 -5 0 -2t0 -2h7q10 0 23 1.5t26 3.5q10 2 21 3t20 1q26 0 38 -11t3 -42 q-6 -17 -14.5 -35.5t-22 -36t-31.5 -31.5t-42 -23q-25 -5 -38 -7.5t-5 -0.5q-10 -2 -16.5 -3.5t-22.5 -2.5q-7 -13 -16.5 -30.5t-19.5 -33.5t-17.5 -27t-10.5 -11q27 -3 46 -4.5t36 -1.5q21 0 41.5 2t50.5 6q16 -5 25 -11.5t12.5 -14t3.5 -15v-15.5q0 -3 0.5 -6.5t6.5 -5.5 q13 -5 13.5 -24t-11 -42.5t-33.5 -45.5t-52 -33q-51 -14 -90 -20t-80 -6q-26 0 -51 2t-56 5q-14 2 -32 7.5t-34 16t-26.5 27.5t-9.5 43v-1q0 79 10.5 149.5t31.5 139.5t51.5 139.5t68.5 147.5q5 11 6.5 25t2.5 28t2.5 27.5t5.5 25t11.5 20.5t21.5 14q75 29 148 49t139 20 q14 0 26.5 -1t24.5 -3h-2zM533 750q-12 2 -24 3t-23 1q-61 0 -130.5 -19t-142.5 -48q-8 -3 -10.5 -19.5t-4.5 -31.5q-1 -17 -3 -35.5t-10 -33.5q-38 -75 -67.5 -143.5t-49.5 -135.5t-30.5 -135.5t-10.5 -144.5q-1 -14 6 -23t17.5 -15t22.5 -9.5t21 -4.5q30 -3 55.5 -5 t46.5 -2q39 0 74.5 5.5t77.5 16.5h-2q18 7 35.5 18t30.5 22.5t20 20t3 10.5q-25 10 -29.5 25t-3.5 29v6t-5 5q-28 -4 -48 -5.5t-40 -1.5q-34 0 -85 6q-21 1 -20.5 23.5t11.5 52.5t26 60t24 45q16 1 25.5 1.5t15 1t8.5 1t6 1.5q14 4 22 5.5t22 4.5q32 15 52.5 43.5t28.5 54.5 q-1 0 -1.5 0.5t-1.5 0.5q-6 0 -15.5 -1t-20.5 -3q-13 -2 -25.5 -3.5t-28.5 -1.5q-10 0 -22.5 2.5t-30.5 10.5l6 37q5 23 15 40.5t21 36.5l11 17l-1 -2q8 13 18 22.5t24 16.5t34.5 13t49.5 14q23 3 42 14.5t32 27.5t20 33.5t7 34.5t-10 28t-33 12h-2z" />
<glyph unicode="F" horiz-adv-x="424" d="M167 3q-13 -42 -47.5 -61.5t-71.5 -19.5q-23 0 -44 7t-35 21.5t-20 35.5t2 49l-1 -1q3 15 10 39.5t15.5 54.5t19 64.5t21.5 70.5q12 39 24 79.5t22.5 78t19 70t13.5 55.5q17 55 29 88.5t23 53t23 30t28 20.5q42 25 76 31t69 8h-1q20 2 41.5 4t45.5 8q-1 0 10 1t18 2 q14 2 30.5 2.5t36.5 -5.5q32 -11 46.5 -34t14.5 -53q0 -26 -11 -54.5t-30 -54.5t-45 -48t-57 -34q-29 -9 -48 -11.5t-30.5 -0.5t-17.5 6t-9 7q8 -8 12.5 -8.5t7.5 3.5q-2 -5 -4.5 -11.5t-4.5 -11.5q-3 -8 -5 -15.5t-9 -17.5q-11 -26 -21 -42q11 1 21.5 2.5t21.5 2.5 q19 1 34.5 -5t27 -17t17.5 -25t6 -27q0 -34 -31 -49h1q-9 -5 -12 -9.5t-5 -9.5q-3 -9 -8.5 -18t-20.5 -17.5t-44.5 -15.5t-80.5 -12l-22 -54q-10 -23 -19.5 -47.5t-15.5 -43.5v-3q-2 -9 -5.5 -27.5t-11.5 -33.5zM130 18q5 10 8 26.5t5 24.5v-4q0 2 0.5 4.5t0.5 3.5 q6 18 16.5 44.5t21.5 53.5l-1 -1q8 19 16 41.5t13 35.5q49 4 77.5 9t43 9.5t19 9.5t6.5 10q3 11 10 21.5t27 20.5q8 5 8 13q0 12 -11.5 24t-30.5 10l-139 -11q6 6 16.5 17t22 25.5t22.5 32t19 36.5q7 8 10 23q4 10 7 19t8 16q8 10 12.5 15t8 6t8 -2.5t11.5 -10.5 q1 -1 3.5 -2.5t9.5 -1t19 3t33 9.5h-1q25 10 46 27.5t36.5 38.5t24.5 44t9 43q0 17 -8.5 30t-24.5 19q-14 4 -26 3.5t-24 -2.5l-12 -2t-18 -1q-25 -6 -46.5 -8t-40.5 -4q-30 -2 -61.5 -8t-65.5 -25q-12 -7 -21 -15.5t-18 -26t-19 -46t-25 -76.5l1 2q-5 -21 -13.5 -53 t-19.5 -71t-23.5 -82t-25.5 -85q-22 -72 -40 -133.5t-25 -92.5q-8 -32 11.5 -47.5t47.5 -15.5q26 0 49.5 13t31.5 40z" />
<glyph unicode="G" d="M631 737q30 -25 47 -62.5t17 -85.5q0 -22 -5 -47t-13 -51q-8 -22 -21.5 -38t-31 -26.5t-36 -15.5t-36.5 -5q-31 0 -55 12.5t-29 35.5l-7 18q-11 9 -22 9q-23 0 -52.5 -18.5t-58 -46t-51.5 -60.5t-34 -62l-3 -10q-7 -18 -11 -33t-4 -28q0 -11 4 -22.5t15 -22.5 q17 -11 35.5 -16.5t34.5 -5.5q43 0 64.5 3t31 8.5t10.5 13t2 16.5q-19 3 -33.5 12t-27.5 19q-8 5 -14 9t-12 3q-30 17 -30 48q0 24 18 49.5t54 33.5h-3q67 28 136 28q16 0 31 -1.5t31 -6.5q42 -12 61 -44.5t19 -73.5q0 -20 -4.5 -42.5t-12 -44.5t-17.5 -42t-20 -35 q-17 -22 -49.5 -55.5t-80.5 -65t-111 -53t-140 -19.5h1q-72 1 -120.5 20.5t-78 55.5t-41.5 88t-11 117q3 56 16 114.5t36 114.5t55 107t72 93q29 30 53 52.5t51 39.5t60.5 30.5t81.5 25.5q25 5 47 7.5t41 2.5q48 0 85.5 -12.5t65.5 -35.5v1zM605 706q-22 18 -52.5 28 t-72.5 10q-34 0 -79 -9l1 1q-43 -12 -73.5 -24t-55.5 -28t-47.5 -37t-49.5 -49q-37 -39 -66.5 -87.5t-51.5 -101.5t-35 -107.5t-16 -105.5q0 -52 11.5 -95.5t36.5 -75t65 -50t98 -19.5q72 -2 130 18t101.5 48.5t73 59.5t43.5 51q19 26 32.5 64.5t13.5 75.5q0 29 -11 50.5 t-39 29.5q-24 6 -52 6q-29 0 -58.5 -6.5t-57.5 -17.5q-25 -6 -37 -20t-12 -27q0 -5 1 -7q11 0 19.5 -6t19.5 -15q11 -8 23.5 -15.5t24.5 -7.5h18l13 6.5t16 6.5l17 7q15 -2 17 -13.5t-7 -27.5t-27 -33.5t-43 -32t-56.5 -24.5t-66.5 -10q-23 0 -46 6.5t-46 21.5 q-21 21 -29 40t-8 39q0 18 4.5 36.5t12.5 38.5v-1l3 9q11 33 38 71t61 70t70 53t65 21q35 0 57 -28l12 -29q1 -8 14 -13t30 -5q26 0 51.5 13.5t35.5 43.5q8 23 12 44.5t4 41.5q0 37 -13 67t-37 49v1z" />
<glyph unicode="H" horiz-adv-x="614" d="M256 208l2 3l-48 -122v1q-4 -11 -7 -23t-7 -24q-5 -17 -10.5 -34.5t-13.5 -34.5l1 1q-13 -34 -50.5 -52t-77.5 -18q-23 0 -43.5 6t-35 18.5t-20.5 31t1 44.5l-1 -1q22 96 45 179t46 156t47 138.5t47 126.5l25 66q4 29 23.5 52.5t46.5 40.5t57.5 26.5t57.5 9.5q22 0 40 -6 t29.5 -18.5t14 -32t-6.5 -46.5l-11 -29q-14 -34 -23 -58t-17.5 -45t-18 -44t-23.5 -56q6 1 12.5 2t12.5 3q17 4 33 7t33 2q11 46 19.5 78t15.5 57t13.5 46t15.5 46v-1q17 53 55.5 76.5t91.5 25.5q25 -1 46 -7.5t34 -19.5t16 -32.5t-9 -45.5l1 1l-24 -70q-11 -30 -19.5 -56 t-18.5 -55.5t-21 -65.5t-26 -85q-9 -30 -20.5 -75t-23.5 -92.5t-22.5 -92.5l-17.5 -75q-5 -21 -11.5 -34t-14 -20.5t-15.5 -11.5t-16 -7q-6 -2 -11.5 -5.5t-10.5 -11.5l2 2q-9 -22 -37 -35t-60 -13q-20 0 -38.5 5.5t-31 17.5t-17.5 30.5t1 45.5l-1 -2q7 45 24 94.5t34 98.5 v-1l22 65l-33 -14q-13 -5 -23 -8.5t-22 -10.5zM406 330q-3 -12 -9.5 -32t-13.5 -42.5t-14 -44.5t-12 -36q-17 -48 -33.5 -95.5t-21.5 -83.5q-4 -15 -1 -26t9.5 -18t16.5 -10t21 -3q20 0 38 7t25 19v-2q8 19 18.5 25.5t21.5 11.5q8 3 16.5 11.5t14.5 31.5q7 31 18 77.5t23 95 t24 93t21 73.5q15 49 26 85.5t21 66t18.5 56t19.5 56.5q6 17 11 32.5t11 32.5q12 28 -4.5 41t-42.5 14q-41 -2 -69.5 -19.5t-40.5 -55.5q-9 -27 -16.5 -48.5t-14 -45.5t-14 -53.5t-17.5 -70.5q-1 -1 -1 -4l1 4l-2 -4q0 -1 -0.5 -3.5t-0.5 -3.5t-0.5 -1t-1 -2t-0.5 -7.5 v-18.5q-19 3 -32.5 3.5t-24 0t-18.5 -2.5t-17 -4l1 1q-18 -5 -40.5 -7.5t-54.5 -0.5q14 33 26.5 64t25.5 62.5t25.5 64t26.5 67.5l12 32v-1q8 25 -4.5 36t-35.5 11q-21 0 -45.5 -7.5t-46 -20.5t-36.5 -31.5t-18 -40.5l-26 -69q-25 -66 -48.5 -130t-46 -133.5t-44.5 -150.5 t-45 -181q-4 -13 0 -22.5t13 -15.5t21 -9t26 -3q29 0 55.5 11.5t34.5 32.5q8 17 13 33t10 33q4 12 7 24t7 23l47 121l15 26q20 12 33.5 17.5t26.5 10.5l-1 -1q29 12 56 26t57 28z" />
<glyph unicode="I" horiz-adv-x="367" d="M441 670q-38 -120 -70 -214t-58 -172q-22 -65 -40 -121t-35 -108l1 3q-6 -45 -27.5 -70t-47 -37t-49 -15t-35.5 -3q-68 0 -93.5 19.5t-25.5 56.5q0 20 6 41.5t15 47.5q13 35 27 76.5t29 87.5q18 52 36.5 108t37.5 108.5t37.5 98.5t36.5 80q17 32 36.5 44.5t36.5 17.5 q9 3 17.5 8t14.5 19q10 26 33.5 39t47.5 13q31 0 55.5 -20t24.5 -59q0 -23 -12 -51zM404 684q5 10 6.5 18.5t1.5 16.5q0 20 -12 29.5t-28 9.5q-13 0 -25 -7.5t-18 -18.5q-11 -27 -26 -36t-32 -15q-11 -4 -24 -11t-25 -31q-18 -33 -36 -78.5t-37 -97t-37 -106.5t-36 -107 q-15 -46 -29 -88.5t-27 -77.5q-8 -22 -13.5 -42t-5.5 -33q0 -17 16.5 -26.5t62.5 -9.5q9 0 27 2t37 11t34.5 27t20.5 51q17 52 35.5 109.5t40.5 122.5q26 77 58 173t70 213z" />
<glyph unicode="J" horiz-adv-x="561" d="M337 418q12 38 21 71.5t18 68.5q8 29 16 60.5t18 64.5v4q8 28 27.5 51.5t45 40.5t53.5 26t54 9q42 0 70.5 -22t28.5 -72q0 -19 -9 -55q-11 -32 -20.5 -63t-20.5 -66q-30 -97 -64 -197t-81.5 -187.5t-113 -155t-157.5 -99.5l1 1q-15 -7 -24.5 -8.5t-23.5 -2.5 q-2 0 -2.5 -0.5t-2.5 -0.5q-7 -1 -16 -1.5t-18 -0.5q-24 0 -49.5 4t-48.5 14t-41 26t-25 40q-13 49 -13 82q0 29 8 52.5t26 49.5q6 12 17.5 22.5t25.5 17.5t29 11t30 4q24 0 43 -11t27 -37q1 -11 1 -30t-1 -30q0 -4 -0.5 -6.5t-0.5 -4.5q-1 -10 -0.5 -13t1.5 -13 q-4 4 0.5 8.5l9.5 9.5l9 8l8 6l-8 -7q22 33 43.5 73t41 83t36.5 87.5t31 87.5zM375 406q-14 -45 -32 -91.5t-38.5 -91.5t-43 -87t-45.5 -76l-11 -7l-2 -2l-1 -1q-9 -8 -18 -15t-18 -9t-18.5 2t-19.5 18q-2 20 -3 28t0 17v-2q0 2 0.5 6t0.5 8q1 8 1 22.5t-1 25.5 q-7 16 -30 16q-20 0 -40 -11t-31 -30q-13 -19 -19 -36t-6 -40q0 -15 3 -32t8 -39v1q5 -16 18.5 -26.5t31 -17t37.5 -9.5t39 -3q7 0 14.5 0.5t15.5 1.5q2 0 4.5 0.5t4.5 0.5h-1q10 1 17 1.5t16 5.5q51 18 95.5 54.5t82 85.5t69 108t58 121.5t48.5 125t40 119.5 q11 35 21.5 69.5t21.5 66.5v-2q5 22 5 38q0 29 -17 41.5t-42 12.5q-20 0 -42 -6.5t-41.5 -18.5t-34.5 -29t-22 -38v-5q-21 -69 -36 -129q-9 -35 -18 -69.5t-21 -72.5z" />
<glyph unicode="K" horiz-adv-x="579" d="M110 562q4 15 9.5 35.5t12 42t14 42t15.5 35.5q22 56 63 50q10 17 21 24.5t34 16.5q9 3 32 7t50 4q22 0 44 -3.5t40 -12t29 -23.5t11 -38q0 -16 -12 -44l-9 -19l-6 -8v2q-8 -14 -16 -30.5t-15 -31.5l-31 -60l-21 -38q22 15 40 31q24 19 49 37t51 32q12 7 23.5 11t21.5 4 q11 0 22 -3.5t25 -9.5l9 -4q19 -7 29.5 -31t10.5 -52q0 -23 -6.5 -46t-18.5 -36l1 2q-58 -75 -114.5 -113.5t-117.5 -57.5q21 -15 40 -37t34 -46t26 -49t18 -46l17 -47q8 -22 13 -38t5 -30q0 -28 -19.5 -39t-66.5 -21q-11 -1 -25.5 5.5t-31.5 18t-36 27t-38 31.5 q-34 29 -68.5 55.5t-55.5 34.5l-11 -29l-10 -25q-11 -28 -24.5 -57.5t-34.5 -60.5q-31 -22 -74 -22q-27 0 -53 12t-39 41q-5 15 -2 40.5t9 55t14.5 58.5t14.5 50v-1q2 9 4 16t3 12q7 23 13.5 49t13.5 51q14 51 27.5 101.5t27.5 98.5q6 20 10 39t9 37zM198 701 q-20 -39 -30 -75t-20 -74q-5 -18 -9 -38t-10 -40q-14 -48 -27.5 -97.5t-27.5 -100.5q-7 -24 -13 -48t-12 -47l-9 -33v-1q-5 -18 -11.5 -42.5t-12 -50t-9.5 -49t-4 -37.5q8 -13 23 -19.5t32 -6.5q14 0 26.5 4t21.5 9q12 20 24.5 47.5t22.5 53.5l10 25l29 64q12 -6 14.5 -7 t3.5 -1q13 -2 31 -11t37.5 -23.5t41 -31.5t42.5 -35q32 -28 60 -49.5t37 -22.5q28 6 41 10t13 10q0 7 -4.5 20.5t-11.5 33.5q-4 11 -8 23t-9 26q-7 24 -21.5 53.5t-34 55.5t-43 44.5t-50.5 20.5l-3 37q37 9 72 21.5t69.5 33t68 50.5t66.5 74q6 6 9 20.5t3 30.5q0 17 -3 30 t-9 15l-10 4q-12 5 -20.5 8t-13.5 3t-11 -2.5t-14 -6.5q-22 -13 -46.5 -30.5t-49.5 -36.5q-27 -20 -58.5 -42.5t-78.5 -48.5l2 44q14 26 28 53.5t28 52.5v-1l31 59v-1q7 15 13.5 29t14.5 28q1 4 2 5l3 3l5 6q2 4 5 9.5t5 9.5v-1q6 13 6 25q0 11 -7.5 18t-19.5 11.5t-27 6 t-30 1.5q-22 0 -41 -3t-27 -6q-17 -7 -27 -16.5t-22 -35.5q-34 13 -45 -15z" />
<glyph unicode="L" horiz-adv-x="481" d="M-12 6q-4 15 -7.5 22t-6.5 12q-5 7 -8.5 13t-4.5 14.5t0.5 20.5t7.5 30q10 34 29 88.5t41.5 116t48 123.5t49.5 111q4 8 13.5 29.5t20 43.5t18.5 39t8 16q5 20 23.5 38.5t44.5 32t55.5 21.5t57.5 8q24 0 45 -5.5t36 -18.5t22 -33t3 -48q-17 -76 -56 -157.5t-86 -169.5 q-25 -48 -53.5 -102t-55.5 -112l10 3q21 5 46 11.5t50 6.5q35 0 67 -23q-1 -17 3.5 -25t10.5 -13q11 -11 19.5 -23t8.5 -32q0 -19 -12 -44q-13 -26 -34 -41t-44 -22.5t-44.5 -9.5t-36.5 -2q-11 -1 -25.5 -1.5t-29.5 -0.5q-20 0 -45.5 0.5t-63.5 1.5q-18 -1 -37.5 0 t-36.5 8.5t-30 24t-20 47.5zM27 15q5 -20 13.5 -31t20 -15.5t24.5 -4.5t26 1q38 -1 64.5 -1.5t46.5 -0.5q17 0 29 0.5t24 1.5q10 0 27 0.5t35.5 5.5t35.5 15.5t27 31.5q8 15 8 26q0 8 -5 14.5t-11 12.5q-9 9 -17 18.5t-10 25.5q-10 5 -26 5q-21 0 -43.5 -5.5t-41.5 -10.5h1 q-32 -9 -53 -11q-11 8 -16.5 15.5t-1.5 17.5q31 68 62 129.5t60 115.5q47 89 84 165.5t54 151.5v-1q4 31 -16 44.5t-50 13.5q-22 0 -45.5 -5t-43.5 -13.5t-34 -20t-18 -24.5q-3 -9 -13.5 -32t-21.5 -48q-13 -29 -29 -63q-25 -48 -49.5 -108.5t-46.5 -120.5t-40 -114l-30 -90 q-5 -20 -5 -28.5t4 -14.5v1q6 -8 12 -19t10 -31z" />
<glyph unicode="M" horiz-adv-x="691" d="M410 738q5 -11 9.5 -23t4.5 -25q0 -23 -16 -38q2 -13 3 -26t1 -25v-13v-2l1 1l1 2q35 53 74.5 101.5t87.5 80.5q18 11 41.5 16.5t47.5 5.5q20 0 38.5 -5t32 -15.5t21 -28.5t5.5 -43q-27 -192 -60.5 -364t-84.5 -326q-6 -17 -19.5 -30.5t-31 -22.5t-38 -14t-39.5 -5 q-41 0 -69.5 18t-26.5 55q0 6 0.5 14t0.5 14q3 22 4 30t1 11q0 10 1.5 16.5t6.5 28.5l2 11q-13 -11 -24 -16t-24 -9l-13 -4q-5 -1 -16 -2.5t-26 -1.5q-19 0 -37.5 6.5t-24.5 21.5q-1 1 -1 3q-14 -52 -28.5 -86.5t-29.5 -57.5q-8 -14 -21.5 -25t-30.5 -19t-36 -12.5t-38 -4.5 q-21 0 -41 5t-35 15.5t-24 26.5t-7 37q1 21 7.5 53.5t15.5 71t20.5 80t23 82t22 76t18.5 61.5q8 27 20.5 60t27.5 66t31.5 63t33.5 51q26 48 67.5 68.5t82.5 20.5q24 0 45.5 -5.5t35.5 -14.5zM384 690q0 5 -2.5 12t-5.5 13q-10 5 -24 8.5t-30 3.5q-32 0 -64.5 -15.5 t-51.5 -53.5q-16 -20 -32 -49.5t-30.5 -61.5t-26.5 -64t-20 -57q-12 -40 -29 -98.5t-33.5 -119t-28.5 -114t-14 -82.5q-1 -11 4.5 -19t15 -13t22 -7.5t25.5 -2.5q29 0 56.5 11.5t36.5 32.5q10 15 19 32.5t17 41t16.5 53.5t17.5 70h35q4 -17 5 -20.5t2 -4.5q3 -5 7 -14 t11 -26q1 -1 8 -1.5t16 -0.5q8 0 18.5 1.5t16.5 2.5q4 0 8 2q9 3 17 6.5t17.5 11.5t22 23t32.5 42l31 -14q-2 -16 -8 -40.5t-11 -44.5l1 1l-4 -17q-3 -12 -4.5 -19.5t-2.5 -11.5t-1 -6q0 -7 -1 -17.5t-4 -31.5q0 -5 -0.5 -11t-0.5 -11q-2 -16 15.5 -23.5t40.5 -7.5 q29 0 56 11.5t35 34.5q48 146 81.5 321t60.5 361q-1 23 -18 34.5t-39 11.5q-39 0 -68 -16h1q-31 -21 -59.5 -51.5t-54.5 -65.5t-49 -72t-43 -72l-35 14q5 27 10 55.5t5 55.5q0 13 -1 28t-6 36q4 4 4 7q15 11 15 18zM414 589q0 -1 -0.5 -1t-0.5 -1q-1 0 -1 1q3 12 3 8.5 t-1 -7.5z" />
<glyph unicode="N" horiz-adv-x="630" d="M86 509q10 34 28 73t41.5 72t52 55t61.5 22q29 0 65 -25q16 -38 27 -66t18.5 -52t12 -46t8.5 -48l5 10q14 31 27 61t20 58q11 37 34 64t51 44t57.5 25.5t55.5 8.5q44 0 65 -23.5t2 -60.5q0 -2 0.5 -8t1.5 -12q1 -8 2 -15.5t1 -21.5q0 -17 -4 -36.5t-15 -39.5 q-12 -21 -24 -49.5t-24.5 -61.5t-25 -69t-24.5 -72q-18 -54 -36.5 -106.5t-37.5 -95.5t-37 -72.5t-34 -36.5l2 1q-32 -18 -52 -25.5t-42 -7.5q-18 0 -40 3h2q-22 1 -36.5 22.5t-24.5 53t-16.5 68.5t-11.5 71q-2 15 -1.5 16.5t1 -1.5t1 -7t-1.5 1q-13 -39 -22.5 -63.5 t-17 -40.5t-14.5 -26.5t-14 -20.5l-12 -17q-7 -18 -21.5 -32t-32.5 -23t-37.5 -13.5t-37.5 -4.5q-19 0 -35 4.5t-26 13.5t-13 23t5 34q4 44 18 109t32 135t37.5 137t36.5 115v-1zM124 496q-17 -47 -36.5 -113.5t-37 -136t-31 -134t-17.5 -106.5q-5 -14 4 -20.5t25 -6.5 q26 0 54.5 12.5t38.5 38.5l15 22q8 11 16 24t18.5 39t26.5 72.5t40 125.5q22 -44 29 -74.5t12 -61.5q4 -29 9 -60.5t11.5 -58t14.5 -44t17 -18.5q22 -3 35 -3q17 0 32 6t43 22q11 5 25.5 31t30.5 65.5t33.5 89t34.5 101.5q13 37 26 74.5t26 72t25 63.5t23 50q8 16 11.5 30.5 t3.5 25.5q0 5 -1 14.5t-2 17.5q-2 14 -1.5 25.5t5.5 20.5q7 11 -4 17t-29 6q-21 0 -45 -6.5t-46.5 -20.5t-41 -35t-27.5 -51v1q-8 -30 -21.5 -62t-27.5 -63q-9 -20 -19.5 -44t-16.5 -41l-35 4q-5 46 -10 78t-12 61.5t-17.5 60t-28.5 73.5q-17 11 -33 11q-24 0 -46.5 -19.5 t-41.5 -48.5t-33.5 -63t-23.5 -63v-1z" />
<glyph unicode="O" horiz-adv-x="675" d="M254 720q34 28 74 42.5t79 14.5q13 0 25.5 -1t25.5 -5q17 17 35.5 22.5t41.5 5.5q36 0 71.5 -19.5t60.5 -52.5l2 -6q-1 5 -0.5 4t2 -4.5t3 -8.5t3.5 -8l14 -35v2q13 -31 18.5 -66t5.5 -73q0 -51 -10 -106.5t-27 -109t-38.5 -102.5t-44.5 -89q-14 -23 -30.5 -46.5t-35 -46 t-40 -42t-43.5 -34.5l1 1q-32 -23 -70 -39q-39 -15 -94 -15q-37 0 -72.5 8.5t-62.5 27.5l2 -2q-37 19 -62.5 45t-41.5 57.5t-23 67t-7 73.5q0 40 7 83t18.5 84.5t26 81t29.5 74.5q12 25 29.5 55.5t38.5 60.5t44 57t45 45v-1zM280 689q-21 -17 -42.5 -42t-41 -52.5t-36 -56 t-27.5 -51.5q-14 -33 -27.5 -71t-24.5 -78t-18 -80.5t-7 -77.5q0 -66 24 -120t85 -85q24 -17 55.5 -24.5t62.5 -7.5q43 0 80 13q32 13 60 33q44 29 79 70.5t59 85.5q22 37 42.5 83.5t36.5 97.5t25.5 103.5t9.5 102.5q0 68 -22 124q-3 9 -7 17.5t-7 16.5l-6 16q-20 23 -46 38 t-52 15q-33 0 -66 -34q-36 12 -62 12q-33 0 -66 -12t-61 -35v-1zM333 66q-8 -10 -16.5 -17t-16.5 -13l-19 -13q-15 6 -26.5 18.5t-19.5 26.5t-13 27t-6 19l-2 14q0 1 0.5 2.5t0.5 2.5q6 51 24 101t43.5 98t55.5 92.5t58 84.5q4 6 12 15.5t16.5 17.5t17 12.5t15.5 1.5 q8 -2 11.5 -8t4.5 -14t0.5 -16.5t-0.5 -14.5q0 -57 -10.5 -118t-29 -119.5t-44 -110.5t-56.5 -90v1zM301 91q28 35 52 82.5t41.5 101t27.5 109.5t11 108l-5 -7q-27 -38 -55 -81t-52.5 -89t-42.5 -93t-23 -93v1q-1 -1 -1 -5l2 -11l-1 4q2 -7 7 -23t16 -25v-1q13 8 23 21v1z " />
<glyph unicode="P" horiz-adv-x="606" d="M596 278q-19 -31 -45 -56.5t-56 -43.5t-62 -27.5t-63 -9.5q-25 0 -47 6t-43 20q-10 -36 -17 -71.5t-12 -72.5q-6 -24 -16 -37q-16 -44 -58 -66t-88 -22q-27 0 -52 7.5t-44.5 22t-31 36.5t-11.5 52q29 100 61 199t74 198q16 37 25.5 58.5t17 36.5t14.5 27t18 31 q7 11 16 25.5t20 34.5q16 29 30.5 48t29 32.5t31 24.5t37.5 24q10 6 20.5 12t22.5 14q54 32 108 32q56 0 104.5 -33t74.5 -90q11 -25 15.5 -55t4.5 -61q0 -38 -6 -79t-16.5 -80t-25 -74.5t-30.5 -62.5zM562 298q15 25 28 58t23 69.5t15.5 74.5t5.5 74q0 29 -4 54.5t-12 45.5 q-20 48 -59 73.5t-84 25.5q-44 0 -87 -25q-12 -8 -23.5 -14.5t-20.5 -12.5q-18 -11 -33 -21t-28 -22t-26 -29t-27 -43q-11 -20 -20 -34.5t-16 -25.5q-10 -18 -17.5 -30.5t-15 -27.5t-16.5 -36t-24 -55q-38 -92 -70 -190t-61 -197q0 -19 8.5 -32.5t22.5 -22.5t31.5 -13 t36.5 -4q35 0 67 16.5t43 50.5q5 7 8 13t5 11l-1 -3q5 45 17.5 97.5t31.5 113.5q30 -29 58 -42.5t52 -13.5q54 0 107 31.5t85 85.5zM292 296q-10 10 -7 26.5t12 35t20.5 37.5t17.5 34l6 14v-1q8 17 17 42.5t20 50t24 43.5t30 25q9 4 13.5 -5.5t6.5 -25.5t2 -33v-26 q0 -38 -7.5 -75t-24.5 -68t-45 -54t-68 -32zM371 413q-8 -19 -16 -37.5t-16 -37.5q41 25 57.5 71t17.5 98l-37 -82l-6 -13v1z" />
<glyph unicode="Q" horiz-adv-x="724" d="M584 85q10 -38 -2 -64t-36 -42q2 -11 4 -14.5t4 -8.5q5 -17 10.5 -37t2.5 -35q-9 -32 -33 -47.5t-51 -15.5q-35 0 -63 22q-11 4 -22.5 28t-24.5 53v-1l-15 29q-36 -9 -68 -9t-62.5 7.5t-65.5 21.5q-72 29 -107.5 91t-35.5 150q0 49 9 97v-2q5 63 22.5 133t48 132.5 t73.5 112t100 72.5l-1 -1q45 23 88.5 37t87.5 9q1 0 7 2q19 24 50 36.5t66 12.5q42 0 83.5 -14.5t67.5 -41.5h-1q36 -35 52.5 -89.5t16.5 -118.5q0 -41 -7 -85t-19.5 -89t-30 -88t-38.5 -80q-23 -41 -52 -81.5t-61 -74.5zM528 95q42 42 75 85.5t57 87.5q21 36 37.5 76 t28 81.5t17.5 83.5t6 81q0 57 -14 103.5t-44 76.5q-20 21 -53 32.5t-68 11.5q-28 0 -52.5 -10t-38.5 -33l-30 -10q-39 5 -81.5 -8t-84.5 -35q-50 -20 -87.5 -65.5t-64.5 -104t-42.5 -123.5t-20.5 -125q-9 -50 -9 -87q0 -75 30 -127.5t87 -75.5q32 -12 60 -19.5t54 -7.5 q17 0 38.5 4t50.5 13l30 -60q4 -9 6.5 -17t0.5 -14q18 -23 35.5 -35.5t31.5 -12.5q15 0 27.5 6.5t16.5 20.5l-1 -2q2 14 -1.5 29t-8.5 29q-2 4 -3.5 10t-3 11.5t-2.5 9t-1 2.5q-1 3 -1.5 8.5t-0.5 16.5q22 11 35 28.5t8 40.5zM495 273q-5 -11 -15 -30t-26 -46q-46 31 -81 31 q-28 0 -47 -11q-16 -5 -27 -16t-14 -27h1l1 -11q0 6 1 5q0 -19 5.5 -45.5t13.5 -55.5q-60 25 -84.5 60.5t-24.5 77.5q0 39 12.5 83.5t30.5 85.5t37.5 76t33.5 55l-1 -1q1 1 7.5 10t16.5 22t23 27t26 25q32 -6 71.5 3.5t76.5 33.5q12 -37 17.5 -66.5t5.5 -55.5 q0 -60 -17.5 -118t-42.5 -112zM459 289q23 51 39.5 105t16.5 109q0 16 -1 30.5t-5 30.5q-26 -12 -57 -18t-57 -2q-9 -9 -17.5 -19.5t-16 -19.5t-12 -16t-5.5 -8q-14 -19 -32 -51t-34.5 -70t-28 -78.5t-11.5 -76.5q0 -15 2 -27t8 -23v2q-2 4 -2 5v7q1 35 18.5 55.5t43.5 28.5 q14 6 31 10.5t34 4.5t35 -4t33 -11q6 11 10.5 20t7.5 16z" />
<glyph unicode="R" horiz-adv-x="582" d="M220 78l-10 -30t-11 -31h1q-5 -24 -16.5 -41t-27 -28.5t-34 -16.5t-37.5 -5q-24 0 -47.5 7t-42 19.5t-29.5 30t-9 38.5q-1 29 14 88.5t40 134t58.5 156t69 152.5t72 124t67.5 72q15 7 40 15.5t52 15.5t52.5 12.5t40.5 7.5q51 4 88 -8.5t62 -38.5t37 -62.5t12 -78.5 q0 -52 -17 -109t-48.5 -109t-76 -93.5t-99.5 -62.5q17 -26 40 -55q16 -20 31.5 -41.5t28 -43t20.5 -42t8 -39.5q0 -20 -9.5 -36.5t-30.5 -27.5q-14 -7 -25.5 -11t-20.5 -4q-13 0 -22 4.5t-17 11.5q-4 3 -7 5.5t-9 5.5q-8 -2 -15 -3t-13 -1q-20 0 -34 6.5t-24.5 16.5 t-18.5 23t-15 26q-8 14 -14 26.5t-11 26.5q-5 13 -10.5 25.5t-13.5 24.5q-6 -16 -10 -29.5t-9 -27.5zM85 -34q17 0 31.5 3.5t24.5 11.5q17 43 26.5 67.5t14.5 41.5q3 10 8.5 25.5t11.5 32.5t12 34.5t12 31.5q34 -38 48.5 -64t24.5 -49q10 -25 23 -49q11 -19 23 -35.5 t35 -16.5q12 0 32 6q17 -6 23 -10.5t12 -9.5q11 -9 16 -9q9 0 28 11q18 10 18 28q0 13 -7.5 30t-19 35.5t-25.5 38.5t-28 38q-27 35 -45 62l-23 40q59 17 107.5 55.5t82.5 87.5t52.5 103.5t18.5 104.5q0 33 -9 62t-27.5 49.5t-48 30.5t-70.5 6q-14 -2 -37.5 -7t-49 -11.5 t-48.5 -14t-36 -14.5q-22 -11 -47.5 -43t-51 -77.5t-51 -100.5t-48.5 -113t-42.5 -114.5t-33 -105.5t-20.5 -86t-5 -55q-2 -12 5.5 -21.5t20.5 -16t29 -10t33 -3.5zM377 599q-5 0 -4.5 1.5t2.5 3.5q11 13 27.5 26t36.5 9q17 -8 25 -16.5t10.5 -18t0.5 -19t-5 -19.5v1 q-2 -5 -3 -9t-1 -13q-10 -32 -21 -52t-24.5 -33.5t-29.5 -23t-37 -20.5l-56 -24h-15q3 16 6 25.5t5.5 15t4 8.5t1.5 7l23 56l36 83zM359 488l-12 -30q13 7 24.5 14.5t21 17.5t17.5 24.5t16 36.5q2 13 7 29q2 5 3 9.5t-4 9.5q-6 -1 -13.5 -8t-13.5 -13q-4 -5 -7 -9t-7 -6z " />
<glyph unicode="S" horiz-adv-x="552" d="M167 -78q-46 -2 -86 9t-69.5 31.5t-46.5 48t-17 59.5q0 28 16 60q14 24 34 32.5t44 8.5q19 0 36 -3l34 -6h-1l34 -6t28 -3t26 5q39 14 54.5 23.5t15.5 17.5t-13 20t-29 25q-8 7 -16.5 13.5t-16.5 14.5q-24 19 -45 43t-36 52t-23 59.5t-5 64.5q6 48 21.5 87.5t37 71t48 54 t53.5 37.5h-1q43 23 92.5 40t115.5 17q18 0 39 -2t40 -5q26 -5 45.5 -17t39.5 -26l13 -11v1q16 -15 22.5 -31t6.5 -32q0 -27 -17 -47.5t-42 -28.5q-1 -13 -6 -24.5t-17.5 -21.5t-33.5 -17t-53 -11q-13 1 -25.5 1.5t-23.5 0.5q-39 0 -56 -14t-12 -52q2 -7 14.5 -18.5 t27.5 -24.5q18 -15 38 -33t36.5 -41.5t27.5 -52t11 -64.5q0 -11 -1 -23t-3 -23q-10 -40 -35.5 -85.5t-69.5 -84t-106.5 -64t-145.5 -25.5h1zM166 -38q77 0 133.5 22t95 56t60 74t28.5 75q4 20 4 38q0 30 -9.5 54t-24 43.5t-32 35t-33.5 28.5q-21 18 -37 33.5t-19 33.5 q-5 33 -1 55t17.5 34.5t36.5 17.5t55 5q11 0 22.5 -0.5t24.5 -1.5q46 7 58.5 26.5t9.5 42.5q25 2 44 13.5t19 27.5t-17 33l-11 10l2 -2q-16 11 -32 21.5t-37 13.5q-38 7 -71 7q-58 0 -103.5 -15.5t-85.5 -37.5q-24 -13 -47 -32t-42 -46t-32 -61.5t-17 -78.5 q-6 -61 20.5 -105t72.5 -78q13 -13 33 -28q22 -17 40 -35.5t18 -41.5q0 -20 -21.5 -40t-75.5 -39h1q-17 -7 -40 -7q-20 0 -36 3t-33 6l-34 6t-28 3q-14 0 -25 -4.5t-18 -15.5l1 1q-12 -23 -12 -42q0 -23 13.5 -43.5t37.5 -35.5t56.5 -23t69.5 -6h1z" />
<glyph unicode="T" horiz-adv-x="502" d="M260 -22q-15 -30 -30.5 -46t-31.5 -23t-32.5 -7.5t-32.5 1.5q-2 0 -4.5 0.5t-4.5 0.5q-42 6 -60 29.5t-18 59.5q0 28 10 58v-1l46 191q12 49 19 78t13.5 52.5t15.5 49t24 68.5q-34 3 -60 22.5t-34 49.5q-4 23 -1.5 41t11.5 34t24.5 30.5t36.5 31.5q20 15 63 33.5 t95.5 34.5t108.5 26.5t103 9.5q21 3 43 -3.5t40.5 -19t30 -29t11.5 -33.5q0 -32 -34 -52q-4 -2 -7.5 -13t-7.5 -24q-4 -14 -8.5 -28.5t-12.5 -27t-20 -21.5t-30 -12q-14 -6 -28 -8t-25 -4h-2q-8 -2 -8 6l-22 -67q-19 -57 -42.5 -125t-47.5 -135.5t-47.5 -127.5t-43.5 -100z M224 -4q19 40 42.5 99.5t47.5 125.5t47 133.5t42 123.5l22 67q5 11 16.5 15.5t25.5 6.5q10 2 22 3.5t25 8.5q23 3 31.5 21t13.5 38q5 18 11 34.5t22 26.5q14 8 14 18t-7.5 19t-18.5 15.5t-25.5 9.5t-27.5 1q-44 1 -96.5 -8.5t-102.5 -24.5t-91 -32t-62 -31q-32 -25 -46 -46 t-9 -53q4 -23 37 -30.5t77 -1.5q-23 -63 -37.5 -105.5t-24 -75t-17 -61t-15.5 -62.5l-46 -192q-8 -26 -8 -46q0 -19 10.5 -32t30.5 -17q2 0 5 -0.5t5 -0.5q11 -1 22 -1t22 4.5t21.5 16t21.5 33.5z" />
<glyph unicode="U" horiz-adv-x="721" d="M390 709q8 -23 -5.5 -67t-35.5 -100q-13 -32 -26 -66.5t-23.5 -69.5t-17 -68.5t-4.5 -63.5q3 -6 16 11.5t32 50t41.5 76t45.5 89t44 89t37 77.5q8 19 18 40t23 38.5t30.5 28.5t40.5 11q11 0 23 -3q15 14 33.5 21t36.5 7q31 0 56 -19t28 -56q3 -20 -11 -68t-37 -119 q-30 -94 -69 -226.5t-69 -287.5q-2 -23 -15 -41.5t-32 -31.5t-42.5 -20t-45.5 -7q-27 0 -49 10t-33 30q-11 -8 -23.5 -14.5t-24.5 -12.5h1l-9 -4q-16 -5 -32 -7.5t-32 -2.5q-33 0 -66.5 9t-62.5 26t-52 41.5t-33 55.5q-8 26 -12 55t-4 58q0 60 13 124.5t33 127.5t43 121.5 t43 106.5l-1 -1q3 7 8.5 19t12.5 24.5t14 24t12 18.5q2 4 11 13l12 11l-2 -2l5 3l4 3q5 5 7 6t5 1q3 2 7.5 3t7.5 2l-1 -1l16 3l5 1q5 1 11.5 1t10.5 -1q8 -1 15.5 -3t16.5 -6h1l12 -7l11 -10l3 -3l3 -5q1 -1 2 -3q2 -4 4 -6t2 -3q1 -2 2.5 -4.5t2.5 -4.5v-3l2 -3zM345 714 l2 -4q0 1 -0.5 2t-0.5 3v-1q-4 6 -6 11l-1 2l-1 2l-10 8l-4 3q-12 4 -27 6q-3 1 -7 0h-6l-11 -3l-12 -5l-2 -2l-4 -1l-12 -11q-4 -5 -10.5 -15.5t-13.5 -23t-12.5 -24.5t-8.5 -19q-19 -47 -41.5 -103.5t-41.5 -117.5t-32 -123t-13 -120q0 -27 3 -52.5t11 -48.5q8 -25 26 -44 t42.5 -32.5t52.5 -20.5t55 -7q13 0 24.5 2t22.5 4q1 0 1.5 0.5t1.5 0.5h-2l7 3q9 4 18.5 9t17.5 10.5t13.5 11.5t6.5 14v5l40 1v-2v-3l3 -29q3 -13 16.5 -19.5t31.5 -6.5q16 0 32.5 4.5t30 13.5t22.5 22t10 29q14 75 32 147t36.5 138t37 124.5t34.5 107.5q22 67 35 111 t11 55q-1 21 -14 32.5t-30 11.5q-12 0 -27 -8.5t-29 -26.5q-14 5 -23 7.5t-14 2.5q-14 0 -25.5 -8.5t-20.5 -22t-16 -30.5t-14 -33q-19 -41 -46.5 -96t-58 -110.5t-61.5 -104t-57 -77.5t-44.5 -31.5t-24.5 35.5q-2 34 4.5 71t17 74.5t24.5 74t27 69.5q20 49 32.5 87t8.5 52z M338 733v-3v2v1zM308 -20l-1 -1z" />
<glyph unicode="V" horiz-adv-x="547" d="M229 730q6 -24 11.5 -61t10.5 -80.5t9.5 -90.5t9.5 -92q1 -1 3 -1q8 31 23 67.5t34 75.5t39.5 78t38.5 74l16 29q17 29 48 42.5t66 13.5q22 0 44 -5t41 -15q22 -8 36 -22.5t18 -32.5q2 -7 4 -16t2 -17q0 -20 -9 -42t-31 -47q-41 -65 -84 -143.5t-81 -150.5 q-34 -64 -70 -129t-69 -120l-4 -6l3 4q-13 -22 -28.5 -44.5t-37.5 -39.5q-20 -15 -45.5 -20.5t-48.5 -3.5q-40 1 -63.5 11t-35.5 24.5t-16 31t-4 30.5q0 78 -1 160t-3 167q-1 39 -1.5 80.5l-1 83t-0.5 81v75.5q0 20 10.5 36.5t27 28.5t36.5 19t39 7q23 0 41 -10.5t24 -33.5z M444 682q-45 -71 -76 -138t-53 -114t-37.5 -65t-28 7.5t-25.5 103t-30 223.5q-2 8 -10.5 19.5t-18.5 11.5q-12 0 -25 -4t-23.5 -10.5t-17.5 -16t-7 -20.5q0 -75 0.5 -156t2.5 -164q2 -85 3 -166.5t1 -159.5v1q0 -8 3 -18t11.5 -19t25 -15t44.5 -7q17 -2 34 1.5t31 14.5h-1 q19 15 33 35t25 39l5 7l-3 -4q34 56 67.5 117.5t67.5 126.5q42 79 83 156t83 141q19 21 27 37.5t8 30.5q0 10 -6 22q-5 21 -28 28q-17 8 -35.5 13t-35.5 5q-26 0 -47.5 -8.5t-32.5 -27.5z" />
<glyph unicode="W" horiz-adv-x="773" d="M926 697q-29 -54 -54.5 -93.5t-40.5 -73.5q-10 -22 -19 -43t-13 -28v1q-18 -34 -34.5 -68t-33.5 -69q-41 -86 -89 -173.5t-113 -162.5q-20 -23 -50.5 -36.5t-60.5 -13.5q-33 0 -64 16t-50 50l-11 35q-3 -2 -5 -4.5t-5 -5.5q-13 -13 -27.5 -27t-30 -26t-31.5 -20t-32 -10 q-20 -1 -40 1t-38 9.5t-32 23.5t-21 43q-6 66 -6 130q0 93 8.5 175t18.5 160v-1l12 105q9 46 25 78t35.5 52t40.5 29t40 9q34 0 55.5 -21.5t17.5 -56.5q1 -11 1 -20.5v-18.5q0 -21 -1 -37.5t-2 -30.5q-1 -16 -1.5 -34.5t0.5 -39.5v-9q7 11 17 25.5t26 35.5q18 15 31 21.5 t24 6.5q10 0 18 -3t17 -6q11 -5 37 -11q21 -18 23 -22l1 -8q4 -3 7.5 -6t6.5 -8q2 -8 3.5 -13t3.5 -13q38 109 63 166.5t42 77.5q14 13 22.5 15t16.5 0q2 0 8 1.5t16 7.5l-2 -2q27 23 61 35.5t68 12.5q21 0 43 -6.5t41.5 -20t34.5 -33.5t22 -47zM849 657q19 26 16 46 t-17.5 33.5t-33 20.5t-29.5 7q-27 0 -55 -10.5t-51 -30.5q-19 -12 -31 -13.5t-20 -0.5q-2 0 -4 -2q-17 -26 -47 -98t-73 -202l-34 2q-1 5 -3.5 17t-6 25.5t-7 26t-5.5 18.5h-1l-11 11q-2 5 -3.5 9t-3.5 6q-11 3 -19 5.5t-16 5.5q-7 2 -13 4.5t-8 2.5q-5 0 -10 -3.5 t-15 -11.5q-17 -23 -27.5 -37.5t-17.5 -26t-13 -23t-14 -28.5q-21 -17 -31 -16.5t-13 12t-2 30t3 36.5q1 8 1.5 15t0.5 12q-1 23 -0.5 41.5t1.5 35.5q1 14 2 29.5t1 36.5v20t-1 22q2 16 -7.5 25.5t-25.5 9.5q-13 0 -28 -7t-28.5 -23t-25.5 -42t-19 -63v2l-12 -105 q-10 -78 -18.5 -159.5t-8.5 -169.5q0 -30 1.5 -62.5t4.5 -64.5q5 -14 14 -22.5t21 -12.5t25.5 -4.5t27.5 -0.5q10 1 22 8t24.5 17t25 22t24.5 24q4 4 12.5 12t17 15.5t16 14.5t10.5 10l30 -90q13 -19 34 -30t43 -11q23 0 44.5 9t36.5 27q63 72 109 157t87 171q16 34 33.5 69 t34.5 68q10 20 17 35.5t15 32.5q13 29 26.5 57.5t28.5 53.5h-1z" />
<glyph unicode="X" horiz-adv-x="600" d="M384 -89q-20 13 -36 33.5t-30 45t-25.5 52t-20.5 54.5l-23 -39q-23 -38 -48 -73.5t-62 -61.5q-44 -22 -93 -22q-12 0 -25.5 2t-29.5 6q-26 14 -35.5 35t-9.5 45q0 18 4.5 35.5t11 32.5t14 25.5t12.5 14.5l-2 -2v-3q1 2 4.5 8t14 22t29 43.5t50.5 72.5l37 43 q20 24 36.5 44.5t24.5 28.5q-18 40 -29.5 70.5t-18.5 61.5t-10.5 68t-5.5 90q-6 20 5 43.5t30 44t43.5 34.5t45.5 14q18 0 33 -9.5t23 -30.5q16 -45 25.5 -86.5t18.5 -85.5l1 -3l13 18l54 71q-4 16 -1 34t14 39q26 26 59 50t72 35h-1q14 5 29.5 6.5t32.5 1.5q27 0 52.5 -6.5 t44 -21t26 -38.5t-1.5 -59q-23 -46 -64.5 -93.5t-84.5 -92.5q-37 -38 -65 -71q-13 -16 -25.5 -33t-23.5 -34l-22 -31q8 -28 20 -61t23 -64q21 -54 40 -113.5t21 -112.5q-8 -28 -21.5 -35t-27.5 -8q-2 -20 -23.5 -31.5t-50.5 -11.5q-23 0 -48 9zM298 147q8 -29 18.5 -58.5 t23.5 -56.5t28.5 -49.5t33.5 -35.5q14 -5 30 -5q14 0 23 4t6 11q7 21 16 24.5t22 3.5q5 0 9.5 1t6.5 6q-2 48 -20 101t-39 107q-14 38 -27 74t-21 71l33 47q12 17 24.5 35.5t26.5 35.5t31.5 35.5t35.5 37.5q41 42 80 88t61 88q3 18 -3.5 30.5t-19 20.5t-29 12t-33.5 4 q-30 0 -51 -6q-32 -9 -58 -28t-49 -41q-8 -15 -7.5 -29t5.5 -28l-67 -89l-68 -89l-18 90q-9 42 -18.5 84t-23.5 82q-6 14 -18 14q-15 0 -31.5 -9t-30 -22t-20.5 -28t-2 -27q2 -57 6 -95.5t12 -71.5t20.5 -65.5t32.5 -76.5q-22 -22 -40 -44t-38 -46l-35 -41l1 1 q-33 -47 -51.5 -74.5t-28 -42t-12.5 -20t-3 -6.5l-4 -2q-2 -1 -6 -5q-3 -2 -7.5 -9.5t-8.5 -18t-7 -23t-3 -25.5t5.5 -25t17.5 -19q8 -2 18 -3t19 -1q40 0 78 20l-2 -2q29 20 50.5 51.5t42.5 67.5q11 19 23 39t25 38z" />
<glyph unicode="Y" horiz-adv-x="491" d="M300 653v1l18 -59l8 12q29 47 66 97.5t78 82.5q14 6 30.5 10t31.5 4q17 0 32.5 -4.5t27.5 -15t18.5 -26.5t5.5 -39q-1 -24 -10 -50t-22.5 -51.5t-30.5 -50.5t-33 -49q-11 -16 -20.5 -30.5t-18.5 -30.5h1q-16 -29 -31.5 -55t-30.5 -52q-38 -67 -74.5 -136.5t-67.5 -150.5 q21 1 29 -6.5t7.5 -19.5t-6.5 -26.5t-13.5 -27.5t-14 -23t-7.5 -12q-31 -28 -68 -40.5t-74 -12.5q-35 0 -65 9.5t-51 26t-30 37.5t-1 45q17 47 43 94.5t52 93.5l15 27l33 60q-14 14 -20.5 39t-6.5 53q-5 45 -10 96t-5 107q0 8 0.5 17t0.5 18q-1 26 11.5 51.5t32 46t43 33 t45.5 12.5q24 0 42.5 -14.5t26.5 -47.5v1zM249 686q-8 32 -31 32q-15 0 -31.5 -9t-30 -23.5t-22 -33t-8.5 -37.5q0 -9 -0.5 -18t-0.5 -17q0 -54 5 -104t10 -95q-1 -24 13 -43t42 -14l-67 -119l-15 -27q-25 -45 -48 -88t-40 -94q-5 -13 2 -24.5t22 -20.5t36.5 -14t45.5 -5 q32 0 63.5 11t57.5 37q-1 1 0.5 8t4.5 16t5.5 16t2.5 8l-35 16q34 95 73 170.5t83 152.5q15 26 29.5 52t30.5 55q5 8 16 24.5t26 38.5h-1q15 22 30.5 45.5t28.5 47t21.5 46.5t8.5 44q2 23 -12 32t-32 9q-24 0 -39 -6q-17 -14 -34.5 -34t-34.5 -42.5t-33.5 -47t-30.5 -46.5 l-29 -44l-30 -31q-4 13 -9 31.5t-10.5 37t-11 35.5t-8.5 28zM273 -55q1 2 2 2.5t2 1.5q-2 -3 -3.5 -4t-0.5 0zM282 -46l-5 -5q2 2 2.5 3t2.5 2z" />
<glyph unicode="Z" horiz-adv-x="561" d="M456 146h-2q48 1 68.5 -20t20.5 -53q0 -18 -7.5 -37t-20.5 -36t-31 -30.5t-40 -20.5l2 1q-48 -21 -113 -31.5t-130 -10.5q-55 0 -98 6q-24 3 -47.5 10.5t-41.5 23.5t-27.5 42.5t-6.5 67.5q1 16 4.5 29t10 26.5t17 29.5t25.5 37h-1l8 11q39 55 78 100.5t77 88.5 q30 34 62 71t67 82q3 3 3 2v-3l5 11q-13 -2 -24 -2h-25q-52 0 -103 13q-27 7 -47 31t-20 54q0 17 7 33.5t23 32.5q24 26 58.5 45.5t75 32.5t84 19.5t84.5 6.5h20t18 -1q22 -6 34.5 -13.5t29.5 -26.5v-11q8 -2 16.5 -5t7.5 -1q9 -4 18 -10t15.5 -17t11 -28.5t4.5 -43.5 q-1 -56 -22.5 -112.5t-53.5 -109.5t-68 -100.5t-65 -84.5q-30 -38 -44 -58.5t-16 -29.5zM337 118q-14 13 -17 27t4 32t22.5 40t38.5 52q28 36 62.5 81.5t65 96t51.5 103t22 102.5q0 18 -2.5 29.5t-6.5 18.5t-9 10.5t-10 5.5q3 -3 -4.5 -0.5t-12.5 4.5l-27 7l-1 27 q-7 6 -13 8.5t-16 5.5h2q-9 1 -17.5 1h-17.5q-38 0 -77.5 -6t-76 -17.5t-68 -28.5t-52.5 -40q-18 -18 -18 -38q0 -17 11 -30t26 -17q46 -11 93 -11q40 0 119 17q-12 -28 -19.5 -43.5t-12.5 -24t-8 -12.5t-6 -9q-33 -42 -67.5 -82.5t-63.5 -72.5q-38 -43 -76 -87t-76 -98h1 l-9 -11q-13 -18 -21.5 -31.5t-14.5 -25t-9 -22.5t-4 -24q-2 -27 5 -45t20 -29.5t30 -17.5t34 -9q21 -3 45 -4.5t47 -1.5q62 0 123.5 9.5t106.5 29.5q31 9 50.5 35t19.5 51q0 12 -8.5 21t-28.5 11v-1h-9v2h-5z" />
<glyph unicode="[" horiz-adv-x="536" d="M391 664q-11 -24 -20.5 -51t-16.5 -53l1 1l-9 -46q-5 -27 -12.5 -58.5t-15.5 -61.5q-11 -48 -23 -104t-18 -104q-4 -35 -13.5 -76t-19.5 -80l1 1l-4 -16q15 2 29.5 2h31.5q32 -2 58.5 -11t45 -23.5t29 -33t10.5 -37.5q0 -29 -24.5 -55t-81.5 -42q-13 2 -25.5 3t-25.5 1 q-26 0 -53.5 -3t-56.5 -8q-29 -4 -56.5 -7.5t-57.5 -3.5q-27 0 -54 5.5t-56 20.5q-17 31 -17 57q0 25 12 44t33 31q14 60 28.5 120.5t29.5 123.5q14 57 28 119t27.5 124.5t26 123.5t21.5 118q2 8 2.5 16.5t1.5 17.5q2 21 5 41.5t9 34.5q3 11 12 26l11 12l13 2l-15 -7 q8 11 30 28q21 8 48 13.5t54 5.5q37 0 70 -12q20 -3 37.5 -7.5t20.5 -6.5l-14 6h9t12 1q11 1 21.5 1.5t21.5 0.5q17 0 35 -2.5t36 -8.5q11 -7 19 -19t12.5 -27t5 -30t-2.5 -28q-9 -15 -20.5 -23.5t-24 -12.5t-25.5 -5t-26 -1h-8l-26 -3q-13 -2 -24.5 -3t-23.5 -3q5 0 7 1.5 t4 5.5l-21 -24zM384 706l10 11v7q0 2 1 5q12 2 33.5 4.5t34.5 4.5l26 3h12h-1q17 1 34.5 3t26.5 14q3 14 -1.5 30t-14.5 23q-12 4 -26 5.5t-27 1.5q-11 0 -19.5 -0.5t-19.5 -1.5q-7 -1 -15 -1h-18q-2 1 -15 3.5t-28 4.5q-29 12 -63 12q-22 0 -43.5 -3.5t-39.5 -11.5 q-7 -5 -13 -10.5t-11 -9.5l-1 -1l-1 -2l-5 -12q-5 -11 -8 -30.5t-5 -39.5q-1 -11 -1.5 -21t-2.5 -16v1q-20 -120 -48 -244t-57 -245q-16 -65 -31 -131.5t-29 -128.5q-18 -9 -29.5 -21.5t-11.5 -27.5q0 -14 7 -29q18 -8 39 -11t41 -3q24 0 51.5 3.5t56.5 7.5q28 5 57 8t59 3 q14 0 26 -1t25 -3q34 11 50 26t16 31q0 24 -28.5 43.5t-75.5 21.5h1q-21 0 -49 -2.5t-65 -7.5l17 72q10 39 19.5 78t12.5 73q5 48 17 103t26 111q8 31 14.5 60.5t11.5 57.5l9 46q8 29 19.5 59t27.5 64z" />
<glyph unicode="\" horiz-adv-x="567" d="M230 761l-5 14l-2 14q5 17 -11 37.5t-58 40.5q-1 0 -2.5 0.5t-2.5 0.5q-16 3 -29.5 5t-24.5 2q-20 0 -37 -8.5t-31 -31.5l1 3q-5 -8 0.5 -22.5t11.5 -26.5l8 -16q-5 -8 -8.5 -16t-3.5 -13q0 -6 1.5 -13t6.5 -15v1q27 -43 47 -90t40 -95l11 -28v2q30 -74 57 -154t54 -162 q35 -109 72 -215.5t82 -200.5q5 -8 18 -8q10 0 20.5 4.5t19.5 13t14.5 20.5t5.5 28q0 13 -7 33q-11 64 -25 124t-30 117.5t-33 113.5t-35 112q-20 66 -41 132t-40 137v-1q-8 28 -14 54l1 -1q-7 27 -14.5 53.5t-15.5 52.5zM269 771q8 -26 15.5 -54t14.5 -55q6 -28 13 -51 q19 -71 40 -136t41 -131q36 -115 69.5 -229.5t55.5 -238.5q4 -11 5.5 -22t1.5 -22q0 -26 -9.5 -45.5t-24 -33t-32.5 -20.5t-34 -7q-17 0 -31.5 8t-22.5 24v-1q-21 44 -42 96t-40.5 107.5t-38.5 111t-35 106.5q-26 80 -54 160.5t-57 152.5l-11 29v-1q-19 45 -38 89.5 t-45 86.5q-8 14 -11 26t-3 23q0 12 3.5 22.5t8.5 18.5l-1 -20l-3 6q-9 19 -15 41t5 47q20 32 45.5 44t55.5 12q16 0 31 -2t31 -5h-4q2 0 5.5 -1t5.5 -1q61 -29 83 -60.5t16 -60.5q0 -1 1 -2.5t1 -2.5l-1 7q2 -5 3.5 -9t2.5 -9z" />
<glyph unicode="]" horiz-adv-x="545" d="M323 610q4 20 7 41.5t6 36.5h-23q-20 0 -43 1.5t-43 3.5q-13 2 -24 2.5t-22 1.5q-51 3 -82 23t-31 54q0 20 13.5 42t43.5 47q45 17 93.5 22.5t95.5 3.5h-1q30 -1 58.5 1t54.5 4q19 2 36.5 3t32.5 1q25 0 45.5 -4t33.5 -15t18 -30t1 -48q2 5 5 4t7 -3q14 -10 26 -18.5 t4 -25.5v1q-60 -177 -116 -368.5t-111 -390.5q-3 -12 -5 -23.5t-4 -23.5q-4 -22 -9.5 -44t-13 -41.5t-17.5 -34.5t-25 -22q-11 -5 -30.5 -10t-44 -8.5t-52.5 -6t-55 -2.5t-53 2.5t-48 8t-38.5 14t-25.5 21.5q-17 31 -11.5 48.5t28.5 36.5q22 14 54.5 20t59.5 10 q14 2 22.5 2.5t8.5 -0.5q9 15 18.5 38t18.5 49.5t17 53.5t14 50l3 12q13 54 22.5 96t17.5 80q10 47 23 103t32 132l-1 -1zM353 551q-10 -40 -17.5 -72t-13.5 -60t-11.5 -52.5t-10.5 -48.5q-8 -38 -18 -80t-24 -98l-3 -12q-7 -25 -16 -55t-18.5 -58.5t-19.5 -52.5t-20 -39 q-5 -7 -21 -11.5t-36 -6.5q-24 -4 -53 -9t-46 -16l2 2q-8 -7 -11 -12.5t2 -13.5v1q12 -18 50.5 -25.5t83.5 -7.5q26 0 51.5 2t47.5 5.5t39.5 7.5t27.5 8h-1q17 8 25.5 40.5t16.5 73.5q2 12 5 24.5t6 24.5q55 198 110.5 390t115.5 369q-3 -8 -6 -6t-7 5q-11 8 -20 18.5 t-10 21.5q3 29 -13 39.5t-45 10.5q-14 0 -30.5 -1t-34.5 -3q-26 -2 -56.5 -4t-61.5 -1q-42 2 -85.5 -3t-83.5 -19q-19 -17 -27 -29.5t-8 -23.5q0 -16 20.5 -25.5t54.5 -11.5q11 -1 23 -1.5t25 -2.5q20 -2 41 -3.5t41 -1.5q11 0 27 2t42 7q0 -19 -1 -30t-3 -17q0 -1 -1.5 -10 t-3.5 -22t-5 -28t-5 -28l-9 -50z" />
<glyph unicode="^" horiz-adv-x="539" d="M266 472q-30 -19 -62 -26.5t-62 -5.5q-28 -2 -54 4t-46 19t-32 31.5t-12 42.5q0 23 15 52q31 37 59.5 69t57.5 61t60 56.5t66 54.5l15 12h-1q17 14 37 27.5t43 15.5q18 3 39 3q27 0 52 -9.5t45 -35.5q20 -48 -10 -81v-1l2 -12q15 -41 27 -83t20 -84l-2 4q12 -28 24.5 -62 t12.5 -65q0 -32 -16 -54.5t-60 -28.5q-32 -2 -59.5 6t-45.5 43q-2 8 -1.5 17t0.5 20v10q-6 16 -17 35t-22 37l-2 2q-34 -42 -67 -72zM242 504q23 21 48 50t51 64l31 -51q13 -20 25.5 -42t20.5 -51v-12q0 -7 -0.5 -12.5t1.5 -12.5q10 -14 26.5 -18.5t35.5 -2.5h-2q23 4 32 15 t9 28q0 25 -12 57.5t-23 58.5q-9 42 -22.5 89t-34.5 102q5 0 6 -3.5t2 -7.5v-1q-1 4 -1.5 9t-0.5 16q12 11 18 20.5t1 20.5q-13 15 -30 21.5t-34 6.5q-15 0 -34 -3q-15 -1 -30.5 -12t-29.5 -23l-15 -12q-36 -27 -66 -53t-57.5 -53.5t-54 -57.5t-55.5 -65q-9 -17 -9 -32 t9 -26t24 -18.5t34.5 -11t39.5 -1.5q50 -4 101 26z" />
<glyph unicode="_" horiz-adv-x="833" d="M747 32q35 -9 58.5 -39.5t23.5 -64.5q0 -31 -20 -57t-71 -37q-14 -1 -24 -3.5l-18 -4.5q-16 -5 -33.5 -7t-40.5 0h-133q-38 0 -67.5 -0.5t-63 -1t-77 -2t-107.5 -3.5l-147 -5q-57 10 -82.5 31.5t-25.5 48.5q0 25 20.5 49t55.5 41q-5 26 7 44t38 30q8 4 25.5 5t40.5 1h10 q8 0 31 -0.5t54 -2t66.5 -3.5t67 -3.5t56 -2.5t34.5 -1q78 0 163.5 -3.5t154.5 -7.5zM291 8q-18 2 -41 3.5t-48 3t-50 2t-46 0.5h-33.5t-16.5 -2q-29 -12 -11 -62q-40 -16 -63 -34t-23 -32q0 -26 74 -40q35 1 70 2.5t70 2.5q61 2 104 3.5t78 2t66 1t68 0.5h139q20 -3 33 -1 t25 6q9 2 19 4.5t22 4.5q31 8 46.5 23t15.5 32q0 21 -14 39.5t-35 25.5q-69 4 -153 7.5t-162 3.5q-25 0 -47.5 -0.5t-42.5 -1.5q-4 -1 -17 -1h-1h1zM321 1q3 0 5 0.5t3 0.5q-2 0 -4 -0.5t-4 -0.5z" />
<glyph unicode="`" horiz-adv-x="282" d="M24 795q-6 33 6 56t34.5 36t50 17.5t51.5 0.5q33 -2 63.5 -21t46.5 -54q-5 -15 -6.5 -26.5t-1.5 -22.5q0 -8 0.5 -15t0.5 -15q1 -12 1.5 -27t-1.5 -27q-3 -32 -22.5 -45t-45.5 -13q-16 0 -32.5 5t-27.5 12l-5 11l4 -5q-2 2 -2 3t-2 3q-8 5 -13 15l-3 5l-6 8l3 -4 q-12 14 -23.5 25.5l-25.5 25.5q-17 9 -22 14.5t-12 14.5q-2 3 -4.5 6.5t-5.5 6.5l-1 21l7 7zM63 798l1 -5l-6 14q5 -5 6.5 -7.5t3.5 -4.5l-1 1q5 -7 9 -10.5t16 -10.5q14 -14 29.5 -30t27.5 -30l5 -6l5 -9q1 0 5 -2l8 -13v-1q12 -5 29 -5q11 0 19 4.5t9 16.5q2 13 1.5 25 t-1.5 24q0 8 -0.5 16t-0.5 16q0 12 0.5 23.5t4.5 24.5q-11 17 -30.5 26t-42.5 10q-16 3 -34 0t-33 -11.5t-23.5 -23.5t-3.5 -37z" />
<glyph unicode="a" horiz-adv-x="551" d="M371 504l25 -5t30 -9t28 -15.5t20 -24.5q16 1 28.5 -7.5t21 -22t13.5 -29.5t7 -30q1 -19 -1 -44t-5 -53t-6.5 -57.5t-7.5 -58.5q-5 -38 -9 -70.5t-6 -56.5q0 -19 -9 -32.5t-23.5 -22.5t-32.5 -13t-36 -4q-24 0 -46.5 7.5t-35.5 20.5q-5 -3 -12 -7t-15 -8 q-25 -12 -62 -19.5t-76 -7.5q-28 0 -55 4.5t-50 15t-40.5 27.5t-26.5 43v-1q-10 27 -10 76q0 45 10.5 96t33.5 94q17 32 47 65t66.5 61.5t76.5 50t78 31.5q20 5 40.5 8t39.5 -2zM363 464q-16 4 -31.5 2t-30.5 -6q-33 -10 -69.5 -30t-69.5 -46t-60.5 -55t-42.5 -57 q-21 -39 -30.5 -85.5t-9.5 -86.5q0 -37 8 -63q6 -18 19.5 -29.5t31.5 -19t39.5 -10.5t43.5 -3q34 0 66 6.5t54 16.5q15 8 22.5 13.5t14.5 19.5l36 -14q-4 -14 13.5 -21t40.5 -7t42.5 8t18.5 25q2 24 6 59t9 73q4 27 7.5 56.5t6.5 56.5t5 50.5t1 40.5q-1 9 -4 19t-7.5 18 t-11.5 12t-16 1l-27 1q0 16 -8.5 26t-20.5 16t-24.5 8.5t-21.5 4.5zM303 189q-2 -6 -3 -10.5t-5 -14.5h1l-5.5 -11t-6.5 -16q-8 -17 -16 -32.5t-20 -25t-30 -12.5t-45 5q-41 16 -41 50q0 12 12.5 29t32 35t43 35.5t44.5 30.5t36.5 19.5t19.5 2.5q-5 -31 -10.5 -55.5 t-7.5 -30.5zM256 169q-1 0 -1 0.5t-1 0.5q5 10 6 13.5t2 8.5q1 3 0.5 2t-1 -1.5t0.5 2.5t4 14q-39 -20 -66.5 -44t-27.5 -43q0 -6 14 -12h-2q29 -8 42 7t22 36q2 5 3.5 7.5t4.5 8.5zM254 170v1v-1z" />
<glyph unicode="b" horiz-adv-x="530" d="M132 -67q-70 -6 -113 25t-43 86q0 11 1 22t6 24q12 71 31 148.5t41.5 152.5t48 143t52.5 120.5t54 85t52 36.5q11 26 32.5 39.5t44.5 13.5q22 0 40.5 -12t29.5 -36q10 -24 10 -47q0 -27 -10 -51t-22 -47l-16 -32v1q-19 -45 -36.5 -88t-34.5 -88q48 21 97 21 q44 0 79 -17.5t51 -51.5q14 -34 14 -75q0 -38 -11 -81.5t-30.5 -85.5t-45.5 -79.5t-56 -64t-62.5 -40t-63.5 -7.5q-24 -2 -43.5 8.5t-33.5 21.5l-2 -5q-9 -9 -11 -12q-14 -9 -24 -15t-20 -8zM118 -24q11 1 18 3.5t15 7.5l23 35l46 -13q11 -8 23.5 -15.5t27.5 -5.5 q40 -11 81 17.5t74 78t54 110t21 112.5q0 36 -10 59q-11 22 -36.5 33.5t-57.5 11.5q-28 0 -58 -9t-57 -27l-60 -40q10 28 24.5 66t30.5 77.5t31 77t27 66.5l16 33q11 20 19.5 40t8.5 40q0 8 -2 16t-4 15q-5 11 -14.5 17.5t-19.5 6.5q-14 0 -28 -16t-21 -46q-22 10 -47 -13.5 t-50.5 -71.5t-50.5 -114.5t-47 -141.5t-41 -153.5t-31 -150.5q-7 -21 -7 -38q0 -35 27 -55t72 -18zM215 150q2 6 7.5 21.5t13.5 34t18.5 36t22.5 29t24.5 12.5t25.5 -14q9 -10 12.5 -20.5t3.5 -21.5q0 -23 -14 -45t-34 -50q-24 -39 -47 -64.5t-37.5 -27.5t-15.5 23.5 t20 87.5v-1zM297 243q-3 3 -8.5 -7.5t-11.5 -26.5t-12 -34t-9 -28q4 6 7 9q17 23 28.5 40.5t11.5 30.5q0 8 -6 16zM195 -26l-2 -2v1q1 1 2 1z" />
<glyph unicode="c" horiz-adv-x="445" d="M413 511q45 -5 63 -30.5t18 -54.5q0 -30 -18 -57.5t-41 -37.5q-13 -26 -34 -33.5t-45 -11.5q-14 -2 -27.5 -5t-23.5 -11q-30 -27 -42 -49t-20 -48q1 -12 19.5 -24t41.5 -13q51 5 80 -13t29 -47q0 -23 -18 -44q-18 -29 -47 -49.5t-63 -33.5t-70.5 -18.5t-70.5 -3.5 q-31 3 -60 19.5t-51.5 43t-36 63t-13.5 80.5q0 30 6.5 63.5t20.5 68.5q21 51 54.5 96.5t77.5 79.5t98.5 53.5t118.5 19.5q26 0 53 -3h1zM408 471q-27 3 -49 3q-57 0 -106 -17t-88 -47t-68.5 -71t-48.5 -88q-25 -65 -25 -118q0 -36 10 -66t27 -52t39 -34.5t47 -13.5 q30 -2 62 2t61.5 15.5t54.5 29.5t40 43q9 10 9 19q0 11 -17 17.5t-49 2.5q-24 -2 -43.5 6t-33.5 20.5t-21.5 27.5t-5.5 29q5 17 10 32t13 29t20.5 28.5t32.5 31.5q17 14 35.5 19t35.5 7t31.5 8.5t23.5 32.5q19 2 34 20t15 39q0 16 -10.5 29t-36.5 16h1z" />
<glyph unicode="d" horiz-adv-x="542" d="M-26 92q1 34 16 82t42.5 96t67.5 90t91 65q16 11 34.5 16t37.5 5q20 0 39 -5.5t33 -15.5l4 17h-1l17 68q7 27 19.5 69.5t28.5 85t34.5 78t38.5 49.5q17 11 34.5 15.5t34.5 4.5q22 0 42 -8t34.5 -20.5t22 -28t5.5 -31.5q0 -4 3 -8.5t6 -8.5q8 -11 14.5 -22.5t1.5 -28.5 q-17 -72 -46 -146t-60 -149q-19 -45 -37 -91t-34 -91t-27.5 -88.5t-17.5 -83.5q-1 -18 -11 -33t-27 -26.5t-38.5 -18t-44.5 -6.5q-38 0 -81 23v3q-7 2 -11.5 3.5t-6.5 4.5q-25 -19 -69 -19q-21 0 -46 3q-32 4 -59 12t-46 25t-29 44.5t-9 69.5zM211 391q-47 -21 -83 -59 t-61 -81.5t-38.5 -86.5t-14.5 -74q-1 -30 7 -49.5t22.5 -31.5t34.5 -18.5t43 -9.5q12 -2 23 -2.5t19 -0.5q17 0 30.5 2.5t30.5 20.5v2l1 -1q12 13 30 42q0 -2 1.5 -9.5t3.5 -16t3.5 -16t1.5 -8.5q2 -7 -1 -8q4 -1 12 -4t14 -6v-5q10 -5 20 -6.5t21 -1.5q32 0 56 14t25 34 q11 84 45.5 176.5t74.5 189.5q30 72 58.5 146.5t45.5 142.5q0 3 -3.5 7.5t-6.5 9.5q-8 11 -13.5 22t-3.5 26q3 15 -16.5 28t-47.5 13q-11 0 -23 -2.5t-23 -10.5l1 1q-16 -12 -32 -44t-30 -71t-25.5 -78.5t-18.5 -65.5l1 1q-4 -17 -9 -34t-9 -34q-2 -11 -4 -20t-6.5 -22 t-12.5 -32t-22 -50q-7 45 -27 70.5t-42 25.5q-29 0 -48 -13zM282 134q-3 -23 -20.5 -45t-38 -30.5t-36.5 3.5t-16 58q0 24 10.5 46.5t28 37.5t41.5 18t51 -13l-6 -32zM211 120q0 -12 3 -21q11 0 16.5 12t13.5 35l13 39v2q-10 1 -18.5 -4.5t-14.5 -15.5t-9.5 -22.5 t-3.5 -24.5z" />
<glyph unicode="e" horiz-adv-x="523" d="M510 320q-8 -42 -18 -70t-24.5 -49t-36 -37t-51.5 -32q19 -6 38 -22q5 -11 6 -13.5t0 -2.5q10 0 18.5 -5t22.5 -32q14 -30 -5.5 -54.5t-58.5 -41.5t-90 -26t-99 -9q-64 0 -107 16q-58 21 -84 66.5t-26 101.5q0 28 6 58.5t16.5 60t24.5 57t29 50.5q22 31 46.5 58.5 t52.5 49t61.5 37.5t75.5 24q12 2 26.5 3.5t29.5 1.5q28 0 55 -6.5t48 -23t34 -45t13 -72.5q0 -22 -3 -43zM347 160q30 15 50 29t34 32t23 43.5t16 63.5v-1q3 21 3 36q0 32 -9.5 52.5t-25 32.5t-35.5 17t-40 5q-11 0 -23.5 -1.5t-24.5 -3.5q-41 -8 -71 -21t-54 -32.5 t-45 -44.5t-42 -55q-29 -42 -48.5 -96t-19.5 -106q0 -45 19 -80.5t64 -50.5q16 -7 40 -10t54 -3q39 0 80.5 5t74.5 15t51.5 23.5t10.5 31.5v-1q-5 9 -6 11.5t0 2.5q-9 0 -18 4.5t-20 27.5q-14 9 -28 9q-13 0 -28.5 -5t-30.5 -10q-20 -7 -37.5 -12.5t-35.5 -2.5 q-12 5 -28 17.5t-22 44.5q21 2 49 6.5t53.5 9.5t45 9.5t24.5 7.5zM330 313q4 -12 -7 -34t-32 -43t-48 -35.5t-54 -12.5q7 28 18.5 55t27 47t35.5 30.5t45 4.5z" />
<glyph unicode="f" horiz-adv-x="436" d="M38 -17q-1 10 0 28.5t2.5 40.5t4 47t5.5 49q4 35 6.5 63.5t2.5 37.5q-1 0 2.5 -3t2.5 -3q-8 1 -15 7q-17 10 -23 22q-2 2 -2 4q-1 1 -1 2q-27 -1 -41.5 17t-14.5 44q0 23 15.5 45.5t51.5 35.5l90 28q5 31 15.5 59.5t23 54t26.5 47.5t26 42v-1l13 21q21 35 49 59.5 t58.5 40t63 22.5t62.5 7q46 0 82 -15.5t50 -38.5q25 -42 25 -79q0 -49 -37 -74l1 1q-11 -8 -26 -14t-31 -6q-19 0 -34 8.5t-24 31.5q-9 3 -14.5 -10.5t-11 -33.5t-12.5 -42.5t-18 -35.5q14 2 27 2.5t28 1.5q30 -18 30 -53q0 -18 -7.5 -37t-21.5 -32q-12 -19 -23.5 -30.5 t-25.5 -19t-32 -13t-45 -12.5l-13 -3q-10 -29 -21 -67.5t-22 -79.5q-10 -38 -20 -75t-20 -66.5t-20 -49t-19 -22.5l11 8q-20 -32 -45 -45.5t-48 -13.5q-21 0 -39 9t-30.5 24t-17 34t1.5 39zM77 -21q-3 -10 -0.5 -20t9.5 -17.5t17 -12t21 -4.5q14 0 30 10.5t32 35.5 q4 2 11 19t15.5 43.5t17 59.5t17.5 66q13 50 25.5 95.5t23.5 73.5l35 9q21 5 36 10t27 11.5t22 16.5t20 26q10 8 15 19.5t5 22.5q0 4 -1 7.5t-2 5.5q-29 -2 -55.5 -6.5t-61.5 -15.5q20 19 33 47.5t22.5 58.5t18 56.5t20.5 42t29 15.5t45 -24v1q6 -17 21 -17q9 0 18 3.5 t15 8.5q20 12 20 41q0 27 -19 59q-9 15 -35.5 24.5t-62.5 9.5q-25 0 -52.5 -6.5t-54 -19.5t-50.5 -34t-42 -49l-13 -22q-12 -19 -25.5 -41.5t-26 -49t-23 -57t-14.5 -63.5l-114 -36q-21 -7 -30 -19t-9 -24q0 -9 7 -15.5t18 -5.5q15 -8 20 -14.5t9 -12.5q2 -4 13 -8l1 -2 q5 -2 11.5 -6t12.5 -10q0 -21 -2.5 -53t-6.5 -68q-3 -24 -5.5 -48t-4 -45t-2.5 -38t0 -26z" />
<glyph unicode="g" horiz-adv-x="593" d="M359 474q17 -7 32.5 -18t27.5 -24q8 8 20.5 13t29.5 5q33 -20 52 -52.5t19 -68.5q0 -47 -30 -86q4 1 6 -7t3 -15q1 -2 1 -6v-6q1 -9 1 -20.5v-19.5q0 -42 -5.5 -77t-14 -64.5t-20 -56t-23.5 -52.5l-13 -27q-49 -107 -128 -168t-186 -61q-46 0 -98 13l-8 3h1q-23 9 -46 25 t-36 54q-6 17 -4 35.5t10.5 34t24 25.5t37.5 10q12 0 24 -3t29 -12q26 -5 45 1.5t38 16.5l18 9q22 11 40 32.5t32 41.5q3 4 6 8.5t5 8.5q-15 -4 -32 -5.5t-34 -1.5q-9 0 -18 0.5t-18 0.5h-12q-34 1 -58.5 16.5t-41 41.5t-24.5 60t-8 72q0 51 14.5 103.5t42.5 94.5 q47 63 111 99t124 36q17 0 32.5 -2t30.5 -7h1zM346 436q-22 7 -51 7q-53 0 -107 -28.5t-94 -88.5q-26 -38 -38.5 -84.5t-12.5 -91.5q0 -30 5.5 -57t17.5 -47.5t29.5 -33t41.5 -12.5h-1h11q9 0 18 -0.5t18 -0.5q31 0 57.5 8t48.5 34l32 -20q-11 -25 -23.5 -48.5t-26.5 -45.5 q-16 -23 -38 -48.5t-49 -39.5l-18 -9q-24 -12 -49 -20.5t-62 -1.5q-14 8 -24.5 11.5t-18.5 3.5q-20 0 -27.5 -18t-2.5 -35q9 -23 26.5 -35t33.5 -20l9 -3l-4 1q21 -5 42.5 -7.5t41.5 -2.5q92 0 163 56t115 149l13 27q11 24 21.5 49t19 53t13.5 60.5t5 71.5v18.5t-1 19.5v1 q0 1 -0.5 2t-0.5 3q-1 6 -2 14t-1.5 16t0 15t3.5 10q21 29 21 61q0 23 -10.5 45t-29.5 35q-11 -4 -21.5 -20t-17.5 -30q-20 29 -39.5 49.5t-36.5 27.5h1zM289 159q-2 14 -12.5 15t-23 -5t-25.5 -16.5t-20.5 -20t-7.5 -15.5t13 -2q3 1 14 8.5t24 15.5t24.5 14.5t13.5 5.5z M323 146q-14 -21 -39 -39t-51.5 -27t-49.5 -7.5t-34 19.5q-5 12 2 30t21.5 36.5t35 34.5t42.5 23.5t44 4t39 -24.5q-6 -12 -7 -27t-3 -23z" />
<glyph unicode="h" horiz-adv-x="591" d="M317 369q-1 -2 -1 -3t-1 -2q27 24 59 39.5t67 15.5q28 0 56.5 -12t54.5 -38q20 -20 27.5 -42.5t7.5 -48.5q0 -21 -4.5 -44.5t-9.5 -46.5q-5 -21 -8.5 -41t-2.5 -38q0 -13 0.5 -23t1.5 -20t3.5 -21t7.5 -26q1 -46 -21 -64.5t-54 -18.5q-26 0 -53 11t-47 27 q-14 11 -22 20.5t-16 22.5l-6 11l-5 17q-5 29 -9 50t-4 47v2v1l-1 -1q-26 -16 -45 -38t-38 -63q-3 -21 -6 -33.5t-7 -19t-9.5 -9t-14.5 -4.5q-3 -1 -9 -2.5t-17 -9.5h-2q-11 -6 -26 -15.5t-26 -9.5q-9 -3 -20.5 -4.5t-20.5 -1.5q-29 0 -55 11t-45.5 29.5t-28.5 43t-3 51.5 q14 60 33 126t40.5 130.5t45.5 124t47 108.5q14 30 27 52.5t27 45.5l32 55l1 2q-7 27 2.5 48t29 35.5t46.5 21.5t54 7q20 0 39 -4.5t34 -13t24.5 -22t11.5 -31.5q-5 -14 -12.5 -34t-16.5 -41.5t-17.5 -42t-15.5 -36.5l-12 -27q-3 -7 -8.5 -24t-13 -38.5t-14.5 -44t-13 -40.5 l-10 -30zM297 437q6 18 13 41t14.5 44.5t14 39.5t9.5 26l12 27q14 32 31 72.5t27 69.5q-3 14 -23.5 20.5t-45.5 6.5q-19 0 -37.5 -5t-32 -14.5t-19.5 -23.5t1 -33l-10 -17l-33 -56q-11 -19 -23 -40t-29 -56q-23 -48 -46 -107t-44.5 -122t-40.5 -127.5t-32 -123.5l1 1 q-4 -18 2.5 -33.5t20 -27.5t31.5 -19t38 -7q16 0 36 7q1 0 6 2.5t11.5 6t13.5 7t12 5.5q13 9 21 11.5t13 3.5q0 2 1 9.5t4 23.5q15 33 32.5 57.5t39.5 44t48 35t57 31.5q-8 -34 -10.5 -51.5t-2.5 -24.5q0 -17 4 -38t9 -50l-1 1l2 -9l8 -14l-1 1q5 -8 9.5 -12.5t15.5 -14.5 q16 -13 37 -21.5t39 -8.5q14 0 24 8.5t11 28.5q-5 16 -7.5 27t-3.5 21.5t-1.5 21t-0.5 24.5q-1 20 3 43t10 48l-1 -1q5 22 9 43.5t4 38.5q0 18 -5 34t-18 29q-20 20 -41.5 29t-41.5 9q-30 0 -59 -16t-52 -41v1l-15 -19l1 1q-3 -4 -5.5 -7.5t-9 -10t-20.5 -18.5t-40 -33 q3 10 8 30t10.5 41.5t11 42t8.5 31.5v-1l8 26zM338 144v-1q-2 -6 -2 -4t1 4q0 1 1 1z" />
<glyph unicode="i" horiz-adv-x="321" d="M113 440q12 31 47 47t72 16q22 0 42 -5.5t35 -16t23 -26t5 -36.5l-10 -30q-12 -38 -27 -85t-28.5 -95t-24.5 -93t-15 -77q-6 -40 -16.5 -63t-22.5 -35t-24.5 -15.5t-23.5 -3.5q-3 0 -8 -0.5t-5 -1.5q-8 -15 -25.5 -23.5t-38.5 -8.5q-18 0 -36 6t-33 18.5t-24.5 31.5 t-9.5 46q0 20 7 44l-1 -2q4 31 18.5 86t35 116t44 118t46.5 92zM149 422q-14 -22 -29.5 -54.5t-30 -69.5t-27.5 -76t-23.5 -75.5t-17.5 -67t-10 -49.5q-6 -23 -6 -40q0 -32 20.5 -47t42.5 -15q9 0 16.5 3.5t11.5 6.5q9 16 20 19t25 5q6 0 13 2t14 10t13 24.5t11 46.5v-1 q4 33 15 79t25.5 95t29.5 97t27 86l8 26q2 18 -18.5 27t-46.5 9t-49.5 -9.5t-31.5 -27.5zM318 562q-33 -4 -57.5 1t-41.5 16t-25.5 26.5t-8.5 32.5q0 27 23 53.5t70 40.5l8 1h4h-2q19 2 29 2.5t24 -4.5q24 -2 37.5 -14t19.5 -26q9 -15 10 -31.5t-7 -33.5t-27 -33.5 t-50 -29.5l-8 -1h2zM321 603l-8 -2q38 17 48.5 37t0.5 35q-2 6 -8.5 11t-19.5 7q-11 3 -19 3t-23 -1h-6l-5 -1l6 1q-32 -10 -47 -25t-15 -30q0 -17 23.5 -29t65.5 -7z" />
<glyph unicode="j" horiz-adv-x="394" d="M101 205q8 33 17.5 66.5t24.5 64.5t37.5 57.5t56.5 46.5q15 11 34.5 17.5t36.5 6.5q21 0 36.5 -9t17.5 -27q3 -15 10 -19q11 -7 21.5 -18.5t13.5 -45.5q-13 -49 -31 -109t-41 -122.5t-50 -124.5t-58.5 -114.5t-66.5 -93t-73 -60.5q-26 -13 -55.5 -18.5t-57.5 -5.5 q-40 0 -76.5 11t-65 29.5t-45.5 44.5t-17 56q0 45 38 87v-1q13 15 27.5 21t29.5 6q17 0 33.5 -6.5t30.5 -12.5q17 -11 23 -20t11 -23q1 -2 2 -5t4 -8l16 -11l-22 3l6 4l17 21q14 29 23.5 50t15.5 35l-1 -2l4 9q13 32 22 56t15.5 42.5t10.5 33t8 29.5zM122 136 q-5 -18 -9.5 -34t-11 -35t-15 -41.5t-20.5 -53.5v1l-3 -7q-8 -17 -19 -43t-25 -53l-29 -34l-21 -10q-9 8 -16 12.5t-14 9.5q-6 8 -8.5 14.5t-4.5 13.5q-2 5 -6 11t-14 12l3 -1q-9 4 -20.5 8.5t-23.5 4.5q-7 0 -13.5 -3t-13.5 -11q-28 -31 -28 -59q0 -22 13.5 -40.5t36 -32 t52.5 -21t62 -7.5q24 0 48 4.5t47 15.5q36 17 68.5 54t61.5 86.5t54 108t46 118.5t38 117t30 105q-2 14 -6.5 20t-8.5 9q-11 5 -19 14.5t-11 32.5q0 2 -14 2q-12 0 -26.5 -5.5t-25.5 -15.5q-30 -17 -49 -40t-31.5 -50.5t-21 -58t-15.5 -60.5zM239 665q22 42 51 59t58 17 q23 0 44 -9.5t37.5 -25.5t26.5 -36.5t10 -42.5q0 -21 -11 -45q-15 -29 -40 -41.5t-53 -12.5q-27 0 -53.5 11t-45 29.5t-26.5 43t1 51.5zM276 649q-6 -17 0 -31.5t19 -25.5t31 -17.5t36 -6.5q17 0 32.5 7.5t24.5 24.5q7 13 7 27q0 15 -6.5 28t-17 23.5t-25 16.5t-29.5 6 q-19 0 -38 -12.5t-35 -41.5z" />
<glyph unicode="k" horiz-adv-x="476" d="M182 798q17 20 37.5 29t43.5 9q24 0 48.5 -10t44 -27.5t32 -40.5t14.5 -49l-7 -22l2 -2q10 -11 17 -20t8 -26q2 -9 -4 -26t-17 -38.5t-24.5 -45t-26.5 -46.5l-53 -93l9 3l21 6l-1 -1q21 5 46.5 10.5t46.5 5.5q22 0 37 -6q26 -10 44.5 -28t20.5 -53q-6 -15 -20.5 -30.5 t-33 -30.5t-38.5 -28.5t-36 -23.5l-16 -10t-4 -2l-83 -59v-1l10 -4t11 -4q23 -10 50 -23t56 -43q8 -9 13.5 -23.5t5.5 -30.5q0 -15 -4 -29t-13.5 -25.5t-25 -18.5t-37.5 -7q-12 0 -26 2.5t-30 8.5q-28 12 -61.5 39.5t-70.5 65.5q-8 -26 -15 -51.5t-15 -51.5q-11 -24 -35 -36 t-50 -12q-28 0 -53.5 13t-30.5 36q-5 11 -6.5 20.5t-1.5 17.5q0 12 2 19t7 18q6 14 14 38.5t16 72.5q-32 30 -32 79q0 17 7 36t22 36q11 4 19 6.5t19 7.5q5 26 13.5 55t17.5 57q8 23 14.5 44.5t9.5 35.5q11 47 23.5 89.5t25.5 80.5q9 27 20.5 64t18.5 65zM263 796 q-14 0 -26 -5t-22 -16q-8 -32 -18 -63.5t-20 -62.5q-14 -43 -27.5 -85.5t-21.5 -80.5q-6 -25 -12 -45t-12 -39q-10 -29 -18.5 -60.5t-13.5 -65.5q-15 -8 -28.5 -13.5t-23.5 -8.5q-5 -8 -8.5 -18.5t-3.5 -19.5q0 -16 10.5 -32.5t28.5 -29.5q-2 -7 -4 -13.5t-2 -8.5 q-10 -50 -18.5 -77t-14.5 -43q-3 -8 -5 -13t-2 -10q0 -8 8 -28q2 -9 15 -14t29 -5t29 4.5t18 14.5q5 18 12 40.5t14 46.5t13 46t11 38q51 -57 94 -95t72 -52l-1 1q25 -9 41 -9q22 0 31 13t9 27q0 17 -9 28v-1q-23 25 -46.5 36t-43.5 19q-10 4 -18 6.5t-19 9.5q-5 3 -8.5 7.5 t-7.5 14.5q5 13 6.5 17.5t3.5 7.5q1 4 1 7l96 68h-1q4 3 9.5 6.5t11.5 7.5q14 9 31.5 20.5t33 23.5t28 23.5t17.5 21.5q-3 13 -14 20.5t-25 12.5q-5 2 -11 3t-12 1q-19 0 -42.5 -5t-43.5 -10l-20 -5l2 1q-8 -2 -15 -3.5t-12 -2.5l-59 -9q13 28 24.5 50.5t22 42t20.5 36.5 l20 34q13 23 26 45t22 39t14 28.5t4 14.5q-1 12 -5 17.5t-9 11.5q-2 2 -4.5 5t-5.5 6q-4 4 -7 8l11 37q-3 16 -12.5 31t-23 26t-30 17.5t-33.5 6.5zM278 147q1 -1 2 -1z" />
<glyph unicode="l" horiz-adv-x="294" d="M172 -42q-23 -21 -54.5 -36.5t-56.5 -15.5q-19 0 -33.5 10.5t-17.5 31.5q-1 -1 -5 1q-9 2 -18.5 5t-15.5 11t-7.5 22t4.5 38l25 91q15 59 35 133t48.5 156.5t66.5 170t89 174.5q5 5 8 11q6 10 14.5 22t20.5 22t27.5 17t36.5 7q20 0 56 -12q-2 -16 3.5 -27.5t11.5 -18.5 q11 -13 19.5 -28t6.5 -36q-31 -73 -57.5 -143t-49.5 -139t-44 -138.5t-41 -141.5q-5 -19 -9 -36t-8 -31q-9 -36 -20.5 -68t-34.5 -52zM146 -12q19 17 26.5 40t16.5 60q4 14 8 31t9 36q39 141 85.5 280.5t104.5 278.5q-1 7 -6.5 15.5t-11.5 16.5q-8 10 -14 19t-9 22 q-5 1 -8.5 1.5t-7.5 0.5q-13 0 -23 -5t-17.5 -12.5t-13.5 -16t-11 -15.5q-2 -4 -6.5 -9.5t-3.5 -4.5q-51 -88 -88 -174t-64.5 -165.5t-46.5 -151t-34 -129.5l-24 -90l1 1q-5 -19 -2 -23t7 -5q11 -3 21.5 -8t15.5 -23q1 -12 11 -12q18 0 42 12.5t43 29.5z" />
<glyph unicode="m" horiz-adv-x="767" d="M484 139q-17 -22 -28 -35.5t-18 -20.5q-14 -17 -32 -28t-41 -10q-23 0 -44 10t-32 29l-4 11q-3 8 -6.5 18.5t-3.5 31.5l-20 -42l-16 -36q-3 -6 -6 -14l-6 -16q-7 -18 -14.5 -35t-19.5 -32.5t-30 -28.5t-46 -22q-8 -3 -23 -4.5t-32 -1.5q-20 0 -40.5 3t-36.5 10.5 t-25 19.5t-5 30q6 32 19.5 76t29.5 94q16 51 31 102t25 97q5 10 8.5 21.5t6.5 22.5v-1q8 30 18.5 51t32.5 20q11 18 35 28.5t52 10.5t53 -8.5t40 -34.5q29 20 62 34t63 14q37 0 65 -23q23 20 50 34t61 22q31 1 63.5 -7t55.5 -26l8 -8t12 -13.5t11 -14t7 -10.5l-1 3 q8 -13 11.5 -35t3.5 -50q0 -45 -7.5 -102.5t-19 -112t-24 -99.5t-22.5 -64q-15 -27 -31 -29.5t-30 1.5q-15 -17 -35.5 -26.5t-42.5 -9.5q-23 0 -45 7.5t-38.5 22.5t-24 37t0.5 50q3 11 9.5 29t12 34t7.5 25t-4 1zM131 417q-5 2 -9 -10t-9 -30q-3 -10 -6.5 -20.5t-8.5 -21.5 l2 3q-9 -42 -25 -96t-33 -108q-14 -44 -26.5 -87t-20.5 -79q-1 -5 5 -7.5t16 -4.5t22 -2.5t24 -0.5q14 0 25.5 1t17.5 3q20 7 33.5 17.5t23 22.5t15.5 26l12 28q3 8 6 16.5t8 17.5v-1l16 35q10 22 16.5 35t11.5 25t10 28t13 44q2 16 16.5 20.5t28 0t19.5 -17t-8 -30.5l-4 -5 q-4 -24 -5.5 -41t-1.5 -28q0 -16 3 -25t5 -16l2 -6l-1 1q5 -9 16 -14t25 -5q19 0 38 11q5 3 12.5 13t16 23t16.5 26.5t13 22.5v1l1 2q19 35 34 61t27 46.5t22.5 35.5t20.5 27l32 -19q-12 -32 -26 -70.5t-28 -78.5t-26 -78t-21 -68q-4 -16 1 -28.5t15.5 -21t24.5 -13t28 -4.5 q28 0 41 13q1 13 5.5 19t10.5 7.5t13.5 0t15.5 -4.5h-1q5 -1 9.5 -1t8.5 8q9 19 21 61.5t22.5 94.5t18 106.5t7.5 97.5q0 22 -1.5 37.5t-5.5 21.5q-2 3 -5.5 8t-8 10.5t-8.5 10.5t-7 8q-16 11 -43 17.5t-49 7.5q-29 -8 -58.5 -27.5t-59.5 -47.5q-17 23 -32 32.5t-29 9.5 q-29 0 -68 -22t-74 -53q-12 38 -33.5 54t-42.5 16q-20 0 -36 -7t-18 -18zM645 -31q2 0 2 3z" />
<glyph unicode="n" horiz-adv-x="652" d="M95 400q16 24 26.5 37.5t18.5 19t14.5 4.5t14.5 -6q33 12 55 12q27 0 40.5 -12t18.5 -26q21 15 49.5 28.5t60 23.5t64 16t61.5 6q11 0 22.5 -1t22.5 -4l-1 1q60 -13 84.5 -53.5t24.5 -99.5q0 -41 -10 -85t-27 -89q-8 -17 -13.5 -30.5t-10.5 -24.5q-5 -13 -10 -24 t-11 -22.5t-14 -23.5t-19 -28q-10 -18 -26.5 -32t-36 -23.5t-40.5 -14t-40 -4.5q-38 0 -61 20.5t-13 56.5l34 101q9 28 17.5 52.5t17.5 45.5q8 26 8 40q0 4 -4 2t-8.5 -7.5t-9.5 -12t-6 -9.5q-7 -5 -18 -20.5t-24 -37.5t-27 -47.5t-27 -49.5q-13 -23 -23.5 -43t-18.5 -32v1 q-13 -23 -25.5 -29t-21.5 -9l3 -3q8 8 8 5q-7 -25 -43 -41t-80 -16q-35 0 -68.5 11t-52.5 34q-8 15 -2.5 52t18 83.5t30 97.5t34 95.5t29 75.5t16.5 38v1zM129 379q-4 -6 -16 -34.5t-27 -68t-31.5 -85.5t-29 -88.5t-19 -76t-1.5 -48.5q12 -14 36 -20t50 -6q31 0 56 7t27 18 q4 19 9.5 23t14.5 8q3 1 7.5 3.5t10.5 13.5q8 12 18.5 31.5t23.5 42.5h-1q13 24 27.5 50t28 49t26 40.5t21.5 25.5q11 13 29 26t32 13q10 0 18.5 -4.5t12.5 -15.5t3 -28.5t-9 -44.5q-8 -19 -16.5 -44t-18.5 -55q-8 -23 -16 -49t-18 -54q-4 -12 7.5 -17.5t28.5 -5.5 q15 0 31 3.5t31 10.5t27.5 17t19.5 24q10 15 17.5 26t13 21.5t10 20.5t9.5 23l24 56v-1v1l1 1l-1 -1q16 42 25.5 83t9.5 76q0 44 -18 74t-60 39q-16 4 -35 4q-31 0 -69.5 -10.5t-76 -28.5t-70 -41t-53.5 -48v61v2q-1 7 -5 18t-20 11q-20 0 -59 -16q-3 2 -5 2.5t-5.5 -2.5 t-9.5 -10.5t-16 -22.5v1z" />
<glyph unicode="o" horiz-adv-x="551" d="M139 444q20 13 36 13t28 -2q9 16 21 25t24.5 13.5t25.5 6t24 2.5h8t10 2q7 1 16 1.5t21 0.5q36 0 68 -10t57 -27.5t42 -42t23 -52.5q5 -19 7.5 -40.5t2.5 -41.5q0 -40 -8.5 -82.5t-25.5 -84t-42.5 -79t-59.5 -67.5q-40 -35 -83 -44.5t-82 -11.5q-30 0 -58 0.5t-54 6 t-50.5 18.5t-47.5 39v-1q-23 24 -32 58.5t-9 74.5q0 46 11.5 95.5t30.5 94.5t44 81t52 54zM161 410q-23 -16 -45 -48t-38.5 -72t-26.5 -85t-10 -86q0 -33 7 -60.5t24 -45.5q18 -20 38.5 -30t43 -14.5t47.5 -5t51 -0.5q33 2 70 11t69 35q30 27 52.5 61t38 71.5t23.5 76 t8 74.5q0 20 -2.5 39.5t-8.5 39.5q-4 21 -17 38.5t-32.5 30t-45 19.5t-54.5 7q-17 0 -36 -3l2 1q-6 -2 -10.5 -2h-8.5q-8 -1 -17.5 -2.5t-19.5 -6t-19 -14t-17 -26.5q-16 0 -21.5 0.5t-9.5 1.5h1q-8 2 -17 2t-19 -7zM345 214q3 -28 0.5 -54.5t-13 -49t-30 -39.5t-49.5 -27 q-11 -3 -25.5 -3t-25.5 1q-5 0 -11.5 0.5t-8.5 0.5q-12 30 -7.5 59.5t19.5 55t36.5 46.5t41.5 36q22 9 35.5 8.5t21 -5.5t11 -13.5t5.5 -15.5zM242 82q18 6 31 18t20.5 28t10.5 34.5t3 38.5q-13 2 -21 2.5t-15 -5t-15 -17t-21 -33.5q-11 -17 -19 -34t-6 -33q10 -1 19 -1 t14 2h-1z" />
<glyph unicode="p" horiz-adv-x="599" d="M232 432q39 51 90.5 71t118.5 23q47 2 78.5 -12.5t50.5 -39.5t27 -57.5t8 -65.5q0 -19 -0.5 -41t-3.5 -37q-10 -48 -26.5 -104.5t-46.5 -111.5t-78 -103t-121 -79q-16 -6 -35 -10t-38 -4q-20 0 -39.5 4.5t-33.5 14.5q-2 -5 -4 -12t-4 -13q-14 -44 -29 -87.5t-39 -87.5 q-26 -16 -61 -24t-62 0q-41 15 -56 44t-15 64q0 32 9 63.5t17 57.5q10 30 21 59.5t22 58.5v-1q2 8 5.5 14.5t5.5 14.5q3 7 8 20.5t10.5 28.5t10.5 29t7 22l18 57q4 12 7.5 25.5t8.5 26.5q1 3 1 6q3 12 10.5 33.5t16.5 44.5t18.5 44t17.5 32q23 23 45 28t51 6zM218 394 q-18 -1 -32 -3t-27 -15q-7 -10 -15 -28t-15.5 -37.5t-14 -38t-10.5 -30.5q0 -3 -1 -7t-1 -6q-5 -13 -9 -26.5t-8 -26.5l-18 -57q-2 -7 -7 -21t-10.5 -29t-10.5 -28.5t-8 -20.5l-11 -31q-11 -29 -22 -57.5t-21 -58.5q-8 -24 -16 -53t-8 -56q0 -23 9.5 -42t35.5 -28h-1 q17 -6 40 -1t40 16q19 36 33 77.5t27 80.5q2 8 7.5 24t11.5 34t11.5 33.5t8.5 23.5q15 -43 37 -62t43 -19q15 0 30 3.5t29 8.5q66 26 108.5 71.5t69.5 98.5t41.5 108.5t23.5 100.5q3 14 5 29.5t2 29.5q0 26 -6 51t-20 44.5t-37.5 30.5t-58.5 9q-62 -3 -108.5 -23.5 t-84.5 -76.5zM305 312q17 -6 37 -4t33.5 -4t15 -29t-17.5 -80q-2 -3 -12 -20t-27.5 -42t-41.5 -53.5t-53 -53.5q-21 5 -27.5 11t-6.5 12.5t2 12.5t-2 10q7 17 15.5 39t14.5 39v-1q29 45 44 88.5t26 74.5zM287 176l-14 -40l-6 -18t-7 -18q18 19 31.5 37.5t23 34t15 25.5 t5.5 11q4 12 4 19.5t-1.5 13t-3.5 9.5t-1 9q-4 -5 -4.5 -7t-3 -8t-9.5 -19t-25 -38z" />
<glyph unicode="q" horiz-adv-x="576" d="M111 401q25 18 55 34t61.5 27.5t62 18.5t56.5 7q37 0 59 -5t32.5 -11.5t12 -13t-2.5 -8.5l10 3q5 20 18.5 29.5t32.5 9.5q16 0 34 -8t33.5 -21t26 -29.5t10.5 -33.5q-1 -3 -1 -6q-18 -55 -33.5 -99.5t-29 -81t-25.5 -66.5l-22 -55q-27 -65 -43 -104t-23 -58.5t-6 -24.5 t10 -2.5t24.5 7.5t37.5 5q16 0 23 -4.5t8.5 -12t0 -19t-1.5 -24.5q0 -21 -11 -47.5t-29.5 -52.5t-43 -48t-51.5 -35q-16 -5 -30.5 -7.5t-26.5 -2.5q-29 0 -54.5 9.5t-45.5 19.5q-32 16 -50 42.5t-21 61.5q-1 8 -1 17v16q0 26 3.5 46.5t10.5 39.5q-30 -9 -66 -9q-33 0 -63 8 t-45 22q-3 3 -9.5 11t-13.5 17.5t-13 20.5t-8 21q-4 17 -5.5 36.5t-1.5 38.5q0 48 12 95t32.5 89t49 77.5t61.5 59.5zM135 369q-30 -22 -55 -53.5t-44 -69t-29.5 -80t-10.5 -86.5q0 -35 7 -67q1 -6 5 -13.5t9.5 -14.5t10 -12.5t7.5 -8.5v1q10 -10 32 -15t48 -5q30 0 56 7 t34 21l1 2l38 -14l-2 -4l-12 -31q-11 -27 -17 -47.5t-6 -50.5v-14.5t1 -15.5q2 -24 14 -42t35 -29q19 -9 38.5 -17t43.5 -8q22 0 44 7q21 11 40.5 29t34.5 38.5t24 41t9 37.5q0 9 -5.5 15t-16.5 6q-27 0 -81 -27q-5 0 -3.5 15t8 38.5t16 52t19.5 57t19.5 53.5t15.5 41 q10 25 21.5 53.5t24.5 64t28.5 78.5t33.5 98q0 2 -0.5 2.5t1.5 3.5q-2 9 -9 17t-16 14.5t-19.5 10.5t-19.5 4q-11 0 -12 -16q-7 -11 -18.5 -18t-22.5 -6q-12 1 -20 6t-18.5 11.5t-26.5 12t-44 6.5q-23 1 -50.5 -5t-55.5 -17t-55 -26t-50 -31zM283 146q-5 -11 -9 -19 t-10 -15.5t-15.5 -15t-24.5 -17.5q-3 -2 -13 -5t-22.5 -4.5t-25 -1t-20.5 5.5q-12 9 -15 22t-1.5 25.5t5 22.5t5.5 13q13 26 27 43t33 28.5t45.5 18t65.5 11.5l-2 -42q-1 -11 -2.5 -21t-6.5 -19zM262 194l3 17q-37 -7 -56 -23.5t-36 -48.5q-1 -3 -5.5 -15t-0.5 -17 q8 -2 20.5 1t16.5 5h-1q23 14 30 24t14 25l-1 -1q3 8 7 15t7 15z" />
<glyph unicode="r" horiz-adv-x="397" d="M85 422q9 23 23.5 40t31 28.5t33.5 17t32 5.5q17 0 30.5 -5.5t20.5 -16.5q15 9 32.5 17t35.5 14.5t35 10.5t30 4q26 0 38 -9.5t6 -34.5q11 -9 18 -24t7 -32q0 -16 -5.5 -33.5t-18.5 -33.5t-33 -28.5t-49 -18.5q-27 -6 -47.5 -33t-36.5 -67.5t-28.5 -90t-21.5 -101.5v1 q-5 -26 -21 -47t-39 -37t-49.5 -24.5t-50.5 -8.5q-39 0 -65.5 24.5t-23.5 75.5q0 18 6 44t15 55t19.5 59t19.5 57q16 44 22 66l34 123v3zM89 286q-3 -11 -8.5 -29.5t-13.5 -39.5v1q-9 -26 -19 -55.5t-18.5 -57.5t-14.5 -52.5t-6 -40.5q-3 -31 12 -44t37 -13q18 0 38 6 t37.5 17.5t29.5 26.5t15 33q10 55 24.5 108.5t34.5 97.5t46.5 75t60.5 42q38 10 56 33t18 43q0 22 -37 30q8 17 9 23.5t-1 6.5q-14 0 -37.5 -10t-50 -25.5t-52 -33.5t-42.5 -34q10 38 8.5 58.5t-10.5 20.5q-20 0 -44 -16t-38 -51v3z" />
<glyph unicode="s" horiz-adv-x="506" d="M373 -40q-44 -35 -103 -52.5t-118 -17.5q-55 0 -103.5 16t-77.5 48v-1q-15 16 -22 33t-7 34q0 29 19.5 48.5t52.5 12.5q4 2 7 12q6 14 14.5 26t28.5 12h33q39 0 72.5 1.5t48.5 6.5q-8 5 -16 8t-16 7q-21 9 -42.5 21.5t-34.5 30.5q-18 11 -29 39t-11 58q0 22 6 39 q1 16 9 33t19.5 32.5t26 29.5t29.5 25q20 15 48 26.5t59 20t61.5 13t56.5 4.5q52 0 73 -19q18 -17 29 -38.5t11 -42.5q0 -29 -22.5 -55.5t-73.5 -40.5q-20 -4 -32 -5.5t-18 -2.5q23 -18 44 -37.5t36.5 -43t25 -50.5t9.5 -58q0 -16 -2.5 -33.5t-8.5 -37.5q1 -14 -5.5 -27 t-17 -24.5t-23.5 -21.5t-24 -19zM361 2q9 7 18.5 14.5t17.5 16t12.5 16.5t3.5 16q13 39 13 68t-13 55.5t-34 51t-48.5 46.5t-57.5 43q24 10 27.5 10.5t3.5 -0.5q1 3 4 6.5t12 7.5t27.5 8.5t51.5 9.5l-2 -1q32 8 46 23.5t14 32.5q0 27 -27 51q-9 9 -46 9q-23 0 -50.5 -4 t-55 -11.5t-52.5 -18t-43 -22.5q-12 -9 -24.5 -20.5t-22 -24.5t-15.5 -26.5t-6 -25.5q-6 -15 -6 -30q0 -21 8 -41t20 -26q11 -17 28.5 -27.5t36.5 -18.5q17 -8 33.5 -16t33.5 -24q-3 -18 -18 -29.5t-38.5 -18t-53.5 -9t-62 -2.5h-33q-1 0 -2.5 -4t-3.5 -9l1 1 q-6 -15 -15.5 -28t-30.5 -10q-14 3 -22.5 -3.5t-8.5 -17.5q0 -21 19 -40q23 -25 63 -37.5t88 -12.5q53 0 105.5 15.5t91.5 46.5l-1 -1z" />
<glyph unicode="t" horiz-adv-x="436" d="M484 721q-5 -15 -8 -25t-6.5 -18t-7.5 -15.5t-9 -17.5q-4 -7 -7.5 -15.5t-9.5 -20.5l-27 -55q5 0 10 0.5t11 1.5q9 -2 15 -2h11q10 0 19 -1t26 -8l-1 1q19 -8 27.5 -23.5t8.5 -34.5q0 -27 -17 -52.5t-49 -28.5l-20 -5q-24 -7 -45 -11.5t-50 -6.5q-11 -27 -24.5 -68.5 t-27.5 -88.5q-13 -41 -26.5 -84t-27 -82.5t-27 -72.5t-26.5 -55q-11 -19 -21 -25t-30 -10q2 0 0 -2q-21 2 -43.5 8t-40.5 16.5t-28.5 25.5t-7.5 35q4 34 11 77t16 89.5t19.5 94.5t21.5 91q-5 -2 -13 -3.5t-25 -2.5q-13 1 -25 8t-21 17.5t-14 24t-5 28.5q0 22 13 42t43 33 q26 7 36 11t18 7q6 2 15 5.5t41 12.5l11 4q2 1 4.5 2t0.5 1q1 5 2.5 11.5t2.5 11.5q10 50 24.5 103t50.5 108v3l10 10q11 26 20 32t25 10q9 2 31 15q13 18 40 18q18 0 40 -10t39 -26.5t26 -39.5t1 -48zM446 733q5 15 -0.5 28t-17 23t-25 15.5t-25.5 5.5q-8 0 -12 -8 q-20 -13 -31.5 -17.5t-19.5 -6.5v1q-4 -1 -6.5 -4.5t-9.5 -18.5l-8 -8v-2q-35 -51 -49.5 -102.5t-24.5 -99.5l-5.5 -27.5l-5.5 -27.5h-21l-19 -6l-52 -18q-5 -2 -18.5 -6.5t-37.5 -11.5q-14 -7 -21 -17t-7 -20q0 -13 8 -24.5t19 -13.5q11 1 15.5 2t7.5 3q3 1 7 2.5t11 3 t18.5 2t30.5 0.5q-14 -52 -27 -107.5t-24 -109t-19 -102t-12 -85.5q-3 -8 3 -14t16.5 -11t23.5 -8.5t25 -4.5q2 1 2 0.5t2 -0.5q17 5 25 15q12 20 24.5 52.5t26 71.5t27 81t25.5 81q15 48 29 92.5t25 72.5l16 17q32 2 55.5 7t49.5 12l25 7q15 1 23 14t8 27q0 16 -11 20 q-11 5 -17 5.5t-12 0.5h-13.5t-16.5 2q-8 -1 -15.5 -2.5t-18 -3.5t-24.5 -5t-35 -7q7 12 13 23q5 8 9 15.5t5 8.5t2.5 3t4.5 9l33 70q6 12 10 21t8 16q8 15 14 29t14 40z" />
<glyph unicode="u" horiz-adv-x="606" d="M116 453q22 20 46.5 29.5t47.5 9.5q21 0 40.5 -7t34.5 -19t23.5 -29t8.5 -38q0 -10 -2.5 -21.5t-9.5 -26.5q-25 -36 -41.5 -78.5t-30.5 -84.5q39 34 65.5 75t51.5 86l24 42l15 28l29 47q6 16 14.5 24.5t20 12.5t24.5 4h27h-1q12 0 23.5 0.5t18.5 4.5q8 5 19.5 8.5 t22.5 3.5q20 0 39 -9.5t32.5 -24t18.5 -32.5t-2 -34q-26 -54 -50 -126t-45 -142q-14 -46 -27.5 -88t-24.5 -71q-26 -32 -61.5 -46.5t-69.5 -14.5q-36 0 -64.5 13t-39.5 36l-26 -16q-25 -15 -55 -23t-61 -8t-60 8t-52 24t-37.5 41t-16.5 60q-3 83 29.5 179t98.5 200zM147 428 q-63 -100 -94 -190t-28 -165q1 -25 12 -43t28.5 -29.5t40 -17t45.5 -5.5q54 0 96 25h-1q15 9 30 20.5t31 24.5l29 -19q-5 -12 -1.5 -22t12.5 -16.5t22 -10.5t28 -4q26 0 51.5 10t43.5 30q11 29 23.5 68t26.5 84q11 35 23 72.5t24 73.5t25 69t25 59v-1q3 7 -0.5 14.5 t-11.5 14t-18.5 10.5t-21.5 4t-20 -6q-15 -10 -31.5 -10.5t-33.5 -0.5q-16 1 -29.5 -2t-18.5 -18l-31 -49v1l-15 -28l-24 -42q-17 -30 -42.5 -68.5t-53.5 -71.5t-53.5 -53t-41.5 -12q-6 1 -5.5 15.5t5.5 36.5t13.5 49.5t19.5 55t22.5 52.5t23.5 42l-1 -3q4 8 5 14t1 13 q0 23 -20.5 38t-46.5 15q-17 0 -34 -6.5t-32 -20.5z" />
<glyph unicode="v" horiz-adv-x="509" d="M247 364q1 -20 1.5 -28t1 -14t1 -14t3.5 -28l7 20q12 29 24.5 58.5t27.5 57t34 52.5t43 46q17 18 48 29.5t60 11.5q36 0 58 -16.5t12 -53.5q28 -27 28 -54q0 -22 -9.5 -38t-20.5 -29l1 1q-20 -32 -36.5 -60.5t-33.5 -56.5q-27 -48 -55 -94.5t-60 -94.5q-15 -21 -39 -46.5 t-52.5 -47t-59 -36.5t-58.5 -15q-25 0 -47 13q-35 5 -65.5 24t-47.5 51q-10 27 -10 76q0 43 6 92t12 91q3 22 5.5 40.5t4.5 32.5q1 8 2 17t3 18l5 35q0 2 0.5 4t0.5 4q2 18 5 36t12.5 33t27 25.5t48.5 12.5h17q20 -5 38.5 -11.5t34.5 -26.5q2 -3 4.5 -6.5t4.5 -8.5v1.5 t0.5 1t1.5 -4.5t4 -15q0 -1 0.5 -2.5t0.5 -2.5v1zM201 444q0 1 -0.5 2t-0.5 2l1 -5q3 -11 3 -11.5t-1.5 3t-3.5 9.5l-3 9l-2 3q-8 11 -21 15.5t-27 7.5h-10h1q-18 -1 -28 -8t-16 -17t-8 -22t-3 -24v2q0 -2 -0.5 -5t-0.5 -5q-1 -11 -2 -20t-3 -17q-2 -9 -3 -17l-2 -16 q-2 -14 -4.5 -33t-5.5 -42q-6 -42 -12 -90t-6 -87q0 -17 2 -32.5t5 -27.5q12 -20 36 -33.5t51 -17.5q19 -13 36 -13q23 0 48.5 13t49.5 32t44.5 41.5t32.5 40.5q32 48 59.5 93.5t55.5 93.5q17 28 33 57t36 61q8 11 16 22.5t8 22.5q0 8 -7.5 17.5t-27.5 23.5q9 23 1 33 t-24 10q-22 0 -45.5 -8t-34.5 -21q-22 -18 -39 -41t-31 -49.5t-26 -54.5t-23 -55q-5 -12 -10.5 -19.5t-13 -18t-18.5 -28t-26 -48.5q-3 20 -6.5 44.5t-7 50t-6.5 50t-4 44.5l-6 82v1z" />
<glyph unicode="w" horiz-adv-x="709" d="M495 363q3 1 10.5 -2t14 -0.5t10.5 13.5t0 40q-1 2 -0.5 4t0.5 4v4q-4 24 2 45.5t20 36.5t36 22.5t51 4.5q21 -1 37 -3.5t30 -10t27.5 -23t29.5 -42.5q6 -13 2 -43.5t-14.5 -70t-26.5 -84.5t-34 -88t-36.5 -80.5t-33.5 -61.5q-26 -41 -74.5 -61t-99.5 -20q-53 0 -91 20 l-15 12q-3 2 -6.5 5t-6.5 6q-4 4 -8 7q-11 14 -21 32t-17 44q-17 -29 -40 -54t-50 -51q-26 -14 -55 -22.5t-57 -8.5q-30 0 -63 13q-10 8 -16.5 14t-10.5 13t-6 16t-2 22q0 34 7 70t18 72q6 22 14 52t15.5 62.5t14 64t9.5 55.5v-3q0 3 1 7t1 7q1 5 2 11.5t4 19.5 q12 23 35.5 34.5t49.5 11.5t49 -13.5t32 -42.5l-1 4q10 -19 16.5 -37t10.5 -38q18 18 35.5 30.5t37.5 20.5h2q16 6 25.5 8.5t17.5 4.5l16 3q10 2 22 3.5t26 1.5q29 0 46.5 -13t6.5 -52zM456 371q2 8 -2.5 10.5t-12.5 2.5t-19 -1.5t-21 -3.5l-17 -3q-11 -2 -17 -3.5t-13 -3.5 h1l-9 -4q-24 -8 -50.5 -35t-71.5 -87q0 51 -7 94t-21 69q-5 17 -17.5 25t-26.5 8q-15 0 -28.5 -6t-20.5 -18l1 4q-1 -2 -1.5 -8t-1.5 -13v2q0 -3 -1 -7.5t-1 -7.5q-3 -21 -9 -52t-14 -64.5t-16.5 -65.5t-15.5 -56q-9 -32 -16 -66.5t-7 -65.5q0 -10 6 -17.5t14 -14.5 q8 -2 18.5 -4t19.5 -2q23 0 46 6t41 16l-4 -2q20 19 37 36t31 36t24.5 40.5t18.5 48.5l37 -4q3 -51 15 -81t26 -50l15 -13l-1 1q3 -2 5 -3.5t5 -4.5q14 -8 33.5 -12t37.5 -4q42 0 81 15.5t59 47.5q14 23 31.5 57.5t35 74.5t33 81t26 77t14.5 63t-1 39l1 -1 q-11 18 -20.5 28.5t-20.5 15.5t-24 7t-30 3q-34 5 -50.5 -14t-10.5 -47v-12l2 -4q5 -37 -3.5 -63t-25 -40t-38.5 -15t-43 12q-6 3 -8.5 6.5t-2.5 9t1 14.5t3 25z" />
<glyph unicode="x" horiz-adv-x="467" d="M373 482q4 4 6 5h-1q21 21 35 30.5t31 9.5q11 0 20.5 -3t22.5 -7l19 -6q7 -9 15 -22t13 -27t5 -28.5t-8 -25.5q-8 -18 -24.5 -42.5t-36 -49.5t-40.5 -49t-37 -40q6 -26 9 -54.5t6 -57.5q2 -20 4 -41t6 -39l2 -14v3q2 -6 5 -12q6 -21 -4 -36t-27.5 -24.5t-40 -13.5 t-42.5 -4q-19 0 -39 5q-10 8 -16.5 15.5t-12 18t-11 25t-12.5 36.5q-5 -5 -9 -10.5t-8 -10.5q-3 -4 -7 -8.5t-6 -8.5l-10 -14q-10 -14 -23.5 -29.5t-39.5 -29.5q-13 -5 -29 -8t-32 -3q-20 0 -37 5t-25 21q-32 15 -32 53q0 14 8 48q10 19 27 47.5t37 59.5t42.5 61t45.5 52 q-5 11 -8 24t-5 26t-4 23.5t-5 18.5q-20 8 -33.5 23t-13.5 38q0 21 13 46l15 17q54 49 111 49q18 0 35.5 -5.5t33.5 -17.5q14 -6 31 -24t31 -37l46 39q-2 -6 -2 -7v-4zM398 451q-7 -5 -33.5 -28.5t-54.5 -58.5q-3 12 -11.5 28.5t-18.5 31.5t-20 26.5t-17 14.5q-23 19 -51 19 q-43 0 -83 -37q-3 -3 -5 -6t-5 -6q-6 -14 -6 -23t9.5 -16t23.5 -11q14 -22 17 -37t6 -31q2 -14 6.5 -29.5t18.5 -35.5q-27 -23 -52 -54t-47 -63.5t-40 -62.5t-29 -50q-2 -9 -3 -17t-1 -14q0 -14 26 -22q2 -9 10 -13t18 -4q11 0 23 2.5t21 5.5l-3 -1q23 13 33 24.5t18 22.5 l9 13l-1 -1l17 23q5 6 14 16.5t19 22t19.5 22t14.5 16.5l13 -55l-1 2q7 -23 12.5 -38t9.5 -25t8 -16t10 -11q5 -1 19 -1q12 0 25 1t24 3.5t19 6.5t9 9q-6 10 -8 24l-2 13v-4q-3 15 -5.5 37t-4.5 47q-3 33 -7 66.5t-12 62.5q17 15 39.5 40t44 52t39 53t24.5 43q8 10 1 25 t-16 25q-2 0 -3 0.5t-3 0.5q-11 3 -18.5 5.5t-12.5 2.5q-7 0 -16 -7.5t-27 -25.5zM378 487l-5 -5l-4 -3q2 7 9 8z" />
<glyph unicode="y" horiz-adv-x="570" d="M11 365q-13 54 9.5 77.5t61.5 23.5q19 0 41 -6.5t42.5 -19t38 -30.5t28.5 -40q6 -27 -4 -65.5t-23 -76.5q-5 -14 -8 -19t-5 -8t-2.5 -6.5t0.5 -13.5q15 23 27.5 51.5t24.5 56.5q11 27 22 51.5t22 41.5l13 20q16 24 29 40t33 31q11 6 29.5 4.5t36.5 -6.5q13 -3 23.5 -5.5 t9.5 -3.5l16 12q21 9 41 9q29 0 55.5 -16.5t35.5 -47.5q8 -3 10 -10.5t-14 -24.5q-7 -14 -11.5 -19t-17.5 -15l2 1q-26 -28 -50.5 -67.5t-47.5 -83t-43.5 -88t-37.5 -83.5l1 1q-2 -5 -4 -8.5t-4 -8.5q19 -15 31 -35t12 -45q0 -20 -11 -42q-30 -24 -47.5 -43.5t-26.5 -35.5 t-12.5 -29t-5.5 -25q-3 -19 -10 -36.5t-32 -39.5q-26 -19 -58 -19q-25 0 -49 11.5t-44 29.5q-19 20 -27 39t-8 37q0 26 11 49t23 45q4 7 7.5 13t5.5 11l28 57q-20 -6 -40 -6q-45 0 -88 31q-27 21 -37 56t-10 77q0 26 2 54t5 54q2 25 4.5 50t2.5 44q0 29 -6 49v1zM49 376 q5 -13 6.5 -28.5t1.5 -32.5q0 -24 -2.5 -48t-4.5 -50q-3 -27 -5 -54t-2 -50q0 -34 6 -60.5t25 -40.5q30 -23 64 -23q18 0 51.5 15t77.5 39l-81 -162v1q-3 -8 -7 -14.5t-8 -13.5q-11 -18 -19.5 -36.5t-8.5 -37.5q0 -11 5 -22.5t17 -24.5q15 -13 32 -21.5t34 -8.5q18 0 35 12 l-1 -1q14 12 19 25t7 27q2 13 6 28t14 33t28.5 40t51.5 49q3 7 3 17q0 17 -15 34t-38 31l20 46q18 40 39 86t44.5 91.5t49 86t52.5 69.5q11 8 14 12.5t10 17.5l1 1q0 1 0.5 1.5t0.5 1.5q-4 15 -20.5 23.5t-34.5 8.5h-9t-9 -2l-14 -10q-11 -7 -29 -6t-37 6l-36 8 q-16 -11 -25.5 -24t-24.5 -35l-13 -20q-11 -17 -22 -40.5t-20 -46.5q-10 -25 -21.5 -50.5t-27.5 -50t-37 -46.5t-50 -40q-4 49 5 84t20 70q11 34 20 66t5 52q-17 30 -49 49t-61 19q-18 0 -29 -12t-4 -39v1z" />
<glyph unicode="z" horiz-adv-x="542" d="M488 278q-34 -34 -58 -57.5t-42 -41.5t-32 -31.5t-28 -26.5q24 -2 47 -9t41 -20t29 -31t11 -42q0 -26 -23 -67l-42 -7q-25 -4 -61.5 -10t-77.5 -11.5t-83 -9.5t-78 -4q-42 0 -70.5 7.5t-36.5 27.5q-11 27 -11 51q0 33 15.5 66t39 64t51.5 59t53 51q13 12 23.5 19.5 t17.5 12t9.5 7.5t-0.5 8l-9 4q-2 1 -6 2t-15 3q-37 6 -57 25t-20 45t21 54.5t60 49.5q30 15 65 26.5t72 19.5t74.5 12t71.5 6q20 0 27.5 -10t13.5 -21v-1q2 -4 5.5 -7.5t8.5 -3.5q31 3 46 -16.5t15 -50.5q0 -17 -4.5 -36.5t-13.5 -39t-21.5 -37t-27.5 -29.5zM259 112 l42 38.5t39 37t49.5 48.5t74.5 74q24 18 37.5 50.5t13.5 59.5q0 12 -3.5 20t-11.5 7q-14 -2 -23.5 0.5t-15.5 7.5t-10 12t-7 15v-1q-2 2 -3 5t-1 4q-32 -2 -67 -6.5t-70 -12t-68.5 -18t-60.5 -23.5q-27 -15 -43 -34t-16 -34q0 -11 10 -19.5t31 -10.5q20 -2 26.5 -5t11.5 -5 q1 -1 5 -2t20 -4q7 -13 5.5 -26t-10.5 -26t-23 -27.5t-31 -30.5q-23 -22 -49 -47.5t-48 -52.5t-36 -55t-14 -55q0 -20 7 -35q3 -6 22.5 -8.5t48.5 -2.5q33 0 74 4t81.5 9.5t77 11.5t61.5 10h-1l25 4q7 15 7 30q0 16 -9 27.5t-24 19.5t-33 12t-36 4q-21 0 -36 -4z" />
<glyph unicode="{" horiz-adv-x="506" d="M286 796q11 11 21.5 16.5t22.5 10.5q21 13 55 22l-1 -1q23 6 36.5 7t30.5 0q4 0 7.5 -0.5t8.5 -0.5q3 0 5.5 0.5t7.5 -3.5q44 -12 72 -34t28 -50q0 -20 -15.5 -39.5t-51.5 -38.5q-6 -2 -16 0q-23 -24 -26.5 -50.5t-3.5 -52.5t-3 -52.5t-17 -51.5q-16 -27 -29.5 -47.5 t-28 -36t-31.5 -26.5t-38 -20q-1 -7 -4 -14t-8 -15q-3 -5 -5.5 -9.5t-1.5 -9.5q5 -34 -2.5 -64t-17.5 -58q-7 -19 -12 -36t-5 -32q0 -34 44 -63q23 -14 44 -29t36 -33t21 -40t-2 -48l-7 -12q-27 -29 -58.5 -40t-68.5 -11q-13 0 -25.5 1t-25.5 3q-2 0 -5 0.5t-5 0.5 q-11 2 -20.5 5t-23.5 11q-17 10 -40.5 30.5t-45.5 44.5t-38.5 48.5t-19.5 42.5q-5 39 7.5 73t27.5 65l14 25v-1q6 11 13.5 24.5t14 28t11 28t4.5 25.5q0 10 -7 15q-11 3 -26.5 8.5t-26.5 10.5q-21 5 -35.5 17t-14.5 30q0 24 30 45q16 8 31 11t29 3q25 5 54 12.5t53.5 18.5 t42 24.5t19.5 30.5q0 1 0.5 3t-0.5 7q0 10 -6 28.5t-13 39t-13 40t-5 33.5q1 22 4.5 38.5t9.5 30.5t16.5 28t27.5 32v1zM316 769q-14 -15 -23 -26.5t-14 -23t-7.5 -24.5t-3.5 -31q-1 -9 1.5 -23.5t6.5 -30t9 -31t10 -26.5q-8 13 -14.5 18t-8 4t4 -8t21.5 -19l5 1 q1 -5 1.5 -18t0.5 -20q-5 -25 -26 -45t-50.5 -35.5t-63 -26t-63.5 -15.5q-11 1 -23.5 -2t-23.5 -8q-9 -7 -9 -9t8.5 -5t19.5 -6q5 -3 13 -6t16 -5.5t13.5 -4t6.5 -1.5q18 -10 25.5 -23t7.5 -30q0 -15 -5 -32t-12.5 -34t-16 -32.5t-15.5 -28.5l-11 -19l1 1q-14 -28 -25.5 -58 t-7.5 -59q2 -15 16 -35t32.5 -40.5t38.5 -37t35 -23.5q11 -6 18 -8t16 -4q2 0 2 -0.5t2 -0.5q14 -2 26 -3t23 -1q28 0 51.5 7.5t42.5 27.5l4 6q4 15 -1.5 28.5t-17.5 25t-29 22.5t-35 22q-37 23 -50.5 46.5t-13.5 50.5q0 21 5.5 41t13.5 41v-1q8 25 15 50.5t3 52.5 q-2 14 3 26t10 21q0 2 -5 6t-23 17q36 12 61 24t43 27t32.5 35t30.5 48q11 18 12.5 39.5t1.5 44.5q0 17 0.5 34.5t4.5 34t12.5 32.5t23.5 31v-1q3 2 7.5 3.5t11.5 3.5l1 -3q8 7 14 8q20 11 29 20.5t9 17.5q0 13 -21.5 25.5t-55.5 21.5h-1h-1h1q-2 0 -2 1q0 -1 1 -1 q-4 0 -7 0.5t-5 0.5q-14 1 -25 0t-31 -6q-15 -3 -26 -8t-19 -10q-20 -7 -32 -19v1z" />
<glyph unicode="|" horiz-adv-x="421" d="M213 844q23 26 55.5 46t57.5 20q20 0 33 -11t17 -34q4 0 6 -1q9 -2 18 -5t15 -11t8.5 -23.5t-1.5 -41.5l-17 -101q-11 -68 -26 -152t-38 -179t-55.5 -198t-79.5 -210q-2 -3 -3.5 -6.5t-3.5 -8.5q-6 -13 -14.5 -27.5t-20.5 -26.5t-28 -20t-38 -8q-8 0 -20 2t-30 9 q0 22 -6.5 32t-13.5 19q-11 14 -20.5 29.5t-8.5 38.5q25 83 46.5 163.5t40.5 161t35.5 162t32.5 166.5q5 23 8 42t5 36q7 47 15 78.5t31 58.5zM243 818q-15 -19 -22 -47.5t-14 -69.5q-2 -17 -5 -37t-8 -43q-32 -164 -68 -324t-87 -327q0 -11 6 -20t14 -18q9 -11 17 -22.5 t11 -22.5q4 -1 11 -1q13 0 23 6t18 15t13.5 19.5t10.5 19.5q2 5 5 10.5t5 8.5q44 101 75 201.5t53.5 193.5t37.5 176.5t26 151.5q4 25 8.5 50.5t8.5 50.5q2 22 -0.5 28t-7.5 7q-11 2 -21 6.5t-17 22.5q-1 17 -10 17q-17 0 -41 -16t-42 -36z" />
<glyph unicode="}" horiz-adv-x="582" d="M306 -107q-8 -11 -19 -17.5t-22 -11.5q-9 -7 -22.5 -13.5t-33.5 -11.5h2q-21 -8 -34.5 -9t-30.5 -1h-19q-6 0 -10 2q-47 10 -77 31.5t-30 50.5q0 19 15 38t48 39l21 7q9 11 12.5 22.5t3.5 22.5t-2 23t-4 25l-4 26t-2 28q0 14 2 27.5t10 27.5q29 57 76 88.5t104 49.5 q-17 20 -23 49q-3 16 -3 36q0 29 7 58.5t16 58.5l10 39q-4 14 -3.5 22t1.5 16q1 7 0.5 12t-5.5 13l-10 7q-8 6 -13 10.5t-14 9.5q-27 1 -50 9t-39 22.5t-22 36t1 49.5l6 9q29 35 63.5 47.5t75.5 12.5q8 0 19.5 -0.5t20.5 -1.5q3 0 7 -1t6 -1q15 -3 38 -13q18 -8 37 -23 t35.5 -33.5t28.5 -38.5t16 -38l-2 4q11 -26 15.5 -50.5t4.5 -47.5q0 -38 -13 -72q-3 -10 -13 -27l1 1q-11 -22 -24 -51.5t-13 -51.5q0 -13 6 -17q9 -2 25.5 -6.5t27.5 -9.5l-2 1q23 -5 40 -16.5t17 -31.5t-29 -45q-18 -9 -34.5 -12.5t-29.5 -4.5q-26 -6 -53.5 -15.5t-51 -21 t-38.5 -26t-16 -31.5v-1q-1 -2 -1 -4v-1v-1q0 -1 1 -2l2 -3q6 -9 13.5 -27.5t13.5 -38.5t10.5 -40t4.5 -32q-1 -22 -3.5 -38t-8.5 -30.5t-15.5 -29t-25.5 -33.5zM275 -82q13 15 21 27t12.5 23.5t6.5 25t3 31.5q0 9 -3.5 23.5t-8 30t-10.5 30.5t-11 24l-8 4q-2 8 -3.5 18 t0.5 21v-1q1 27 20.5 48t48.5 37.5t63.5 27.5t65.5 19q10 0 22 3.5t24 8.5q8 6 8 10q0 2 -7 4t-17 4q-6 3 -15 5.5l-18 5t-15.5 4t-7.5 1.5q-19 10 -26.5 24.5t-7.5 31.5q0 30 14 63.5t27 57.5l5.5 11t4.5 10q11 28 11 59q0 20 -4 42.5t-14 45.5q-3 14 -12.5 29.5t-22.5 30 t-28 26t-30 17.5q-14 7 -28 9q-2 0 -5.5 1t-4.5 1q-10 1 -19 1.5t-18 0.5q-31 0 -57.5 -8.5t-46.5 -31.5l-5 -7q0 -25 25 -41t59 -18q12 -6 18 -10t10 -7t6.5 -5.5t6.5 -5.5l14 -11q14 -19 16 -31.5t1 -25.5q-1 -6 -1 -12.5t5 -20.5l-14 -51q-8 -27 -14.5 -53.5t-6.5 -52.5 q0 -5 1 -13t2 -15q5 -17 25 -35.5t50 -36.5q-80 -21 -143.5 -52.5t-92.5 -88.5q-8 -16 -8 -37q0 -11 2 -23t4 -25l4 -26t2 -28q0 -19 -3.5 -34.5t-17.5 -32.5q-1 -3 -2.5 -6.5t-3.5 -4.5l-13 -4l-7 -3l-1 1l-14 -5q-38 -23 -38 -40q0 -14 23 -25t60 -19h13q14 0 24.5 1 t27.5 7q14 4 25 9.5t19 10.5q10 5 18.5 9t13.5 11z" />
<glyph unicode="~" horiz-adv-x="464" d="M259 250q-14 2 -24.5 11.5t-21.5 21.5q-11 11 -21.5 19.5t-19.5 8.5q-7 -5 -12.5 -11t-12.5 -12q-11 -10 -22 -19.5t-22.5 -16t-24 -8t-24.5 3.5l1 -1q-9 4 -15 7t-13 10q-25 13 -35.5 33.5t-10.5 44.5q0 34 22.5 70t60.5 62l4 2q4 2 5 2q6 5 13 10t12 10q29 19 59 28 t58 -2l-2 1q23 -8 39 -21t26 -45q0 -3 1 -4q-2 3 -1 1t3 -5.5t5 -7.5t5 -7q5 -8 8.5 -13.5t8.5 -11.5q17 3 32 10l14 13l17 17q14 9 28 15t27 6q23 0 38 -15.5t15 -52.5q-2 -23 -17.5 -42.5t-32.5 -35.5q-36 -40 -64.5 -60.5t-64.5 -20.5q-11 0 -20.5 1.5t-20.5 3.5zM76 434 l3 -4l-12 -7l-8 -4q-18 -18 -28 -38t-10 -39q0 -14 7 -25t22 -19q8 -9 19 -14q8 -4 22 7.5t29 25.5q8 7 17 16t17 15q15 4 27.5 2t23 -8t19 -14t17.5 -17q8 -8 14.5 -14t10.5 -7h1q23 -5 33 -5q26 0 47.5 17t53.5 52q14 11 24.5 24.5t13.5 26.5q-2 27 -13 27q-14 0 -30 -11 l3 2l-17 -17l-20 -19q-28 -16 -68 -17q-15 14 -23 24.5t-14 21.5v-1l-12 18q-2 2 -5 15v-1q-6 19 -16 27t-24 13q-16 6 -38.5 -2t-42.5 -22l-30 -24q-5 0 -3 1l-5 -1l-4 -1h4zM76 434l-4 -3h1z" />
<glyph unicode="&#xa1;" horiz-adv-x="370" d="M30.0303 -61.9551q-4 10.999 -8 12.999q-6 4.99902 -9.99902 8.49902q-4 3.5 -4.5 8q-0.5 4.49902 3 10.999t10.499 17.499q6 10.999 13.499 23.998q7.5 13 14.499 23.999q10 14.999 18.999 29.998q9 14.999 13.999 25.998q41.998 83.9951 64.4961 151.991 q22.499 67.9961 39.498 122.992q16.999 53.9971 31.498 96.4941q14.499 42.498 40.4971 73.4961l2 1.99902q13.999 18.999 40.498 29.499q26.498 10.499 55.4961 10.499q23.999 0 46.9971 -6q22.999 -5.99902 39.998 -17.499q16.999 -11.499 25.498 -27.998 q8.5 -16.499 3.5 -38.4971l1 2.99902q-4 -39.9971 -11.499 -74.4951q-7.5 -34.498 -16.499 -65.9961q-9 -31.498 -20.499 -61.9961t-23.499 -62.4961q-8.99902 -22.999 -17.999 -46.4971q-8.99902 -23.499 -17.998 -49.4971q-7 -17.999 -18.499 -44.4971 q-11.499 -26.499 -26.999 -55.4971q-15.499 -28.998 -32.9971 -58.4961q-17.499 -29.498 -35.498 -54.4971q-17.999 -24.998 -35.998 -42.9971t-33.998 -23.999q-32.998 -13.999 -69.9951 -13.999q-36.998 0 -63.4971 16.999q-26.498 16.999 -26.498 51.9971 q0 13.999 9.99902 38.998zM67.0273 -62.9551q-5.99902 -13 -5.99902 -22.999q0 -14.999 14.999 -21.999q14.999 -6.99902 34.998 -6.99902q12.999 0 27.498 3.5q14.499 3.49902 28.498 8.49902q20.999 8 45.4971 39.998q24.499 31.998 47.4971 71.9951 q22.999 39.998 40.998 79.4951q17.998 39.498 25.998 62.4961q8.99902 25.999 17.999 50.4971q8.99902 24.499 17.999 47.4971q23.998 60.9961 42.9971 120.992q18.999 59.9971 26.998 131.992q3 11 -2.99902 19.499q-6 8.49902 -17.499 13.999q-11.5 5.5 -26.499 8.5 q-14.999 2.99902 -29.998 2.99902q-19.999 0 -38.4971 -5.99902q-18.499 -6 -25.499 -17.999l-4 -4q-20.998 -25.998 -34.9971 -65.4961q-13.999 -39.4971 -28.999 -90.4941q-16.998 -55.9971 -40.4971 -126.492q-23.499 -70.4961 -65.4961 -154.491 q-5 -12.999 -14.999 -29.498t-19.999 -30.498q-6.99902 -10.999 -14.999 -23.998q-7.99902 -12.999 -15.999 -28.998l2 -4q0 10.999 -1 11.999q3 -4 7.5 -10.499q4.49902 -6.5 7.49902 -14.499zM269.016 703.998q6.99902 24.998 21.498 43.4971t34.498 30.998 t42.9971 18.499q22.999 5.99902 45.998 5.99902q43.9971 0 79.9951 -20.498q35.9971 -20.499 46.9971 -60.4971q4.99902 -20.998 0.5 -39.9971q-4.5 -18.999 -14.999 -33.998q-10.5 -14.999 -25.999 -25.998q-15.499 -11 -32.498 -15.999q-17.999 -5 -39.9971 -8.5 q-21.999 -3.5 -44.998 -3.5q-22.998 0 -44.9971 4q-21.998 4 -38.9971 12.499q-16.999 8.5 -27.499 22.999q-10.499 14.499 -10.499 35.498q0 7.99902 2 17.499q2 9.49902 7 20.498zM306.013 690.998q-4.99902 -9.99902 -4.99902 -21.998q0 -10 6.99902 -16.499 q7 -6.5 18.499 -10.499q11.499 -4 25.998 -6q14.5 -2 30.498 -2q20.999 0 40.498 3t34.498 6.99902q20.998 6 35.498 24.499q14.499 18.499 9.49902 43.4971q-7 22.999 -32.498 36.998t-56.4961 13.999q-34.998 0 -66.4961 -16.999t-40.498 -51.9971z" />
<glyph unicode="&#xa3;" horiz-adv-x="579" d="M542 483q48 -31 48 -68q0 -27 -23.5 -50.5t-67.5 -43.5l-18 -7q-2 0 -5 -0.5t-4 -0.5l19 27q13 -35 -1.5 -53.5t-44.5 -26.5t-69 -9t-76 -1h-12l14 6q4 4 4.5 5.5t0.5 2.5l-5 -27q-6 -32 -14.5 -70t-23.5 -74q7 -1 16 -1.5t17 -0.5q22 2 46 3.5t47 1.5q36 0 70 -4.5 t63 -16.5q29 -17 41.5 -34.5t12.5 -36.5q0 -27 -26 -48.5t-68 -32.5q-14 3 -25.5 4t-21.5 1q-38 0 -77 -8t-79 -18q-44 -11 -86.5 -20t-84.5 -9q-17 0 -35 2t-36 7q-86 26 -87 84q-5 8 -7 20.5t2 25.5q5 18 16.5 29t26 18.5t29.5 11t27 6.5l9 1l-7 -1q9 4 19 6t21 4l-8 -3 l2 1q1 0 1 1q13 17 18 37q16 54 22 117h-32q-11 0 -25 0.5t-25 1.5q-29 5 -52.5 20.5t-23.5 41.5q0 12 6.5 24.5t22.5 25.5q39 17 76 30.5t75 24.5l11 2l-20 -18q12 99 38.5 193.5t87.5 177.5q18 23 41.5 44.5t47.5 35.5q31 16 67.5 24t74.5 8q35 0 69.5 -7.5t65 -23 t54.5 -39.5t38 -57v1q8 -17 11.5 -32.5t3.5 -28.5q0 -24 -9.5 -42t-25 -30t-36 -18t-41.5 -6q-31 0 -61.5 14.5t-50.5 44.5q0 -2 -8 1.5t-17 8.5h1q-5 2 -10 4.5l-9 4.5q-39 -38 -65.5 -85t-43.5 -99q14 5 28.5 9t29.5 6q32 5 62.5 -1t59.5 -16zM526 447q-23 8 -50.5 13.5 t-51.5 1.5q-24 -5 -57.5 -16t-68.5 -25q12 44 28 86.5t38.5 83t52 78t69.5 70.5q0 -26 5 -32.5t11 -8.5q16 -7 29.5 -15t17.5 -19q13 -15 32.5 -23t40.5 -8q28 0 50 13.5t22 42.5q0 9 -2.5 20t-8.5 23q-12 27 -32 46.5t-45.5 32.5t-54.5 19t-59 6q-33 0 -65 -7t-58 -21h1 q-23 -12 -42.5 -30t-34.5 -38q-57 -78 -82.5 -172t-37.5 -197l-24 -2q-71 -22 -135 -49l5 2q-15 -12 -15 -18q0 -8 14 -13.5t31 -8.5q10 -1 20.5 -1.5t20.5 -0.5q14 0 38 1t38 2q-4 -47 -10.5 -90.5t-17.5 -80.5v1q-4 -14 -9.5 -26.5t-13.5 -23.5l1 1q-3 -5 -8 -9t-10 -7 q-11 -2 -21 -4t-19 -6l-7 -1q-9 -2 -19.5 -4.5t-20 -7t-17 -10.5t-10.5 -14v1q-3 -12 7 -22q-2 -41 59 -60h-1q14 -4 29 -5.5t31 -1.5q17 0 38 2.5t42.5 6.5t42 8.5t38.5 9.5q40 11 84 19.5t82 8.5q13 0 25.5 -0.5t23.5 -2.5q23 7 37.5 17.5t14.5 21.5q0 16 -33 36 q-22 8 -52.5 12t-61.5 4q-22 0 -44.5 -1.5t-45.5 -3.5l-97 5q26 53 39 102.5t20 85.5q1 5 2.5 11t2.5 11q0 3 2.5 9.5t10.5 14.5h20q27 0 56 0.5t51.5 6.5t33.5 19t2 37h5.5t11.5 0.5t11 0.5h6l-7 -1l15 6l-1 -1q32 14 49 28.5t17 28.5q0 16 -28 34z" />
<glyph unicode="&#xa8;" horiz-adv-x="500" d="M109 585q-31 13 -43.5 32t-12.5 41q0 19 10 38.5t26 35.5t36 27.5t39 14.5q21 3 30.5 2t24.5 -4h-4q2 0 8 -2.5t8 -2.5q1 0 3 -1q4 -2 5 -3q20 -17 30 -35.5t10 -36.5t-8 -34.5t-21 -31t-30 -25t-34 -16.5q-19 -6 -30.5 -7t-26.5 2h3q-3 0 -6 1t-6 1t-6 1q-6 2 -11 7z M131 617q-2 2 -3.5 2t-3.5 1q-2 0 -4 1l15 -2q11 -2 18 -2t21 5q25 8 45 27t20 42q0 24 -18 38q-2 0 -4 2q-2 0 -3.5 0.5t-2.5 0.5q-12 2 -19 3t-21 -1h1q-14 -2 -28 -9.5t-25.5 -18t-18.5 -23.5t-7 -25q0 -10 7.5 -19.5t24.5 -17.5zM330 594q-30 16 -42.5 37.5t-12.5 45.5 q0 22 10 44t26 40.5t36 31.5t39 17q22 4 33 3t29 -7q4 -1 7 -1l9 -9l-1 1q21 -20 30 -40.5t9 -40.5t-8 -39.5t-21.5 -36t-30 -29t-33.5 -18.5q-20 -7 -31 -8t-28 3h4q-2 0 -5.5 1t-5.5 1t-5 1q-2 1 -5 1.5t-5 2.5zM350 629q-1 0 -2 0.5t-2 0.5h-3l15 -2q11 -2 17 -2t20 5 q25 8 46 32t21 53q0 14 -4 26.5t-15 21.5q-1 0 -4 3h-2q-13 5 -21 5.5t-22 -2.5t-28 -12.5t-25 -22.5t-18.5 -28t-7.5 -30q0 -13 7.5 -25t25.5 -22z" />
<glyph unicode="&#xa9;" horiz-adv-x="867" d="M850 348q-11 -116 -55 -188.5t-108 -112.5t-140 -54t-150 -14h-21.5t-21.5 1q-48 -1 -96.5 14.5t-92 40.5t-77 56t-51.5 63q-14 39 -19 75t-5 74q0 29 2.5 57.5t7.5 60.5q5 31 16 68t28.5 72t40.5 64t52 46q31 18 65 37t70 34t73.5 24.5t75.5 8.5q50 -2 96 -7t89 -17.5 t83 -34t79 -55.5q38 -38 55.5 -89t17.5 -102q0 -33 -4 -64t-10 -60v2zM810 354q6 29 10 58t4 58q0 45 -13 87t-48 74q-37 34 -73.5 54t-75.5 30.5t-81.5 14t-90.5 5.5q-33 1 -67.5 -8t-68 -23t-65.5 -32t-61 -35q-24 -14 -43 -40t-34 -57t-25 -64t-15 -61q-5 -32 -7.5 -59 t-2.5 -53q0 -66 22 -135q16 -27 46 -54t68.5 -48t81 -34t84.5 -12q11 -1 21 -1h21q67 0 136.5 12.5t127.5 49t98.5 101.5t50.5 170v2zM399 147q69 -4 127.5 25t101.5 74t67 97t24 93q0 22 -5 47.5t-14.5 49.5t-24.5 44t-36 31q-8 2 -8.5 3t-3.5 3l9 -2q-1 0 -1.5 1t-1.5 1 l19 12q-11 -28 -38.5 -37.5t-82.5 -10.5q-6 0 -12 0.5t-11 1.5q-17 2 -33.5 3.5t-28.5 -0.5q-41 -6 -82.5 -31.5t-75.5 -63.5t-56 -84t-23 -94q-6 -39 10.5 -68.5t46 -50t65.5 -31.5t68 -13zM397 107q-38 2 -80 17t-76.5 42t-55.5 64.5t-16 85.5q2 54 27.5 107t64.5 95.5 t86.5 70.5t94.5 34q14 2 33.5 0.5t37.5 -3.5q5 -1 10 -1.5t8 -0.5h-1q41 1 61 8t28 28l22 -2l15 -7q27 -14 46.5 -38.5t32 -53.5t18.5 -60t6 -57q0 -32 -12.5 -69.5t-35.5 -75t-55 -72t-72.5 -61t-87.5 -40.5t-99 -11zM675 461q1 -45 -18 -70.5t-48 -36.5q-20 -13 -46 -13 q-20 0 -44 11q-7 1 -16 5l4 -1q-8 2 -9.5 2t-6.5 2l-10 -11l-4 -12q-2 -5 -5 -11t-8 -12q0 -5 1 -13t3 -10q6 -3 15 -4t18 -1l-9 -2q-4 -2 -2 0q13 11 27.5 14t25.5 4q16 0 32 -4t28 -12.5t17.5 -23t-0.5 -36.5q-10 -17 -25.5 -29t-32.5 -18l-5 -3l1 1q-53 -30 -114 -28h1 q-36 1 -72 14t-63 37t-41 57.5t-6 74.5t29.5 76.5t50.5 64.5l-1 -1q35 38 81 59.5t94 21.5q36 0 69 -13q19 -3 36 -9t29 -16t18 -23.5t3 -31.5l-20 23q1 0 1.5 -1t1.5 -1zM628 443q5 28 -11 40.5t-39 16.5q-30 13 -61 13q-39 0 -77.5 -19t-68.5 -51q-25 -23 -42.5 -54.5 t-25.5 -64.5q-4 -29 7.5 -53.5t32.5 -42.5t48 -28t54 -11q52 -2 93 22l10 6q26 8 36 25q0 10 -13.5 14.5t-26.5 5.5q-5 -1 -12 -2t-11 -3q-3 -3 -7 -6t-11 -5q-12 0 -25.5 2t-25.5 7q-12 6 -18.5 15t-9 19.5t-1 22.5t4.5 23q5 5 7 9t4 7q1 3 3 6.5t3 6.5q7 11 17.5 22 t23.5 22q10 -5 19 -9t16 -6q1 -1 8 -1q20 -11 34 -11t28 9q20 7 32.5 23.5t11.5 47.5l9 -17zM608 218l-38 9l-2 -4h40v-5zM577 241l28 -28l-7 -8l-31 21zM505 287h-1h1z" />
<glyph unicode="&#xab;" horiz-adv-x="733" d="M263 589h-1q11 4 19.5 4.5t24.5 -3.5q13 -4 26.5 -15t23.5 -27t13.5 -36t-3.5 -41q1 -20 -9.5 -31.5t-23.5 -23.5l-11 -10q-37 -33 -74 -63t-75 -55q5 -6 16.5 -16t23.5 -21q20 -17 41.5 -39t40.5 -47q4 -22 -0.5 -35.5t-13 -21.5t-19.5 -11t-21 -4q-11 -3 -32 -2 t-46.5 7t-53 18.5t-52.5 33t-45 49.5t-29 69q0 11 4 22q2 6 3.5 13.5t-3.5 18.5q0 31 17 53.5t34 39.5q2 3 6 6.5t6 6.5l45 40q37 33 75 65t81 52zM269 549q-42 -20 -77.5 -49.5t-70.5 -61.5l-41 -37q-2 -2 -5.5 -5t-4.5 -5q-13 -13 -27 -29.5t-16 -33.5q5 -15 3 -28.5 t-5 -22.5v1q-2 -8 -2 -7q13 -49 44.5 -78.5t65.5 -44.5t62.5 -17.5t36.5 2.5q7 0 15.5 3.5t8.5 14.5q-15 20 -33.5 37.5t-35.5 32.5q-26 23 -43 42.5t-13 45.5q47 30 87.5 62.5t77.5 64.5l10 9q9 8 15 15t4 19q5 13 4 25.5t-6 22t-12.5 16t-14.5 9.5q-12 3 -21 -1l-9 -3z M613 628q13 4 22.5 5.5t26.5 -3.5q13 -3 26 -12.5t23.5 -23t17 -30.5t6.5 -36q0 -8 -0.5 -16t-3.5 -16q2 -25 -10 -50.5t-32 -45.5q-33 -29 -69 -51.5t-71 -42.5l-24.5 -14t-24.5 -15q6 -8 20 -21.5t31 -27.5q23 -20 47.5 -45t47.5 -54q3 -22 -1 -41.5t-12.5 -33.5t-20 -23 t-23.5 -10q-13 8 -24.5 10.5t-26.5 7.5q-30 8 -68.5 21t-75 36.5t-67 61t-44.5 94.5q0 8 1.5 12.5t3.5 11.5q2 8 3.5 17t-3.5 21q0 19 6 35t15.5 30t20.5 26t21 22l11 12q14 11 27.5 24t26.5 25q44 39 88 75t95 61zM617 588q-48 -23 -90 -57.5t-84 -72.5h1 q-13 -12 -26 -23.5t-27 -22.5q-3 -4 -12 -13q-15 -15 -32 -35.5t-19 -40.5q5 -17 3.5 -31t-4.5 -24q-4 -7 -4 -14q12 -47 38.5 -77.5t59 -50t66.5 -31t61 -18.5q17 -5 28 -7t19 -7q7 5 11 18t2 32q-18 23 -40.5 45.5t-42.5 39.5q-14 13 -27 25t-22 24t-13.5 24.5t-2.5 26.5 q15 10 34.5 21.5t34.5 20.5q35 20 68.5 41t65.5 49l-1 -1q30 30 27 73q4 9 5 15t1 11q0 24 -14 42t-29 22q-9 2 -14 1t-13 -3l-11 -3z" />
<glyph unicode="&#xae;" horiz-adv-x="973" d="M181 601q17 20 38.5 37.5t43.5 32.5q5 8 11.5 17t18.5 19l57 32q28 16 53.5 30t50 23.5t49.5 15t54 5.5q44 0 91 -10q62 -13 119.5 -53.5t101 -99t69.5 -130.5t26 -148q0 -17 -1.5 -33t-3.5 -32q-8 -49 -22.5 -87.5t-35.5 -71.5t-47 -61.5t-55 -58.5l-24 -25 q-16 -17 -46 -31t-63.5 -25.5t-65.5 -20t-52 -13.5q-42 -10 -92.5 -16.5t-101.5 -6.5q-59 0 -113.5 11t-92.5 39l1 -1l-28 20q-17 11 -33.5 24t-28.5 32l-22 40l-22 40q-10 18 -12.5 38.5t-4.5 42.5l-2 26q-2 25 3 52.5t13 55.5t17.5 54.5t17.5 48.5q23 57 59.5 102.5 t74.5 86.5v-1zM211 574q-35 -38 -70.5 -83t-55.5 -92q-8 -21 -17.5 -46t-17 -50.5t-12 -50.5t-2.5 -46l2 -29v2q2 -17 4.5 -34.5t8.5 -31.5q8 -15 20.5 -38.5t21.5 -38.5v1q9 -14 22.5 -24.5t27.5 -19.5l28 -21q32 -23 80.5 -32.5t102.5 -9.5q51 0 99.5 6.5t86.5 14.5h-1 q18 4 47 12t60 18t58 22.5t42 26.5q5 5 11.5 12t11.5 12q30 30 54 56.5t43 56t32 64.5t21 82q2 15 3.5 30t1.5 29q0 70 -23 136t-62 119.5t-90.5 89.5t-108.5 46q-49 10 -83 10q-26 0 -48 -4.5t-43.5 -13.5t-44.5 -21.5t-51 -28.5l-53 -30q-8 -8 -15 -16.5t-11 -15.5 q-22 -16 -42.5 -32.5t-37.5 -35.5v-1zM410 531q-37 -16 -74 -46q-26 -20 -50.5 -49.5t-43.5 -64t-30 -73t-11 -75.5q0 -27 7 -53t23 -49h-1q6 -9 16 -17t21 -16l-1 1q2 -2 5 -4.5t5 -4.5q22 -16 51 -22.5t61 -6.5q38 0 79.5 9t78.5 20l13 4l-1 -1q20 5 43.5 13.5t32.5 19.5 l30 33q17 19 30.5 35.5t23.5 35.5t17 41t10 52q1 8 1.5 17t0.5 15q0 34 -8 67t-22.5 62.5t-35 53t-45.5 40.5l11 -3q0 -1 -1 -1h-2q-9 -3 -19 -3q-11 0 -21.5 0.5t-21.5 0.5q-46 0 -88 -6t-87 -26h-4zM396 568q47 21 92 27.5t94 6.5q11 0 21.5 -0.5t21.5 -0.5q7 0 9 1t5.5 2 t14.5 1q30 -20 54.5 -48t42 -62t27 -72t9.5 -78q0 -10 -0.5 -19t-1.5 -17q-4 -36 -11.5 -61.5t-18.5 -46t-26.5 -39t-34.5 -39.5l-30 -33q-8 -9 -20.5 -16t-27 -13t-29.5 -10.5t-28 -8.5l-8 -3l2 1q-37 -11 -80 -20t-85 -9q-38 0 -72.5 8.5t-62.5 28.5l1 -1l-11 8 q-12 8 -23.5 18t-22.5 26q-19 28 -27.5 59.5t-8.5 64.5q0 42 12.5 84.5t33.5 81.5t48.5 72t56.5 56h-1q20 16 42.5 29t45.5 24zM616 241q-14 -8 -29 -13.5t-32 -10.5l12 30l8 -9l-2 2l16 -18l7 -7q9 -9 18.5 -19t16 -22.5t8 -27.5t-4.5 -33q-14 -14 -23 -19.5t-22 -10.5 q-20 -4 -39 1t-34 20l-15 15q0 1 -9.5 10.5l-20.5 20.5l51 -2l-14 -34l-15 16q-5 5 -10 10.5t-10 11.5l-14 15l35 5q-5 -13 -14.5 -23.5t-20.5 -18.5q-15 -18 -39.5 -28.5t-50.5 -10.5q-32 0 -60 16.5t-40 51.5q-2 17 -1 37t6 40q-1 10 0 24.5t4 37.5v-3q0 2 0.5 3.5 t0.5 3.5q0 5 0.5 9.5t2.5 10.5v-1q26 80 77 134h1q29 32 58 50.5t61 33.5q8 4 17.5 7.5t17.5 5.5q11 5 23.5 8.5t21.5 3.5h-3q9 1 14.5 0.5t11.5 -1.5q10 -2 17 -2q5 -1 10 -1q8 -1 14 -1.5t23 -8.5q64 -35 72 -95q5 -12 6.5 -23t1.5 -24q0 -57 -49 -119q-26 -31 -61 -48z M598 277q14 7 26 17t23 21l-1 -1q40 52 40 94q0 15 -8 37q-3 21 -16 39t-37 32h1q-7 2 -21 4h2h-8t-8 1q-5 0 -8.5 0.5t-7.5 1.5h1q-5 1 -8.5 1h-5.5q-8 0 -18.5 -3.5t-21.5 -8.5q-13 -3 -25 -9q-32 -15 -57 -31t-52 -45h1q-24 -26 -41 -55.5t-28 -63.5q-1 -3 -1 -6 q0 -2 -0.5 -5t-0.5 -5q-3 -22 -3.5 -34t0.5 -20q-9 -38 -6 -71q8 -16 25 -26t35 -10q17 0 32.5 7t26.5 20q10 6 20.5 20.5t20.5 39.5l36 -42q5 -6 9 -10.5t9 -9.5l47 -48l-51 2l14 34q-4 4 0 4q4 -9 8 -13l3 -3q6 -7 15.5 -9t19.5 0l10.5 4.5t9.5 6.5q3 16 -8.5 29t-22.5 24 l-9 9l-19 22l-22 30q29 8 47 14.5t33 14.5zM559 419q1 0 1.5 -1t1.5 -1q2 -7 -4.5 -16t-16 -17.5t-20 -15.5l-16.5 -11q-6 -5 -13 -7t-13 -4l22 -28q13 29 33 56.5t43 49.5zM567 459q6 -2 10.5 -4.5t9.5 -4.5q15 -18 11.5 -37.5t-16.5 -37.5t-30 -32t-29 -21 q-11 -6 -32 -12.5t-42 -11.5q23 53 49 93t51 63zM494 129l37 11q0 -1 1 -1.5t1 -1.5l-6 14l6 -7l-30 -26zM491 197l2 -68l15 -16l30 25zM525 154l-8 8l-31 -21q4 -8 7.5 -12.5t8.5 -6.5zM493 130l32 23q-2 3 -5 5l-23 -32z" />
<glyph unicode="&#xb0;" horiz-adv-x="464" d="M82 854q27 12 44.5 18t34.5 8q13 5 30 10.5t34 7.5q7 0 15 -0.5t15 -0.5q25 -1 51 -3t50 -13q54 -26 83.5 -67.5t29.5 -86.5q0 -37 -18 -73.5t-56 -68.5q-20 -17 -48 -28t-58.5 -17t-60.5 -8t-54 -1q-20 2 -40.5 4t-40.5 5q-6 1 -15 6t-19 11t-18.5 11.5t-12.5 8.5 q4 -4 6 -4q-33 23 -47 53t-14 62q0 36 14 71t37 61q7 7 12 11.5t9.5 7t9 4.5t10.5 4h-1l17 7h1zM99 818l-22 -9q-7 -2 -11 -5t-13 -12h1q-19 -20 -30 -48t-11 -56q0 -22 7 -42t25 -34q5 -1 11 -7l-3 2q6 -5 21.5 -15t25.5 -12q19 -3 39 -5t39 -4h-1q21 -1 47.5 0.5t53 7 t50.5 14t41 22.5q29 26 44.5 55.5t15.5 56.5q0 35 -22 66.5t-67 51.5q-18 8 -40.5 9.5t-45.5 2.5h1q-7 0 -13.5 0.5t-13.5 0.5q-17 -3 -32.5 -8t-26.5 -10q-17 -2 -33 -7t-38 -15h1zM252 689q-5 5 -6 9.5t-1 9.5l25 -19q-13 -4 -27.5 -5.5t-28.5 -2.5q-5 1 -11 1.5t-12 0.5 h-5q-3 -6 -4.5 -13.5t2.5 -9.5q9 -5 21 -4t21.5 7t15.5 15.5t4 20.5zM286 707q4 -22 -7 -41t-30.5 -31t-42.5 -16t-42 5q-12 8 -16.5 20.5t-3 27t8 28t15.5 24.5q3 0 11 -0.5t12 -0.5q8 0 15.5 -0.5t12.5 -1.5q12 1 27.5 4t38.5 9q0 -8 -0.5 -14.5t-4.5 -2.5z" />
<glyph unicode="&#xb4;" horiz-adv-x="321" d="M204 890q24 -2 45.5 -8.5t38 -16.5t26.5 -23t10 -28q0 -11 -5 -22t-16 -22q-2 -6 -5.5 -12t-6.5 -11q-24 -24 -43.5 -41t-36.5 -29t-32 -20.5t-30 -14.5q-21 -8 -46 -8t-44.5 11.5t-19.5 41.5q0 14 12 41l2 3q2 15 11 35t21 39.5t24 35t21 21.5t18 10.5t15 6.5 q17 8 33 11h7h1zM204 850q-10 -2 -17.5 -4.5t-12.5 -4.5q-10 -3 -23 -12l2 1q-7 -5 -17 -19t-19.5 -31t-16.5 -35t-8 -30l-8 -8q-5 -10 -5 -20q0 -8 7 -10.5t17 -2.5q8 0 16.5 2t15.5 4l-1 -1q13 6 26.5 13t28 17.5t31.5 25t37 34.5q9 14 12 24q15 12 15 21q0 14 -24.5 24 t-57.5 12h1h1z" />
<glyph unicode="&#xb7;" horiz-adv-x="235" d="M45 173q-35 16 -49.5 37t-14.5 46q0 22 11.5 44t30.5 40.5t41.5 31.5t45.5 17h-1q24 5 36 3.5t32 -7.5q3 -1 6 -1h4l3 -3q27 -21 38.5 -43t11.5 -43q0 -20 -9.5 -39.5t-24.5 -36t-34 -29t-39 -18.5q-22 -7 -34.5 -8t-31.5 3h3q-3 0 -6.5 1t-6.5 1q-2 0 -5 1q-2 1 -5 1.5 t-5 2.5zM64 208q-1 0 -2 0.5t-2 0.5h-3l16 -2q15 -2 23 -2t25 5q15 4 29 13t25.5 20t18 24.5t6.5 27.5q0 12 -6 23.5t-21 24.5l-4 3q-16 5 -25.5 6t-27.5 -3q-17 -3 -33.5 -12t-30.5 -22t-22.5 -28.5t-8.5 -30.5q0 -28 40 -47z" />
<glyph unicode="&#xb8;" horiz-adv-x="403" d="M41 -317q-15 1 -29 7t-24.5 19t-16.5 32.5t-4 46.5q6 20 11 34.5t12.5 25t20 18.5t33.5 14q28 8 45.5 4t34.5 -18q1 -2 3.5 -4t4.5 -3q3 0 6.5 0.5t8.5 -0.5h-3q77 3 95 8q-23 0 -48.5 1.5t-46.5 9.5t-34.5 24t-13.5 45q0 9 1.5 20t6.5 22q5 12 11.5 21t14.5 19 q12 20 28 34q26 21 55 21q25 0 40 -16t1 -56l-6 -8l-24 28q35 12 51 15t19 -0.5t-4 -11.5t-17.5 -17.5t-21 -20.5t-14.5 -19l-3 -6l-16 29q10 -1 20.5 -4t21.5 -6l-2 1q7 -2 13.5 -4.5t13.5 -4.5l17 -5q20 -7 37 -13.5t29 -17.5t19 -28t8 -44q3 -27 -8 -51t-29.5 -44.5 t-42 -37t-44.5 -29.5q-32 -17 -78 -27t-91 -10q-18 0 -35 1.5t-31 6.5zM48 -278q21 -6 54 -6q39 0 79.5 8.5t69.5 24.5v-1q18 10 37 23.5t35 29t25.5 32.5t6.5 35q-1 19 -6 31t-14 19.5t-21 12.5t-27 10h1l-12 4l1 -1l-14 4l-14 4q-17 5 -31.5 9.5t-23 8t-7 5t18.5 0.5 l-7 18q-4 -4 -14.5 -9.5t-13.5 -8t7.5 0.5t49.5 15l-22 25l10 11q5 17 -3 17q-17 0 -30 -12q-11 -11 -21 -27q-7 -8 -11 -14.5t-9 -14.5l-4 -16t-2 -13q0 -15 12 -23.5t30.5 -12.5t40 -4h39.5q24 -14 29 -28.5t-9.5 -27t-48 -21t-87.5 -11.5q-2 0 -7.5 -1t-11.5 -2 q-8 5 -14 10t-11 10l2 -2q-11 8 -19 11t-25 -3q-14 -4 -21.5 -9t-12.5 -12t-8 -16.5t-7 -22.5q-2 -31 10 -44.5t26 -14.5z" />
<glyph unicode="&#xba;" horiz-adv-x="323" d="M132 835q19 13 32.5 19.5t24.5 10.5l-3 -2q11 6 23.5 12t27.5 11h20q17 0 34 -1.5t32 -15.5q37 -36 37 -97q0 -46 -24.5 -101t-65.5 -102q-17 -18 -38 -30.5t-42.5 -20t-41 -10.5t-34.5 -3h1q-2 0 -4 0.5t-4 0.5q-5 1 -1 -0.5t4.5 -2t-9 1t-42.5 9.5q-7 2 -15 13t-13 19 q-2 4 -5 7q-7 11 -9.5 25t-2.5 28q0 22 6.5 47.5t17 51.5t23.5 50t27 42q11 14 17.5 19.5t12.5 9.5q1 1 5.5 4t8 5.5t4 2.5t-5.5 -5zM156 803q-5 -5 -9.5 -7t-6.5 -4q-5 -3 -8.5 -6t-11.5 -13q-13 -16 -25 -37t-21 -43.5t-14.5 -45t-5.5 -41.5q0 -9 1.5 -17.5t4.5 -13.5 l5 -7q2 -3 3.5 -6t3.5 -5l4 -6h-2q10 -2 19 -2.5t20 -2.5l2 -1q12 0 28 2.5t33 8.5t33.5 16t30.5 25q39 42 59.5 88.5t20.5 86.5q0 45 -25 69v-1q-6 5 -16.5 5.5t-21.5 0.5h-15q-11 -4 -21.5 -9t-18.5 -10q-8 -3 -19 -8.5t-29 -17.5zM194 689q-2 -11 -7 -22.5t-11 -20.5 t-12 -13t-9 0q-2 2 2.5 11t10.5 19h1q6 0 10 -2q11 2 22.5 4.5t21.5 7.5l-27 27q-4 -8 -2.5 -15.5t6.5 -12.5zM234 683q-4 -23 -18 -42.5t-31.5 -31t-34 -13t-26.5 10.5h1q-6 7 -6 19t4 25.5t11 27.5t15 25q2 0 10 -0.5t10 -0.5q4 0 7.5 0.5t5.5 -0.5q7 1 23 7.5t54 25.5 q-11 -21 -19.5 -30.5t-11.5 -5.5z" />
<glyph unicode="&#xbb;" horiz-adv-x="770" d="M223 321l-4 4q-12 13 -24 24.5t-25 22.5q-19 17 -38.5 35t-36.5 38q-17 27 -17 57q0 24 10 44q8 30 42 67l11 8q2 2 5.5 4t6.5 4q4 3 8 5q25 12 47 12q27 0 47.5 -14t37.5 -37l11 -13l-1 1q15 -18 42 -49t51 -66.5t39 -69.5t7 -58v1q-2 -5 -4.5 -10t-4.5 -10l-2 -4 q1 -14 0 -32.5t-4 -36.5q-9 -23 -17 -35t-25 -26q-24 -13 -47.5 -20t-48.5 -13l-8 -2h4q-27 -6 -60 -18t-65 -24q-42 -17 -86.5 -32t-94.5 -18l-7 33l1 -1q-4 14 -6.5 29t4.5 28v-1l12 24l-1 -3l6 12q15 24 42 44t58 36.5t62 29.5t52 21l22 9h-1zM405 200q14 23 36 41 t45.5 32.5t46 24.5t36.5 16l-1 1q-21 20 -43 40q-16 14 -32 29t-35 38q-8 11 -10.5 22.5t-2.5 24.5q0 24 10 43l-1 -5q4 14 12.5 29.5t22.5 30.5l13 9q5 3 8.5 5.5t9.5 5.5q10 4 21 7t19 3q24 0 42.5 -12.5t32.5 -32.5l5 -7q8 -10 22 -26t29.5 -35.5t31 -41t26.5 -42.5 t16 -39.5t0 -31.5v1l-10 -22q3 -26 -3 -59q-4 -10 -7.5 -17t-8 -13t-10 -11.5t-13.5 -12.5q-21 -11 -41.5 -17t-40.5 -11l-8 -2l5 1q-18 -5 -41.5 -15.5t-43.5 -21.5q-18 -10 -34.5 -18t-31.5 -11.5t-28.5 0.5t-25.5 18q-1 3 -8 8q-13 8 -22 18t-2 27q3 6 7.5 14.5t6.5 14.5 zM235 283l-18 -8h1q-20 -8 -48.5 -19t-57 -25t-52.5 -30t-35 -34l-6 -13l-12 -25q-2 -2 0 -10t4 -17q28 5 63 18.5t72 27.5q34 13 67 25t66 19l5 1q20 5 39 10.5t41 17.5q8 8 13 14.5t10 20.5q4 17 4 32.5t-2 30.5l8 19q2 5 4.5 10.5t2.5 2.5q5 15 -9.5 43t-37 59t-47 59.5 t-38.5 44.5l-11 14q-12 14 -25.5 24.5t-27.5 10.5t-29 -8l-6 -4q-2 -2 -5 -3.5t-5 -3.5l-10 -7q-11 -13 -18 -26t-10 -23q-7 -13 -7 -29q0 -18 9 -34q16 -19 33 -34.5t36 -31.5q15 -14 30 -27t23 -22h-1l46 -46zM586 278l1 1q-13 -5 -33 -14t-41 -20.5t-40 -26t-30 -31.5 q-3 -7 -7.5 -15t-6.5 -15q2 5 4 4.5t4 -2.5v1q8 -5 13.5 -9t8.5 -12q7 -3 25 5.5t41 20.5q20 11 43.5 22t51.5 17l6 2q17 4 33 9t35 15q5 5 9.5 11t8.5 17q2 14 2.5 28.5t-2.5 30.5l7 8l4 5l-4 -4l9 17q4 11 -9 34.5t-32.5 50t-41 51.5t-34.5 40l-8 9q-10 13 -20.5 21 t-22.5 8q-8 0 -26 -8q-1 -1 -5 -3.5t-6 -3.5h1l-8 -6q-19 -24 -26 -46q-5 -9 -5 -21q0 -15 8 -27l-2 2q14 -17 29.5 -31t30.5 -28q22 -20 45 -42l44 -44zM719 326v-1v1z" />
<glyph unicode="&#xbf;" horiz-adv-x="570" d="M-22.9609 128.033q-4.99902 44.9971 15.999 84.9951q20.999 39.9971 55.4971 75.9951t76.9951 67.4961t81.4951 57.4961q14.999 10.999 30.498 21.499q15.499 10.499 27.998 20.498q12.5 10 20.999 17.499q8.5 7.5 11.499 12.5q3 20.998 15.999 36.4971 q13 15.499 31.498 26.499q18.499 10.999 40.498 16.499q21.999 5.49902 41.9971 5.49902q19.999 0 37.498 -5.99902q17.499 -6 28.498 -16.999q12.999 -28.998 12.999 -51.9971q0 -29.998 -13.999 -60.9961t-36.998 -61.9961q-22.998 -30.998 -50.9961 -61.4971 q-27.999 -30.498 -56.9971 -59.4961q-19.999 -19.999 -39.4971 -40.4971q-19.499 -20.499 -35.498 -39.498q8.99902 5 17.999 8.5q8.99902 3.49902 18.999 7.49902l17.998 7l8 4q5 2.99902 11.499 6.49902q6.5 3.5 23.499 8.5q16.999 4.99902 31.498 6.49902t27.498 1.5 q39.998 0 66.9961 -18.499t43.9971 -65.4961q7 -26.998 0 -55.4961q-6.99902 -28.498 -21.498 -54.4971q-14.5 -25.998 -33.498 -46.9971q-18.999 -20.999 -36.998 -31.998q-50.9971 -28.998 -116.993 -46.9971t-128.992 -17.999q-67.9951 0 -124.992 20.999 q-56.9961 20.999 -85.9941 68.9961v-1q-13 19.998 -10.5 41.9971t7.5 41.9971l3.99902 29.998q-0.999023 3 -4.99902 9q-4 7.99902 -7 15.999q-3 7.99902 -4 15.999zM17.0371 132.033q1 -5 3 -10q2 -4.99902 4 -9.99902v1q3.99902 -8 6.99902 -15.499q3 -7.5 3 -15.499 q0 -17.999 -1.5 -21.499t-3.5 -11.499q-4 -14.999 -5.99902 -30.498q-2 -15.499 2.99902 -23.499q22.999 -37.9971 70.4961 -54.4961t106.493 -16.499q59.9971 0 119.993 15.499t105.993 43.4971q13.999 7.99902 29.498 23.999q15.499 15.998 27.499 34.9971 q11.999 18.999 17.999 39.998q5.99902 20.999 0.999023 39.9971v-2q-13.999 33.998 -31.498 47.9971q-17.499 14 -43.4971 14q-22.998 0 -48.9971 -6h1q-14.999 -5 -20.499 -8q-5.49902 -2.99902 -10.499 -5.99902l-10.999 -5h1l-16.999 -6.99902l1 0.999023 q-15.999 -6.99902 -28.999 -12.999q-12.999 -5.99902 -27.998 -13.999q-14.999 -7.99902 -21.998 -14.499q-7 -6.49902 -12 -11.499l-40.9971 -28.998l2 49.9961q10.999 37.998 46.9971 77.9961q35.998 39.9971 77.9951 82.9941q25.998 26.999 52.4971 54.9971 q26.498 27.998 47.4971 55.4971q20.998 27.498 33.998 54.4961q12.999 26.998 12.999 50.9971q0 16.999 -5 27.998q-11.999 7 -33.998 7q-13.999 0 -29.498 -3.5t-28.498 -10.499q-12.999 -7 -21.999 -16.999q-8.99902 -10 -9.99902 -22.999q-4 -19.999 -34.998 -43.9971 q-30.998 -23.999 -73.9951 -52.9971q-35.998 -23.998 -74.9961 -51.9971q-38.9971 -27.998 -70.9951 -59.4961t-50.9971 -65.9961t-14.999 -70.4951zM361.016 695.998q24.999 47.9971 63.9961 70.4961q38.998 22.499 74.9961 22.499q38.9971 0 65.4961 -24.999 q26.498 -24.998 23.498 -67.9961q-2 -23.998 -10.999 -39.9971q-9 -15.999 -21.499 -26.498q-12.499 -10.5 -26.498 -16.499q-13.999 -6 -26.998 -9q-8 -2 -17.499 -3.5q-9.5 -1.5 -17.499 -1.5q-24.999 0 -49.9971 7q-24.999 7 -42.4971 19.999 q-17.499 12.999 -22.499 31.498t8.99902 40.4971zM396.014 676q-4.99902 -8 0.5 -14.999q5.5 -7 16.499 -12q10.999 -4.99902 25.999 -7.49902q14.999 -2.5 28.998 -2.5q4.99902 0 11.999 1t13.999 3l-1 -1q8 2 17.499 5.49902q9.49902 3.5 17.499 10 q8 6.49902 13.999 16.999q6 10.499 7 25.498q2 23.999 -12.5 36.498q-14.499 12.499 -36.4971 12.499q-25.999 0 -54.9971 -16.999t-47.9971 -53.9961z" />
<glyph unicode="&#xc0;" horiz-adv-x="564" d="M388 770q16 8 33.5 14.5t34.5 7.5q22 1 44.5 -4.5t41 -16t30 -26t11.5 -35.5q0 -14 -4 -25q12 -10 22 -25t15 -35q-8 -47 -15.5 -94t-14.5 -93q-10 -66 -20.5 -131t-24.5 -131q-4 -18 -7 -36.5t-6 -36.5l-11 -70l-7 -25q-2 -9 -3.5 -17.5t-3.5 -17.5q0 -2 -0.5 -5.5 t-0.5 -4.5q-20 -23 -46 -34t-52 -11t-50 8t-41 22q-11 8 -15 17.5t-4.5 20t2 21t4.5 20.5q2 5 2 8.5t1 8.5q2 11 2.5 21.5t1.5 21.5q-14 -8 -25 -15.5t-16 -12.5l1 1l-3 -3q-1 -1 -3 -2q-15 -9 -28 -12.5t-24 -4.5q-2 -1 -5 -1h-5q-11 -19 -24 -38t-27 -35.5t-30 -29 t-32 -17.5h1q-22 -7 -45 -7q-24 0 -45.5 8.5t-35.5 34.5q-8 10 -12 24t-4 30q0 22 5.5 48t13 50t15 42.5t10.5 26.5q33 76 72.5 155.5t86 156t99.5 146t114 126.5zM387 726q-62 -58 -114 -125t-96 -140t-81.5 -149.5t-70.5 -153.5q-3 -6 -9.5 -23t-13.5 -39t-12 -45.5 t-5 -43.5q0 -21 8 -29q9 -16 22 -22t27 -6q16 0 33 5q12 3 25 14.5t25 27t23.5 33.5t21.5 35q12 10 19 11t16 2q8 1 16 3t18 8l2 1q8 6 34 23t74 29l-2 -51q-1 -13 -1.5 -26.5t-2.5 -26.5l-5 -21q-3 -11 -4.5 -22.5t3.5 -15.5q12 -11 30 -16t37 -5q17 0 32.5 5t26.5 16 q2 8 3 15.5t3 15.5l7 25l12 74q3 19 6 37.5t7 37.5q14 66 24.5 130t20.5 130q7 45 14 91t15 91q-10 24 -50 43q10 17 14 26.5t4 14.5q0 10 -8 18.5t-20 13.5t-27 7.5t-30 2.5q-13 -1 -26.5 -6.5t-27.5 -11.5zM312 195q-2 0 -2 3l-79 -3l33 81q10 23 17.5 43t12.5 34 q3 9 12.5 26t21 34t24 29t22.5 10q13 -3 17 -19t3 -39.5t-6 -52t-11 -55.5t-11.5 -50t-7.5 -36l-14 -1v-2q-7 -1 -14.5 -1.5t-17.5 -0.5zM332 339q-5 -14 -13.5 -35t-18.5 -44l-10 -23h14t18 1q2 15 6 33.5t9 37.5t9.5 37t6.5 33zM372 956q-6 33 6 56t34.5 36t50 17.5 t51.5 0.5q33 -2 63.5 -21t46.5 -54q-5 -15 -6.5 -26.5t-1.5 -22.5q0 -8 0.5 -15t0.5 -15q1 -12 1.5 -27t-1.5 -27q-3 -32 -22.5 -45t-45.5 -13q-16 0 -32.5 5t-27.5 12l-5 11l4 -5q-2 2 -2 3t-2 3q-8 5 -13 15l-3 5l-6 8l3 -4q-12 14 -23.5 25.5l-25.5 25.5q-17 9 -22 14.5 t-12 14.5q-2 3 -4.5 6.5t-5.5 6.5l-1 21l7 7zM411 959l1 -5l-6 14q5 -5 6.5 -7.5t3.5 -4.5l-1 1q5 -7 9 -10.5t16 -10.5q14 -14 29.5 -30t27.5 -30l5 -6l5 -9q1 0 5 -2l8 -13v-1q12 -5 29 -5q11 0 19 4.5t9 16.5q2 13 1.5 25t-1.5 24q0 8 -0.5 16t-0.5 16q0 12 0.5 23.5 t4.5 24.5q-11 17 -30.5 26t-42.5 10q-16 3 -34 0t-33 -11.5t-23.5 -23.5t-3.5 -37z" />
<glyph unicode="&#xc1;" horiz-adv-x="564" d="M388 770q16 8 33.5 14.5t34.5 7.5q22 1 44.5 -4.5t41 -16t30 -26t11.5 -35.5q0 -14 -4 -25q12 -10 22 -25t15 -35q-8 -47 -15.5 -94t-14.5 -93q-10 -66 -20.5 -131t-24.5 -131q-4 -18 -7 -36.5t-6 -36.5l-11 -70l-7 -25q-2 -9 -3.5 -17.5t-3.5 -17.5q0 -2 -0.5 -5.5 t-0.5 -4.5q-20 -23 -46 -34t-52 -11t-50 8t-41 22q-11 8 -15 17.5t-4.5 20t2 21t4.5 20.5q2 5 2 8.5t1 8.5q2 11 2.5 21.5t1.5 21.5q-14 -8 -25 -15.5t-16 -12.5l1 1l-3 -3q-1 -1 -3 -2q-15 -9 -28 -12.5t-24 -4.5q-2 -1 -5 -1h-5q-11 -19 -24 -38t-27 -35.5t-30 -29 t-32 -17.5h1q-22 -7 -45 -7q-24 0 -45.5 8.5t-35.5 34.5q-8 10 -12 24t-4 30q0 22 5.5 48t13 50t15 42.5t10.5 26.5q33 76 72.5 155.5t86 156t99.5 146t114 126.5zM387 726q-62 -58 -114 -125t-96 -140t-81.5 -149.5t-70.5 -153.5q-3 -6 -9.5 -23t-13.5 -39t-12 -45.5 t-5 -43.5q0 -21 8 -29q9 -16 22 -22t27 -6q16 0 33 5q12 3 25 14.5t25 27t23.5 33.5t21.5 35q12 10 19 11t16 2q8 1 16 3t18 8l2 1q8 6 34 23t74 29l-2 -51q-1 -13 -1.5 -26.5t-2.5 -26.5l-5 -21q-3 -11 -4.5 -22.5t3.5 -15.5q12 -11 30 -16t37 -5q17 0 32.5 5t26.5 16 q2 8 3 15.5t3 15.5l7 25l12 74q3 19 6 37.5t7 37.5q14 66 24.5 130t20.5 130q7 45 14 91t15 91q-10 24 -50 43q10 17 14 26.5t4 14.5q0 10 -8 18.5t-20 13.5t-27 7.5t-30 2.5q-13 -1 -26.5 -6.5t-27.5 -11.5zM312 195q-2 0 -2 3l-79 -3l33 81q10 23 17.5 43t12.5 34 q3 9 12.5 26t21 34t24 29t22.5 10q13 -3 17 -19t3 -39.5t-6 -52t-11 -55.5t-11.5 -50t-7.5 -36l-14 -1v-2q-7 -1 -14.5 -1.5t-17.5 -0.5zM332 339q-5 -14 -13.5 -35t-18.5 -44l-10 -23h14t18 1q2 15 6 33.5t9 37.5t9.5 37t6.5 33zM567 1093q24 -2 45.5 -8.5t38 -16.5 t26.5 -23t10 -28q0 -11 -5 -22t-16 -22q-2 -6 -5.5 -12t-6.5 -11q-24 -24 -43.5 -41t-36.5 -29t-32 -20.5t-30 -14.5q-21 -8 -46 -8t-44.5 11.5t-19.5 41.5q0 14 12 41l2 3q2 15 11 35t21 39.5t24 35t21 21.5t18 10.5t15 6.5q17 8 33 11h7h1zM567 1053q-10 -2 -17.5 -4.5 t-12.5 -4.5q-10 -3 -23 -12l2 1q-7 -5 -17 -19t-19.5 -31t-16.5 -35t-8 -30l-8 -8q-5 -10 -5 -20q0 -8 7 -10.5t17 -2.5q8 0 16.5 2t15.5 4l-1 -1q13 6 26.5 13t28 17.5t31.5 25t37 34.5q9 14 12 24q15 12 15 21q0 14 -24.5 24t-57.5 12h1h1z" />
<glyph unicode="&#xc2;" horiz-adv-x="564" d="M388 770q16 8 33.5 14.5t34.5 7.5q22 1 44.5 -4.5t41 -16t30 -26t11.5 -35.5q0 -14 -4 -25q12 -10 22 -25t15 -35q-8 -47 -15.5 -94t-14.5 -93q-10 -66 -20.5 -131t-24.5 -131q-4 -18 -7 -36.5t-6 -36.5l-11 -70l-7 -25q-2 -9 -3.5 -17.5t-3.5 -17.5q0 -2 -0.5 -5.5 t-0.5 -4.5q-20 -23 -46 -34t-52 -11t-50 8t-41 22q-11 8 -15 17.5t-4.5 20t2 21t4.5 20.5q2 5 2 8.5t1 8.5q2 11 2.5 21.5t1.5 21.5q-14 -8 -25 -15.5t-16 -12.5l1 1l-3 -3q-1 -1 -3 -2q-15 -9 -28 -12.5t-24 -4.5q-2 -1 -5 -1h-5q-11 -19 -24 -38t-27 -35.5t-30 -29 t-32 -17.5h1q-22 -7 -45 -7q-24 0 -45.5 8.5t-35.5 34.5q-8 10 -12 24t-4 30q0 22 5.5 48t13 50t15 42.5t10.5 26.5q33 76 72.5 155.5t86 156t99.5 146t114 126.5zM387 726q-62 -58 -114 -125t-96 -140t-81.5 -149.5t-70.5 -153.5q-3 -6 -9.5 -23t-13.5 -39t-12 -45.5 t-5 -43.5q0 -21 8 -29q9 -16 22 -22t27 -6q16 0 33 5q12 3 25 14.5t25 27t23.5 33.5t21.5 35q12 10 19 11t16 2q8 1 16 3t18 8l2 1q8 6 34 23t74 29l-2 -51q-1 -13 -1.5 -26.5t-2.5 -26.5l-5 -21q-3 -11 -4.5 -22.5t3.5 -15.5q12 -11 30 -16t37 -5q17 0 32.5 5t26.5 16 q2 8 3 15.5t3 15.5l7 25l12 74q3 19 6 37.5t7 37.5q14 66 24.5 130t20.5 130q7 45 14 91t15 91q-10 24 -50 43q10 17 14 26.5t4 14.5q0 10 -8 18.5t-20 13.5t-27 7.5t-30 2.5q-13 -1 -26.5 -6.5t-27.5 -11.5zM312 195q-2 0 -2 3l-79 -3l33 81q10 23 17.5 43t12.5 34 q3 9 12.5 26t21 34t24 29t22.5 10q13 -3 17 -19t3 -39.5t-6 -52t-11 -55.5t-11.5 -50t-7.5 -36l-14 -1v-2q-7 -1 -14.5 -1.5t-17.5 -0.5zM332 339q-5 -14 -13.5 -35t-18.5 -44l-10 -23h14t18 1q2 15 6 33.5t9 37.5t9.5 37t6.5 33zM500 807q-46 -37 -91 -48q-26 -8 -45 -8 q-26 0 -42 11.5t-16 36.5q0 20 19 53q26 31 49.5 58.5t47 53t49 50.5t55.5 53l14 14q13 12 27.5 25t31.5 19l-1 -1q16 7 30.5 11t26.5 4q25 0 46 -22q9 -37 -19 -69q7 -26 9.5 -54t2.5 -54q5 -14 8 -30.5t3 -32.5q0 -27 -13 -52t-51 -41q-26 -9 -47.5 -7t-33.5 30q0 16 5 31 q-3 15 -11 29q-24 -30 -53 -59zM474 837q18 18 41 45.5t47 58.5l21 -42q7 -12 13.5 -25.5t8.5 -32.5q0 -2 -0.5 -5.5t-0.5 -5.5q-4 -7 -4 -14q10 -2 27 6l-1 -1q23 10 31 25t8 31q0 14 -3.5 28.5t-7.5 27.5q0 29 -3.5 61.5t-12.5 69.5q1 0 2 1q3 3 3 2q19 19 21 31 q-2 1 -9 1q-8 0 -18.5 -3.5t-23.5 -8.5q-11 -5 -20.5 -13.5t-20.5 -18.5l-21 -19l1 1q-54 -51 -101 -102.5t-95 -107.5q-10 -17 -10 -28q0 -4 5 -6t13 -2q14 0 40 9q33 7 70 37zM565 838l-1 -4q1 1 1 3v1z" />
<glyph unicode="&#xc3;" horiz-adv-x="564" d="M388 770q16 8 33.5 14.5t34.5 7.5q22 1 44.5 -4.5t41 -16t30 -26t11.5 -35.5q0 -14 -4 -25q12 -10 22 -25t15 -35q-8 -47 -15.5 -94t-14.5 -93q-10 -66 -20.5 -131t-24.5 -131q-4 -18 -7 -36.5t-6 -36.5l-11 -70l-7 -25q-2 -9 -3.5 -17.5t-3.5 -17.5q0 -2 -0.5 -5.5 t-0.5 -4.5q-20 -23 -46 -34t-52 -11t-50 8t-41 22q-11 8 -15 17.5t-4.5 20t2 21t4.5 20.5q2 5 2 8.5t1 8.5q2 11 2.5 21.5t1.5 21.5q-14 -8 -25 -15.5t-16 -12.5l1 1l-3 -3q-1 -1 -3 -2q-15 -9 -28 -12.5t-24 -4.5q-2 -1 -5 -1h-5q-11 -19 -24 -38t-27 -35.5t-30 -29 t-32 -17.5h1q-22 -7 -45 -7q-24 0 -45.5 8.5t-35.5 34.5q-8 10 -12 24t-4 30q0 22 5.5 48t13 50t15 42.5t10.5 26.5q33 76 72.5 155.5t86 156t99.5 146t114 126.5zM387 726q-62 -58 -114 -125t-96 -140t-81.5 -149.5t-70.5 -153.5q-3 -6 -9.5 -23t-13.5 -39t-12 -45.5 t-5 -43.5q0 -21 8 -29q9 -16 22 -22t27 -6q16 0 33 5q12 3 25 14.5t25 27t23.5 33.5t21.5 35q12 10 19 11t16 2q8 1 16 3t18 8l2 1q8 6 34 23t74 29l-2 -51q-1 -13 -1.5 -26.5t-2.5 -26.5l-5 -21q-3 -11 -4.5 -22.5t3.5 -15.5q12 -11 30 -16t37 -5q17 0 32.5 5t26.5 16 q2 8 3 15.5t3 15.5l7 25l12 74q3 19 6 37.5t7 37.5q14 66 24.5 130t20.5 130q7 45 14 91t15 91q-10 24 -50 43q10 17 14 26.5t4 14.5q0 10 -8 18.5t-20 13.5t-27 7.5t-30 2.5q-13 -1 -26.5 -6.5t-27.5 -11.5zM312 195q-2 0 -2 3l-79 -3l33 81q10 23 17.5 43t12.5 34 q3 9 12.5 26t21 34t24 29t22.5 10q13 -3 17 -19t3 -39.5t-6 -52t-11 -55.5t-11.5 -50t-7.5 -36l-14 -1v-2q-7 -1 -14.5 -1.5t-17.5 -0.5zM332 339q-5 -14 -13.5 -35t-18.5 -44l-10 -23h14t18 1q2 15 6 33.5t9 37.5t9.5 37t6.5 33zM382 949q6 5 12 9l12 8q2 1 3 1l20 14 q28 17 54 25.5t48 -0.5h-2q18 -6 30 -18t17 -42l-2 3l2 -6q0 -1 0.5 -1t0.5 -1v1l5 -11q1 -6 5 -13q9 1 20 6q8 7 17 15t17 13q24 16 46 16q21 0 32.5 -14t3.5 -47q-5 -20 -20 -35.5t-32 -28.5q-17 -16 -30.5 -27t-24.5 -18t-22 -10t-24 -3q-14 0 -36 6h-1q-17 4 -33 19 q-8 6 -16 13t-15 5l-24 -19q-21 -17 -43 -29.5t-42 -4.5q-11 6 -21 14q-13 9 -21 22.5t-8 27.5q0 25 19.5 54.5t51.5 54.5v1h1zM401 914q-23 -18 -37 -38t-14 -37q0 -11 13 -18q5 -5 8 -6.5t5 -3.5q6 0 18.5 9t25.5 20q7 5 15 12t15 12q25 8 42.5 -2t31.5 -21q5 -5 9 -8 t9 -4q8 -2 14 -3t14 -1q16 0 32 11t45 39q13 10 23.5 21t14.5 22v-2q3 12 2 12q-9 0 -24 -10q-9 -6 -17 -13l-16 -14q-14 -6 -29.5 -10.5t-32.5 -6.5q-9 14 -15 24.5t-9 18.5l-6 12q-2 4 -4 9.5t1 11.5q-2 9 -6.5 12t-12.5 6q-12 5 -29 -1.5t-37 -18.5l2 1l-29 -21h-2l-9 -6 l1 -2l-11 -6h-1zM577 942l-1 1v3q0 -2 0.5 -2.5t0.5 -1.5zM421 928q-1 0 -2 -1z" />
<glyph unicode="&#xc4;" horiz-adv-x="564" d="M388 770q16 8 33.5 14.5t34.5 7.5q22 1 44.5 -4.5t41 -16t30 -26t11.5 -35.5q0 -14 -4 -25q12 -10 22 -25t15 -35q-8 -47 -15.5 -94t-14.5 -93q-10 -66 -20.5 -131t-24.5 -131q-4 -18 -7 -36.5t-6 -36.5l-11 -70l-7 -25q-2 -9 -3.5 -17.5t-3.5 -17.5q0 -2 -0.5 -5.5 t-0.5 -4.5q-20 -23 -46 -34t-52 -11t-50 8t-41 22q-11 8 -15 17.5t-4.5 20t2 21t4.5 20.5q2 5 2 8.5t1 8.5q2 11 2.5 21.5t1.5 21.5q-14 -8 -25 -15.5t-16 -12.5l1 1l-3 -3q-1 -1 -3 -2q-15 -9 -28 -12.5t-24 -4.5q-2 -1 -5 -1h-5q-11 -19 -24 -38t-27 -35.5t-30 -29 t-32 -17.5h1q-22 -7 -45 -7q-24 0 -45.5 8.5t-35.5 34.5q-8 10 -12 24t-4 30q0 22 5.5 48t13 50t15 42.5t10.5 26.5q33 76 72.5 155.5t86 156t99.5 146t114 126.5zM387 726q-62 -58 -114 -125t-96 -140t-81.5 -149.5t-70.5 -153.5q-3 -6 -9.5 -23t-13.5 -39t-12 -45.5 t-5 -43.5q0 -21 8 -29q9 -16 22 -22t27 -6q16 0 33 5q12 3 25 14.5t25 27t23.5 33.5t21.5 35q12 10 19 11t16 2q8 1 16 3t18 8l2 1q8 6 34 23t74 29l-2 -51q-1 -13 -1.5 -26.5t-2.5 -26.5l-5 -21q-3 -11 -4.5 -22.5t3.5 -15.5q12 -11 30 -16t37 -5q17 0 32.5 5t26.5 16 q2 8 3 15.5t3 15.5l7 25l12 74q3 19 6 37.5t7 37.5q14 66 24.5 130t20.5 130q7 45 14 91t15 91q-10 24 -50 43q10 17 14 26.5t4 14.5q0 10 -8 18.5t-20 13.5t-27 7.5t-30 2.5q-13 -1 -26.5 -6.5t-27.5 -11.5zM312 195q-2 0 -2 3l-79 -3l33 81q10 23 17.5 43t12.5 34 q3 9 12.5 26t21 34t24 29t22.5 10q13 -3 17 -19t3 -39.5t-6 -52t-11 -55.5t-11.5 -50t-7.5 -36l-14 -1v-2q-7 -1 -14.5 -1.5t-17.5 -0.5zM332 339q-5 -14 -13.5 -35t-18.5 -44l-10 -23h14t18 1q2 15 6 33.5t9 37.5t9.5 37t6.5 33zM342 782q-31 13 -43.5 32t-12.5 41 q0 19 10 38.5t26 35.5t36 27.5t39 14.5q21 3 30.5 2t24.5 -4h-4q2 0 8 -2.5t8 -2.5q1 0 3 -1q4 -2 5 -3q20 -17 30 -35.5t10 -36.5t-8 -34.5t-21 -31t-30 -25t-34 -16.5q-19 -6 -30.5 -7t-26.5 2h3q-3 0 -6 1t-6 1t-6 1q-6 2 -11 7zM364 814q-2 2 -3.5 2t-3.5 1q-2 0 -4 1 l15 -2q11 -2 18 -2t21 5q25 8 45 27t20 42q0 24 -18 38q-2 0 -4 2q-2 0 -3.5 0.5t-2.5 0.5q-12 2 -19 3t-21 -1h1q-14 -2 -28 -9.5t-25.5 -18t-18.5 -23.5t-7 -25q0 -10 7.5 -19.5t24.5 -17.5zM563 791q-30 16 -42.5 37.5t-12.5 45.5q0 22 10 44t26 40.5t36 31.5t39 17 q22 4 33 3t29 -7q4 -1 7 -1l9 -9l-1 1q21 -20 30 -40.5t9 -40.5t-8 -39.5t-21.5 -36t-30 -29t-33.5 -18.5q-20 -7 -31 -8t-28 3h4q-2 0 -5.5 1t-5.5 1t-5 1q-2 1 -5 1.5t-5 2.5zM583 826q-1 0 -2 0.5t-2 0.5h-3l15 -2q11 -2 17 -2t20 5q25 8 46 32t21 53q0 14 -4 26.5 t-15 21.5q-1 0 -4 3h-2q-13 5 -21 5.5t-22 -2.5t-28 -12.5t-25 -22.5t-18.5 -28t-7.5 -30q0 -13 7.5 -25t25.5 -22z" />
<glyph unicode="&#xc5;" horiz-adv-x="564" d="M388 770q16 8 33.5 14.5t34.5 7.5q22 1 44.5 -4.5t41 -16t30 -26t11.5 -35.5q0 -14 -4 -25q12 -10 22 -25t15 -35q-8 -47 -15.5 -94t-14.5 -93q-10 -66 -20.5 -131t-24.5 -131q-4 -18 -7 -36.5t-6 -36.5l-11 -70l-7 -25q-2 -9 -3.5 -17.5t-3.5 -17.5q0 -2 -0.5 -5.5 t-0.5 -4.5q-20 -23 -46 -34t-52 -11t-50 8t-41 22q-11 8 -15 17.5t-4.5 20t2 21t4.5 20.5q2 5 2 8.5t1 8.5q2 11 2.5 21.5t1.5 21.5q-14 -8 -25 -15.5t-16 -12.5l1 1l-3 -3q-1 -1 -3 -2q-15 -9 -28 -12.5t-24 -4.5q-2 -1 -5 -1h-5q-11 -19 -24 -38t-27 -35.5t-30 -29 t-32 -17.5h1q-22 -7 -45 -7q-24 0 -45.5 8.5t-35.5 34.5q-8 10 -12 24t-4 30q0 22 5.5 48t13 50t15 42.5t10.5 26.5q33 76 72.5 155.5t86 156t99.5 146t114 126.5zM387 726q-62 -58 -114 -125t-96 -140t-81.5 -149.5t-70.5 -153.5q-3 -6 -9.5 -23t-13.5 -39t-12 -45.5 t-5 -43.5q0 -21 8 -29q9 -16 22 -22t27 -6q16 0 33 5q12 3 25 14.5t25 27t23.5 33.5t21.5 35q12 10 19 11t16 2q8 1 16 3t18 8l2 1q8 6 34 23t74 29l-2 -51q-1 -13 -1.5 -26.5t-2.5 -26.5l-5 -21q-3 -11 -4.5 -22.5t3.5 -15.5q12 -11 30 -16t37 -5q17 0 32.5 5t26.5 16 q2 8 3 15.5t3 15.5l7 25l12 74q3 19 6 37.5t7 37.5q14 66 24.5 130t20.5 130q7 45 14 91t15 91q-10 24 -50 43q10 17 14 26.5t4 14.5q0 10 -8 18.5t-20 13.5t-27 7.5t-30 2.5q-13 -1 -26.5 -6.5t-27.5 -11.5zM312 195q-2 0 -2 3l-79 -3l33 81q10 23 17.5 43t12.5 34 q3 9 12.5 26t21 34t24 29t22.5 10q13 -3 17 -19t3 -39.5t-6 -52t-11 -55.5t-11.5 -50t-7.5 -36l-14 -1v-2q-7 -1 -14.5 -1.5t-17.5 -0.5zM332 339q-5 -14 -13.5 -35t-18.5 -44l-10 -23h14t18 1q2 15 6 33.5t9 37.5t9.5 37t6.5 33zM344 988q27 12 44.5 18t34.5 8 q13 5 30 10.5t34 7.5q7 0 15 -0.5t15 -0.5q25 -1 51 -3t50 -13q54 -26 83.5 -67.5t29.5 -86.5q0 -37 -18 -73.5t-56 -68.5q-20 -17 -48 -28t-58.5 -17t-60.5 -8t-54 -1q-20 2 -40.5 4t-40.5 5q-11 2 -29.5 13.5t-29.5 19.5q-33 23 -47 53t-14 62q0 36 14 71t37 61 q7 7 12 11.5t9.5 7t9 4.5t10.5 4h-1l17 7h1zM361 952l-22 -9q-7 -2 -11 -5t-13 -12h1q-19 -20 -30 -48t-11 -56q0 -22 7 -42t25 -34q5 -1 11 -7l-3 2q6 -5 21.5 -15t25.5 -12q18 -3 38 -5t39 -4q21 -1 47.5 0.5t53 7t50.5 14t41 22.5q29 26 44.5 55.5t15.5 56.5 q0 35 -22 66.5t-67 51.5q-18 8 -40.5 9.5t-45.5 2.5q-7 0 -13.5 0.5t-12.5 0.5q-17 -3 -32.5 -8t-26.5 -10q-17 -2 -33 -7t-38 -15h1zM548 841q4 -22 -7 -41t-30.5 -31t-42.5 -16t-42 5q-12 8 -16.5 20.5t-3 27t8 28t15.5 24.5q3 0 11 -0.5t12 -0.5q8 0 15.5 -0.5t12.5 -1.5 h7.5h3.5t6.5 1t16.5 4q0 -4 5 -6.5t10.5 -4t9.5 -1t2 2.5zM446 794q15 -9 35 -1t26 24q-8 -1 -16 2.5t-16 3.5q-5 1 -10.5 -2.5t-11.5 -3.5h-5q-3 -6 -4.5 -13.5t2.5 -9.5zM290 711l6 -4q-2 0 -6 4z" />
<glyph unicode="&#xc6;" horiz-adv-x="845" d="M388 770q16 8 33.5 14.5t34.5 7.5q22 1 44.5 -4.5t41 -16t30 -26t11.5 -35.5q0 -14 -4 -25q12 -10 22 -25t15 -35q-8 -47 -15.5 -94t-14.5 -93q-10 -66 -20.5 -131t-24.5 -131q-4 -18 -7 -36.5t-6 -36.5l-11 -70l-7 -25q-2 -9 -3.5 -17.5t-3.5 -17.5q0 -2 -0.5 -5.5 t-0.5 -4.5q-20 -23 -46 -34t-52 -11t-50 8t-41 22q-11 8 -15 17.5t-4.5 20t2 21t4.5 20.5q2 5 2 8.5t1 8.5q2 11 2.5 21.5t1.5 21.5q-14 -8 -25 -15.5t-16 -12.5l1 1l-3 -3q-1 -1 -3 -2q-15 -9 -28 -12.5t-24 -4.5q-2 -1 -5 -1h-5q-11 -19 -24 -38t-27 -35.5t-30 -29 t-32 -17.5h1q-22 -7 -45 -7q-24 0 -45.5 8.5t-35.5 34.5q-8 10 -12 24t-4 30q0 22 5.5 48t13 50t15 42.5t10.5 26.5q33 76 72.5 155.5t86 156t99.5 146t114 126.5zM387 726q-62 -58 -114 -125t-96 -140t-81.5 -149.5t-70.5 -153.5q-3 -6 -9.5 -23t-13.5 -39t-12 -45.5 t-5 -43.5q0 -21 8 -29q9 -16 22 -22t27 -6q16 0 33 5q12 3 25 14.5t25 27t23.5 33.5t21.5 35q12 10 19 11t16 2q8 1 16 3t18 8l2 1q8 6 34 23t74 29l-2 -51q-1 -13 -1.5 -26.5t-2.5 -26.5l-5 -21q-3 -11 -4.5 -22.5t3.5 -15.5q12 -11 30 -16t37 -5q17 0 32.5 5t26.5 16 q2 8 3 15.5t3 15.5l7 25l12 74q3 19 6 37.5t7 37.5q14 66 24.5 130t20.5 130q7 45 14 91t15 91q-10 24 -50 43q10 17 14 26.5t4 14.5q0 10 -8 18.5t-20 13.5t-27 7.5t-30 2.5q-13 -1 -26.5 -6.5t-27.5 -11.5zM312 195q-2 0 -2 3l-79 -3l33 81q10 23 17.5 43t12.5 34 q3 9 12.5 26t21 34t24 29t22.5 10q13 -3 17 -19t3 -39.5t-6 -52t-11 -55.5t-11.5 -50t-7.5 -36l-14 -1v-2q-7 -1 -14.5 -1.5t-17.5 -0.5zM332 339q-5 -14 -13.5 -35t-18.5 -44l-10 -23h14t18 1q2 15 6 33.5t9 37.5t9.5 37t6.5 33zM869 805q44 -1 63.5 -24t19.5 -56 q0 -23 -10 -47.5t-28 -46t-43.5 -37.5t-57.5 -20l2 1q-23 -6 -39 -11t-27.5 -10t-18.5 -12t-13 -16l-8 -13l1 1q-11 -17 -19.5 -32t-11.5 -32v1q-1 -5 0 -2t0 -2h7q10 0 23 1.5t26 3.5q10 2 21 3t20 1q26 0 38 -11t3 -42q-6 -17 -14.5 -35.5t-22 -36t-31.5 -31.5t-42 -23 q-25 -5 -38 -7.5t-5 -0.5q-10 -2 -16.5 -3.5t-22.5 -2.5q-7 -13 -16.5 -30.5t-19.5 -33.5t-17.5 -27t-10.5 -11q27 -3 46 -4.5t36 -1.5q21 0 41.5 2t50.5 6q16 -5 25 -11.5t12.5 -14t3.5 -15v-15.5q0 -3 0.5 -6.5t6.5 -5.5q13 -5 13.5 -24t-11 -42.5t-33.5 -45.5t-52 -33 q-51 -14 -90 -20t-80 -6q-26 0 -51 2t-56 5q-14 2 -32 7.5t-34 16t-26.5 27.5t-9.5 43v-1q0 79 10.5 149.5t31.5 139.5t51.5 139.5t68.5 147.5q5 11 6.5 25t2.5 28t2.5 27.5t5.5 25t11.5 20.5t21.5 14q75 29 148 49t139 20q14 0 26.5 -1t24.5 -3h-2zM867 765q-12 2 -24 3 t-23 1q-61 0 -130.5 -19t-142.5 -48q-8 -3 -10.5 -19.5t-4.5 -31.5q-1 -17 -3 -35.5t-10 -33.5q-38 -75 -67.5 -143.5t-49.5 -135.5t-30.5 -135.5t-10.5 -144.5q-1 -14 6 -23t17.5 -15t22.5 -9.5t21 -4.5q30 -3 55.5 -5t46.5 -2q39 0 74.5 5.5t77.5 16.5h-2q18 7 35.5 18 t30.5 22.5t20 20t3 10.5q-25 10 -29.5 25t-3.5 29v6t-5 5q-28 -4 -48 -5.5t-40 -1.5q-34 0 -85 6q-21 1 -20.5 23.5t11.5 52.5t26 60t24 45q16 1 25.5 1.5t15 1t8.5 1t6 1.5q14 4 22 5.5t22 4.5q32 15 52.5 43.5t28.5 54.5q-1 0 -1.5 0.5t-1.5 0.5q-6 0 -15.5 -1t-20.5 -3 q-13 -2 -25.5 -3.5t-28.5 -1.5q-10 0 -22.5 2.5t-30.5 10.5l6 37q5 23 15 40.5t21 36.5l11 17l-1 -2q8 13 18 22.5t24 16.5t34.5 13t49.5 14q23 3 42 14.5t32 27.5t20 33.5t7 34.5t-10 28t-33 12h-2z" />
<glyph unicode="&#xc7;" horiz-adv-x="573" d="M458 -14q-43 -27 -99 -45.5t-113 -18.5q-13 0 -26.5 1t-24.5 3q-37 7 -70.5 20t-59.5 37t-44 61t-23 93v-1q-2 17 -3 34t-1 34q0 94 31.5 183t79 162t103.5 124.5t106 72.5q36 18 77.5 28t83.5 10q11 0 19.5 -0.5t17.5 -1.5q86 -11 129 -59.5t43 -122.5q0 -56 -27 -122h1 q-9 -23 -26.5 -40.5t-38.5 -29t-43.5 -17t-43.5 -5.5q-44 0 -63.5 21t-19.5 56q0 17 6 38q0 7 -1 7q-4 0 -10 -2l-12 -4h-1l-10 -4q-9 -5 -17.5 -10.5t-18.5 -14.5t-22.5 -23t-28.5 -37q-22 -30 -36 -60.5t-21.5 -58t-9.5 -49.5t0 -36q5 -27 22.5 -39.5t31.5 -11.5 q16 1 26.5 6t20.5 12q13 8 27 14.5t36 6.5q10 0 22 -1.5t26 -6.5q18 -5 26.5 -13.5t11.5 -18.5t2 -21t-2 -21q-2 -6 -0.5 -11t11.5 -7q15 -17 15.5 -32t-7 -28t-20.5 -24.5t-26 -21.5l2 2l-5 -4zM440 23q12 9 24.5 19t14.5 18q-14 3 -21 9t-9 14.5t-1 18t3 19.5q2 8 0 17 t-10 13q-20 6 -36 6q-14 0 -23.5 -5t-18.5 -10h1q-13 -9 -27.5 -16t-39.5 -8q-12 0 -27 4.5t-29 15t-25 27t-15 38.5q-2 16 0.5 42t11.5 57.5t24.5 66.5t38.5 68q17 23 30 38.5t24.5 25.5t21 16.5t19.5 12.5l7 5l15 5h-1q8 3 17.5 5.5t18.5 2.5q17 0 28 -11t13 -41 q-6 -20 -6 -33q0 -17 10 -27t33 -10q15 0 32 4t33 12.5t29 21.5t20 30q24 60 24 106q0 58 -34 96t-103 46h1q-9 1 -17 1.5t-16 0.5q-38 0 -75 -9.5t-71 -26.5q-46 -18 -98 -65.5t-95.5 -115.5t-72.5 -151t-29 -172q0 -15 1 -30.5t3 -32.5q4 -46 19 -77t36.5 -50.5 t49.5 -30.5t60 -17q20 -4 43 -4q51 0 101.5 17t88.5 41l-1 -1zM70 -378q-15 1 -29 7t-24.5 19t-16.5 32.5t-4 46.5q6 20 11 34.5t12.5 25t20 18.5t33.5 14q28 8 45.5 4t34.5 -18q1 -2 3.5 -4t4.5 -3q3 0 6.5 0.5t8.5 -0.5h-3q77 3 95 8q-23 0 -48.5 1.5t-46.5 9.5t-34.5 24 t-13.5 45q0 9 1.5 20t6.5 22q5 12 11.5 21t14.5 19q12 20 28 34q26 21 55 21q25 0 40 -16t1 -56l-6 -8l-24 28q35 12 51 15t19 -0.5t-4 -11.5t-17.5 -17.5t-21 -20.5t-14.5 -19l-3 -6l-16 29q10 -1 20.5 -4t21.5 -6l-2 1q7 -2 13.5 -4.5t13.5 -4.5l17 -5q20 -7 37 -13.5 t29 -17.5t19 -28t8 -44q3 -27 -8 -51t-29.5 -44.5t-42 -37t-44.5 -29.5q-32 -17 -78 -27t-91 -10q-18 0 -35 1.5t-31 6.5zM77 -339q21 -6 54 -6q39 0 79.5 8.5t69.5 24.5v-1q18 10 37 23.5t35 29t25.5 32.5t6.5 35q-1 19 -6 31t-14 19.5t-21 12.5t-27 10h1l-12 4l1 -1l-14 4 l-14 4q-17 5 -31.5 9.5t-23 8t-7 5t18.5 0.5l-7 18q-4 -4 -14.5 -9.5t-13.5 -8t7.5 0.5t49.5 15l-22 25l10 11q5 17 -3 17q-17 0 -30 -12q-11 -11 -21 -27q-7 -8 -11 -14.5t-9 -14.5l-4 -16t-2 -13q0 -15 12 -23.5t30.5 -12.5t40 -4h39.5q24 -14 29 -28.5t-9.5 -27t-48 -21 t-87.5 -11.5q-2 0 -7.5 -1t-11.5 -2q-8 5 -14 10t-11 10l2 -2q-11 8 -19 11t-25 -3q-14 -4 -21.5 -9t-12.5 -12t-8 -16.5t-7 -22.5q-2 -31 10 -44.5t26 -14.5z" />
<glyph unicode="&#xc8;" horiz-adv-x="524" d="M535 790q44 -1 63.5 -24t19.5 -56q0 -23 -10 -47.5t-28 -46t-43.5 -37.5t-57.5 -20l2 1q-23 -6 -39 -11t-27.5 -10t-18.5 -12t-13 -16l-8 -13l1 1q-11 -17 -19.5 -32t-11.5 -32v1q-1 -5 0 -2t0 -2h7q10 0 23 1.5t26 3.5q10 2 21 3t20 1q26 0 38 -11t3 -42 q-6 -17 -14.5 -35.5t-22 -36t-31.5 -31.5t-42 -23q-25 -5 -38 -7.5t-5 -0.5q-10 -2 -16.5 -3.5t-22.5 -2.5q-7 -13 -16.5 -30.5t-19.5 -33.5t-17.5 -27t-10.5 -11q27 -3 46 -4.5t36 -1.5q21 0 41.5 2t50.5 6q16 -5 25 -11.5t12.5 -14t3.5 -15v-15.5q0 -3 0.5 -6.5t6.5 -5.5 q13 -5 13.5 -24t-11 -42.5t-33.5 -45.5t-52 -33q-51 -14 -90 -20t-80 -6q-26 0 -51 2t-56 5q-14 2 -32 7.5t-34 16t-26.5 27.5t-9.5 43v-1q0 79 10.5 149.5t31.5 139.5t51.5 139.5t68.5 147.5q5 11 6.5 25t2.5 28t2.5 27.5t5.5 25t11.5 20.5t21.5 14q75 29 148 49t139 20 q14 0 26.5 -1t24.5 -3h-2zM533 750q-12 2 -24 3t-23 1q-61 0 -130.5 -19t-142.5 -48q-8 -3 -10.5 -19.5t-4.5 -31.5q-1 -17 -3 -35.5t-10 -33.5q-38 -75 -67.5 -143.5t-49.5 -135.5t-30.5 -135.5t-10.5 -144.5q-1 -14 6 -23t17.5 -15t22.5 -9.5t21 -4.5q30 -3 55.5 -5 t46.5 -2q39 0 74.5 5.5t77.5 16.5h-2q18 7 35.5 18t30.5 22.5t20 20t3 10.5q-25 10 -29.5 25t-3.5 29v6t-5 5q-28 -4 -48 -5.5t-40 -1.5q-34 0 -85 6q-21 1 -20.5 23.5t11.5 52.5t26 60t24 45q16 1 25.5 1.5t15 1t8.5 1t6 1.5q14 4 22 5.5t22 4.5q32 15 52.5 43.5t28.5 54.5 q-1 0 -1.5 0.5t-1.5 0.5q-6 0 -15.5 -1t-20.5 -3q-13 -2 -25.5 -3.5t-28.5 -1.5q-10 0 -22.5 2.5t-30.5 10.5l6 37q5 23 15 40.5t21 36.5l11 17l-1 -2q8 13 18 22.5t24 16.5t34.5 13t49.5 14q23 3 42 14.5t32 27.5t20 33.5t7 34.5t-10 28t-33 12h-2zM291 959q-6 33 6 56 t34.5 36t50 17.5t51.5 0.5q33 -2 63.5 -21t46.5 -54q-5 -15 -6.5 -26.5t-1.5 -22.5q0 -8 0.5 -15t0.5 -15q1 -12 1.5 -27t-1.5 -27q-3 -32 -22.5 -45t-45.5 -13q-16 0 -32.5 5t-27.5 12l-5 11l4 -5q-2 2 -2 3t-2 3q-8 5 -13 15l-3 5l-6 8l3 -4q-12 14 -23.5 25.5l-25.5 25.5 q-17 9 -22 14.5t-12 14.5q-2 3 -4.5 6.5t-5.5 6.5l-1 21l7 7zM330 962l1 -5l-6 14q5 -5 6.5 -7.5t3.5 -4.5l-1 1q5 -7 9 -10.5t16 -10.5q14 -14 29.5 -30t27.5 -30l5 -6l5 -9q1 0 5 -2l8 -13v-1q12 -5 29 -5q11 0 19 4.5t9 16.5q2 13 1.5 25t-1.5 24q0 8 -0.5 16t-0.5 16 q0 12 0.5 23.5t4.5 24.5q-11 17 -30.5 26t-42.5 10q-16 3 -34 0t-33 -11.5t-23.5 -23.5t-3.5 -37z" />
<glyph unicode="&#xc9;" horiz-adv-x="524" d="M535 790q44 -1 63.5 -24t19.5 -56q0 -23 -10 -47.5t-28 -46t-43.5 -37.5t-57.5 -20l2 1q-23 -6 -39 -11t-27.5 -10t-18.5 -12t-13 -16l-8 -13l1 1q-11 -17 -19.5 -32t-11.5 -32v1q-1 -5 0 -2t0 -2h7q10 0 23 1.5t26 3.5q10 2 21 3t20 1q26 0 38 -11t3 -42 q-6 -17 -14.5 -35.5t-22 -36t-31.5 -31.5t-42 -23q-25 -5 -38 -7.5t-5 -0.5q-10 -2 -16.5 -3.5t-22.5 -2.5q-7 -13 -16.5 -30.5t-19.5 -33.5t-17.5 -27t-10.5 -11q27 -3 46 -4.5t36 -1.5q21 0 41.5 2t50.5 6q16 -5 25 -11.5t12.5 -14t3.5 -15v-15.5q0 -3 0.5 -6.5t6.5 -5.5 q13 -5 13.5 -24t-11 -42.5t-33.5 -45.5t-52 -33q-51 -14 -90 -20t-80 -6q-26 0 -51 2t-56 5q-14 2 -32 7.5t-34 16t-26.5 27.5t-9.5 43v-1q0 79 10.5 149.5t31.5 139.5t51.5 139.5t68.5 147.5q5 11 6.5 25t2.5 28t2.5 27.5t5.5 25t11.5 20.5t21.5 14q75 29 148 49t139 20 q14 0 26.5 -1t24.5 -3h-2zM533 750q-12 2 -24 3t-23 1q-61 0 -130.5 -19t-142.5 -48q-8 -3 -10.5 -19.5t-4.5 -31.5q-1 -17 -3 -35.5t-10 -33.5q-38 -75 -67.5 -143.5t-49.5 -135.5t-30.5 -135.5t-10.5 -144.5q-1 -14 6 -23t17.5 -15t22.5 -9.5t21 -4.5q30 -3 55.5 -5 t46.5 -2q39 0 74.5 5.5t77.5 16.5h-2q18 7 35.5 18t30.5 22.5t20 20t3 10.5q-25 10 -29.5 25t-3.5 29v6t-5 5q-28 -4 -48 -5.5t-40 -1.5q-34 0 -85 6q-21 1 -20.5 23.5t11.5 52.5t26 60t24 45q16 1 25.5 1.5t15 1t8.5 1t6 1.5q14 4 22 5.5t22 4.5q32 15 52.5 43.5t28.5 54.5 q-1 0 -1.5 0.5t-1.5 0.5q-6 0 -15.5 -1t-20.5 -3q-13 -2 -25.5 -3.5t-28.5 -1.5q-10 0 -22.5 2.5t-30.5 10.5l6 37q5 23 15 40.5t21 36.5l11 17l-1 -2q8 13 18 22.5t24 16.5t34.5 13t49.5 14q23 3 42 14.5t32 27.5t20 33.5t7 34.5t-10 28t-33 12h-2zM486 1078 q24 -2 45.5 -8.5t38 -16.5t26.5 -23t10 -28q0 -11 -5 -22t-16 -22q-2 -6 -5.5 -12t-6.5 -11q-24 -24 -43.5 -41t-36.5 -29t-32 -20.5t-30 -14.5q-21 -8 -46 -8t-44.5 11.5t-19.5 41.5q0 14 12 41l2 3q2 15 11 35t21 39.5t24 35t21 21.5t18 10.5t15 6.5q17 8 33 11h7h1z M486 1038q-10 -2 -17.5 -4.5t-12.5 -4.5q-10 -3 -23 -12l2 1q-7 -5 -17 -19t-19.5 -31t-16.5 -35t-8 -30l-8 -8q-5 -10 -5 -20q0 -8 7 -10.5t17 -2.5q8 0 16.5 2t15.5 4l-1 -1q13 6 26.5 13t28 17.5t31.5 25t37 34.5q9 14 12 24q15 12 15 21q0 14 -24.5 24t-57.5 12h1h1z " />
<glyph unicode="&#xca;" horiz-adv-x="524" d="M535 790q44 -1 63.5 -24t19.5 -56q0 -23 -10 -47.5t-28 -46t-43.5 -37.5t-57.5 -20l2 1q-23 -6 -39 -11t-27.5 -10t-18.5 -12t-13 -16l-8 -13l1 1q-11 -17 -19.5 -32t-11.5 -32v1q-1 -5 0 -2t0 -2h7q10 0 23 1.5t26 3.5q10 2 21 3t20 1q26 0 38 -11t3 -42 q-6 -17 -14.5 -35.5t-22 -36t-31.5 -31.5t-42 -23q-25 -5 -38 -7.5t-5 -0.5q-10 -2 -16.5 -3.5t-22.5 -2.5q-7 -13 -16.5 -30.5t-19.5 -33.5t-17.5 -27t-10.5 -11q27 -3 46 -4.5t36 -1.5q21 0 41.5 2t50.5 6q16 -5 25 -11.5t12.5 -14t3.5 -15v-15.5q0 -3 0.5 -6.5t6.5 -5.5 q13 -5 13.5 -24t-11 -42.5t-33.5 -45.5t-52 -33q-51 -14 -90 -20t-80 -6q-26 0 -51 2t-56 5q-14 2 -32 7.5t-34 16t-26.5 27.5t-9.5 43v-1q0 79 10.5 149.5t31.5 139.5t51.5 139.5t68.5 147.5q5 11 6.5 25t2.5 28t2.5 27.5t5.5 25t11.5 20.5t21.5 14q75 29 148 49t139 20 q14 0 26.5 -1t24.5 -3h-2zM533 750q-12 2 -24 3t-23 1q-61 0 -130.5 -19t-142.5 -48q-8 -3 -10.5 -19.5t-4.5 -31.5q-1 -17 -3 -35.5t-10 -33.5q-38 -75 -67.5 -143.5t-49.5 -135.5t-30.5 -135.5t-10.5 -144.5q-1 -14 6 -23t17.5 -15t22.5 -9.5t21 -4.5q30 -3 55.5 -5 t46.5 -2q39 0 74.5 5.5t77.5 16.5h-2q18 7 35.5 18t30.5 22.5t20 20t3 10.5q-25 10 -29.5 25t-3.5 29v6t-5 5q-28 -4 -48 -5.5t-40 -1.5q-34 0 -85 6q-21 1 -20.5 23.5t11.5 52.5t26 60t24 45q16 1 25.5 1.5t15 1t8.5 1t6 1.5q14 4 22 5.5t22 4.5q32 15 52.5 43.5t28.5 54.5 q-1 0 -1.5 0.5t-1.5 0.5q-6 0 -15.5 -1t-20.5 -3q-13 -2 -25.5 -3.5t-28.5 -1.5q-10 0 -22.5 2.5t-30.5 10.5l6 37q5 23 15 40.5t21 36.5l11 17l-1 -2q8 13 18 22.5t24 16.5t34.5 13t49.5 14q23 3 42 14.5t32 27.5t20 33.5t7 34.5t-10 28t-33 12h-2zM443 818 q-46 -37 -91 -48q-26 -8 -45 -8q-26 0 -42 11.5t-16 36.5q0 20 19 53q26 31 49.5 58.5t47 53t49 50.5t55.5 53l14 14q13 12 27.5 25t31.5 19l-1 -1q16 7 30.5 11t26.5 4q25 0 46 -22q9 -37 -19 -69q7 -26 9.5 -54t2.5 -54q5 -14 8 -30.5t3 -32.5q0 -27 -13 -52t-51 -41 q-26 -9 -47.5 -7t-33.5 30q0 16 5 31q-3 15 -11 29q-24 -30 -53 -59zM417 848q18 18 41 45.5t47 58.5l21 -42q7 -12 13.5 -25.5t8.5 -32.5q0 -2 -0.5 -5.5t-0.5 -5.5q-4 -7 -4 -14q10 -2 27 6l-1 -1q23 10 31 25t8 31q0 14 -3.5 28.5t-7.5 27.5q0 29 -3.5 61.5t-12.5 69.5 q1 0 2 1q3 3 3 2q19 19 21 31q-2 1 -9 1q-8 0 -18.5 -3.5t-23.5 -8.5q-11 -5 -20.5 -13.5t-20.5 -18.5l-21 -19l1 1q-54 -51 -101 -102.5t-95 -107.5q-10 -17 -10 -28q0 -4 5 -6t13 -2q14 0 40 9q33 7 70 37zM508 849l-1 -4q1 1 1 3v1z" />
<glyph unicode="&#xcb;" horiz-adv-x="524" d="M535 790q44 -1 63.5 -24t19.5 -56q0 -23 -10 -47.5t-28 -46t-43.5 -37.5t-57.5 -20l2 1q-23 -6 -39 -11t-27.5 -10t-18.5 -12t-13 -16l-8 -13l1 1q-11 -17 -19.5 -32t-11.5 -32v1q-1 -5 0 -2t0 -2h7q10 0 23 1.5t26 3.5q10 2 21 3t20 1q26 0 38 -11t3 -42 q-6 -17 -14.5 -35.5t-22 -36t-31.5 -31.5t-42 -23q-25 -5 -38 -7.5t-5 -0.5q-10 -2 -16.5 -3.5t-22.5 -2.5q-7 -13 -16.5 -30.5t-19.5 -33.5t-17.5 -27t-10.5 -11q27 -3 46 -4.5t36 -1.5q21 0 41.5 2t50.5 6q16 -5 25 -11.5t12.5 -14t3.5 -15v-15.5q0 -3 0.5 -6.5t6.5 -5.5 q13 -5 13.5 -24t-11 -42.5t-33.5 -45.5t-52 -33q-51 -14 -90 -20t-80 -6q-26 0 -51 2t-56 5q-14 2 -32 7.5t-34 16t-26.5 27.5t-9.5 43v-1q0 79 10.5 149.5t31.5 139.5t51.5 139.5t68.5 147.5q5 11 6.5 25t2.5 28t2.5 27.5t5.5 25t11.5 20.5t21.5 14q75 29 148 49t139 20 q14 0 26.5 -1t24.5 -3h-2zM533 750q-12 2 -24 3t-23 1q-61 0 -130.5 -19t-142.5 -48q-8 -3 -10.5 -19.5t-4.5 -31.5q-1 -17 -3 -35.5t-10 -33.5q-38 -75 -67.5 -143.5t-49.5 -135.5t-30.5 -135.5t-10.5 -144.5q-1 -14 6 -23t17.5 -15t22.5 -9.5t21 -4.5q30 -3 55.5 -5 t46.5 -2q39 0 74.5 5.5t77.5 16.5h-2q18 7 35.5 18t30.5 22.5t20 20t3 10.5q-25 10 -29.5 25t-3.5 29v6t-5 5q-28 -4 -48 -5.5t-40 -1.5q-34 0 -85 6q-21 1 -20.5 23.5t11.5 52.5t26 60t24 45q16 1 25.5 1.5t15 1t8.5 1t6 1.5q14 4 22 5.5t22 4.5q32 15 52.5 43.5t28.5 54.5 q-1 0 -1.5 0.5t-1.5 0.5q-6 0 -15.5 -1t-20.5 -3q-13 -2 -25.5 -3.5t-28.5 -1.5q-10 0 -22.5 2.5t-30.5 10.5l6 37q5 23 15 40.5t21 36.5l11 17l-1 -2q8 13 18 22.5t24 16.5t34.5 13t49.5 14q23 3 42 14.5t32 27.5t20 33.5t7 34.5t-10 28t-33 12h-2zM292 778 q-31 13 -43.5 32t-12.5 41q0 19 10 38.5t26 35.5t36 27.5t39 14.5q21 3 30.5 2t24.5 -4h-4q2 0 8 -2.5t8 -2.5q1 0 3 -1q4 -2 5 -3q20 -17 30 -35.5t10 -36.5t-8 -34.5t-21 -31t-30 -25t-34 -16.5q-19 -6 -30.5 -7t-26.5 2h3q-3 0 -6 1t-6 1t-6 1q-6 2 -11 7zM314 810 q-2 2 -3.5 2t-3.5 1q-2 0 -4 1l15 -2q11 -2 18 -2t21 5q25 8 45 27t20 42q0 24 -18 38q-2 0 -4 2q-2 0 -3.5 0.5t-2.5 0.5q-12 2 -19 3t-21 -1h1q-14 -2 -28 -9.5t-25.5 -18t-18.5 -23.5t-7 -25q0 -10 7.5 -19.5t24.5 -17.5zM513 787q-30 16 -42.5 37.5t-12.5 45.5 q0 22 10 44t26 40.5t36 31.5t39 17q22 4 33 3t29 -7q4 -1 7 -1l9 -9l-1 1q21 -20 30 -40.5t9 -40.5t-8 -39.5t-21.5 -36t-30 -29t-33.5 -18.5q-20 -7 -31 -8t-28 3h4q-2 0 -5.5 1t-5.5 1t-5 1q-2 1 -5 1.5t-5 2.5zM533 822q-1 0 -2 0.5t-2 0.5h-3l15 -2q11 -2 17 -2t20 5 q25 8 46 32t21 53q0 14 -4 26.5t-15 21.5q-1 0 -4 3h-2q-13 5 -21 5.5t-22 -2.5t-28 -12.5t-25 -22.5t-18.5 -28t-7.5 -30q0 -13 7.5 -25t25.5 -22z" />
<glyph unicode="&#xcc;" horiz-adv-x="339" d="M441 670q-38 -120 -70 -214t-58 -172q-22 -65 -40 -121t-35 -108l1 3q-6 -45 -27.5 -70t-47 -37t-49 -15t-35.5 -3q-68 0 -93.5 19.5t-25.5 56.5q0 20 6 41.5t15 47.5q13 35 27 76.5t29 87.5q18 52 36.5 108t37.5 108.5t37.5 98.5t36.5 80q17 32 36.5 44.5t36.5 17.5 q9 3 17.5 8t14.5 19q10 26 33.5 39t47.5 13q31 0 55.5 -20t24.5 -59q0 -23 -12 -51zM404 684q5 10 6.5 18.5t1.5 16.5q0 20 -12 29.5t-28 9.5q-13 0 -25 -7.5t-18 -18.5q-11 -27 -26 -36t-32 -15q-11 -4 -24 -11t-25 -31q-18 -33 -36 -78.5t-37 -97t-37 -106.5t-36 -107 q-15 -46 -29 -88.5t-27 -77.5q-8 -22 -13.5 -42t-5.5 -33q0 -17 16.5 -26.5t62.5 -9.5q9 0 27 2t37 11t34.5 27t20.5 51q17 52 35.5 109.5t40.5 122.5q26 77 58 173t70 213zM259 970q-6 33 6 56t34.5 36t50 17.5t51.5 0.5q33 -2 63.5 -21t46.5 -54q-5 -15 -6.5 -26.5 t-1.5 -22.5q0 -8 0.5 -15t0.5 -15q1 -12 1.5 -27t-1.5 -27q-3 -32 -22.5 -45t-45.5 -13q-16 0 -32.5 5t-27.5 12l-5 11l4 -5q-2 2 -2 3t-2 3q-8 5 -13 15l-3 5l-6 8l3 -4q-12 14 -23.5 25.5l-25.5 25.5q-17 9 -22 14.5t-12 14.5q-2 3 -4.5 6.5t-5.5 6.5l-1 21l7 7zM298 973 l1 -5l-6 14q5 -5 6.5 -7.5t3.5 -4.5l-1 1q5 -7 9 -10.5t16 -10.5q14 -14 29.5 -30t27.5 -30l5 -6l5 -9q1 0 5 -2l8 -13v-1q12 -5 29 -5q11 0 19 4.5t9 16.5q2 13 1.5 25t-1.5 24q0 8 -0.5 16t-0.5 16q0 12 0.5 23.5t4.5 24.5q-11 17 -30.5 26t-42.5 10q-16 3 -34 0 t-33 -11.5t-23.5 -23.5t-3.5 -37z" />
<glyph unicode="&#xcd;" horiz-adv-x="339" d="M441 670q-38 -120 -70 -214t-58 -172q-22 -65 -40 -121t-35 -108l1 3q-6 -45 -27.5 -70t-47 -37t-49 -15t-35.5 -3q-68 0 -93.5 19.5t-25.5 56.5q0 20 6 41.5t15 47.5q13 35 27 76.5t29 87.5q18 52 36.5 108t37.5 108.5t37.5 98.5t36.5 80q17 32 36.5 44.5t36.5 17.5 q9 3 17.5 8t14.5 19q10 26 33.5 39t47.5 13q31 0 55.5 -20t24.5 -59q0 -23 -12 -51zM404 684q5 10 6.5 18.5t1.5 16.5q0 20 -12 29.5t-28 9.5q-13 0 -25 -7.5t-18 -18.5q-11 -27 -26 -36t-32 -15q-11 -4 -24 -11t-25 -31q-18 -33 -36 -78.5t-37 -97t-37 -106.5t-36 -107 q-15 -46 -29 -88.5t-27 -77.5q-8 -22 -13.5 -42t-5.5 -33q0 -17 16.5 -26.5t62.5 -9.5q9 0 27 2t37 11t34.5 27t20.5 51q17 52 35.5 109.5t40.5 122.5q26 77 58 173t70 213zM461 1087q24 -2 45.5 -8.5t38 -16.5t26.5 -23t10 -28q0 -11 -5 -22t-16 -22q-2 -6 -5.5 -12 t-6.5 -11q-24 -24 -43.5 -41t-36.5 -29t-32 -20.5t-30 -14.5q-21 -8 -46 -8t-44.5 11.5t-19.5 41.5q0 14 12 41l2 3q2 15 11 35t21 39.5t24 35t21 21.5t18 10.5t15 6.5q17 8 33 11h7h1zM461 1047q-10 -2 -17.5 -4.5t-12.5 -4.5q-10 -3 -23 -12l2 1q-7 -5 -17 -19t-19.5 -31 t-16.5 -35t-8 -30l-8 -8q-5 -10 -5 -20q0 -8 7 -10.5t17 -2.5q8 0 16.5 2t15.5 4l-1 -1q13 6 26.5 13t28 17.5t31.5 25t37 34.5q9 14 12 24q15 12 15 21q0 14 -24.5 24t-57.5 12h1h1z" />
<glyph unicode="&#xce;" horiz-adv-x="339" d="M441 670q-38 -120 -70 -214t-58 -172q-22 -65 -40 -121t-35 -108l1 3q-6 -45 -27.5 -70t-47 -37t-49 -15t-35.5 -3q-68 0 -93.5 19.5t-25.5 56.5q0 20 6 41.5t15 47.5q13 35 27 76.5t29 87.5q18 52 36.5 108t37.5 108.5t37.5 98.5t36.5 80q17 32 36.5 44.5t36.5 17.5 q9 3 17.5 8t14.5 19q10 26 33.5 39t47.5 13q31 0 55.5 -20t24.5 -59q0 -23 -12 -51zM404 684q5 10 6.5 18.5t1.5 16.5q0 20 -12 29.5t-28 9.5q-13 0 -25 -7.5t-18 -18.5q-11 -27 -26 -36t-32 -15q-11 -4 -24 -11t-25 -31q-18 -33 -36 -78.5t-37 -97t-37 -106.5t-36 -107 q-15 -46 -29 -88.5t-27 -77.5q-8 -22 -13.5 -42t-5.5 -33q0 -17 16.5 -26.5t62.5 -9.5q9 0 27 2t37 11t34.5 27t20.5 51q17 52 35.5 109.5t40.5 122.5q26 77 58 173t70 213zM358 791q-46 -37 -91 -48q-26 -8 -45 -8q-26 0 -42 11.5t-16 36.5q0 20 19 53q26 31 49.5 58.5 t47 53t49 50.5t55.5 53l14 14q13 12 27.5 25t31.5 19l-1 -1q16 7 30.5 11t26.5 4q25 0 46 -22q9 -37 -19 -69q7 -26 9.5 -54t2.5 -54q5 -14 8 -30.5t3 -32.5q0 -27 -13 -52t-51 -41q-26 -9 -47.5 -7t-33.5 30q0 16 5 31q-3 15 -11 29q-24 -30 -53 -59zM332 821 q18 18 41 45.5t47 58.5l21 -42q7 -12 13.5 -25.5t8.5 -32.5q0 -2 -0.5 -5.5t-0.5 -5.5q-4 -7 -4 -14q10 -2 27 6l-1 -1q23 10 31 25t8 31q0 14 -3.5 28.5t-7.5 27.5q0 29 -3.5 61.5t-12.5 69.5q1 0 2 1q3 3 3 2q19 19 21 31q-2 1 -9 1q-8 0 -18.5 -3.5t-23.5 -8.5 q-11 -5 -20.5 -13.5t-20.5 -18.5l-21 -19l1 1q-54 -51 -101 -102.5t-95 -107.5q-10 -17 -10 -28q0 -4 5 -6t13 -2q14 0 40 9q33 7 70 37zM423 822l-1 -4q1 1 1 3v1z" />
<glyph unicode="&#xcf;" horiz-adv-x="339" d="M441 670q-38 -120 -70 -214t-58 -172q-22 -65 -40 -121t-35 -108l1 3q-6 -45 -27.5 -70t-47 -37t-49 -15t-35.5 -3q-68 0 -93.5 19.5t-25.5 56.5q0 20 6 41.5t15 47.5q13 35 27 76.5t29 87.5q18 52 36.5 108t37.5 108.5t37.5 98.5t36.5 80q17 32 36.5 44.5t36.5 17.5 q9 3 17.5 8t14.5 19q10 26 33.5 39t47.5 13q31 0 55.5 -20t24.5 -59q0 -23 -12 -51zM404 684q5 10 6.5 18.5t1.5 16.5q0 20 -12 29.5t-28 9.5q-13 0 -25 -7.5t-18 -18.5q-11 -27 -26 -36t-32 -15q-11 -4 -24 -11t-25 -31q-18 -33 -36 -78.5t-37 -97t-37 -106.5t-36 -107 q-15 -46 -29 -88.5t-27 -77.5q-8 -22 -13.5 -42t-5.5 -33q0 -17 16.5 -26.5t62.5 -9.5q9 0 27 2t37 11t34.5 27t20.5 51q17 52 35.5 109.5t40.5 122.5q26 77 58 173t70 213zM220 779q-31 13 -43.5 32t-12.5 41q0 19 10 38.5t26 35.5t36 27.5t39 14.5q21 3 30.5 2t24.5 -4h-4 q2 0 8 -2.5t8 -2.5q1 0 3 -1q4 -2 5 -3q20 -17 30 -35.5t10 -36.5t-8 -34.5t-21 -31t-30 -25t-34 -16.5q-19 -6 -30.5 -7t-26.5 2h3q-3 0 -6 1t-6 1t-6 1q-6 2 -11 7zM242 811q-2 2 -3.5 2t-3.5 1q-2 0 -4 1l15 -2q11 -2 18 -2t21 5q25 8 45 27t20 42q0 24 -18 38q-2 0 -4 2 q-2 0 -3.5 0.5t-2.5 0.5q-12 2 -19 3t-21 -1h1q-14 -2 -28 -9.5t-25.5 -18t-18.5 -23.5t-7 -25q0 -10 7.5 -19.5t24.5 -17.5zM441 788q-30 16 -42.5 37.5t-12.5 45.5q0 22 10 44t26 40.5t36 31.5t39 17q22 4 33 3t29 -7q4 -1 7 -1l9 -9l-1 1q21 -20 30 -40.5t9 -40.5 t-8 -39.5t-21.5 -36t-30 -29t-33.5 -18.5q-20 -7 -31 -8t-28 3h4q-2 0 -5.5 1t-5.5 1t-5 1q-2 1 -5 1.5t-5 2.5zM461 823q-1 0 -2 0.5t-2 0.5h-3l15 -2q11 -2 17 -2t20 5q25 8 46 32t21 53q0 14 -4 26.5t-15 21.5q-1 0 -4 3h-2q-13 5 -21 5.5t-22 -2.5t-28 -12.5t-25 -22.5 t-18.5 -28t-7.5 -30q0 -13 7.5 -25t25.5 -22z" />
<glyph unicode="&#xd0;" horiz-adv-x="667" d="M682 310q-11 -41 -31.5 -82.5t-48 -81t-61.5 -74t-72.5 -60.5t-80 -41t-84.5 -15h-13t-13 1q-17 -28 -43 -40.5t-55 -12.5q-26 0 -51.5 10t-46 27.5t-33 42.5t-12.5 55q0 61 7 115.5t19 104t27.5 95.5t33.5 91q17 40 31 80.5t25 79.5q2 8 3 16t3 17q4 26 11 52t25 48 q9 11 20.5 18t22.5 12q46 21 90 21q39 0 76 -13t70.5 -34t63.5 -46t55 -49q45 -44 63.5 -93t18.5 -106q0 -32 -5.5 -66.5t-14.5 -71.5zM644 320q8 34 13 66t5 62q0 49 -16 91t-54 80q-23 22 -50 45t-57 42t-63 31t-67 12q-18 0 -36.5 -4t-37.5 -13q-8 -4 -15.5 -8.5 t-13.5 -11.5q-11 -14 -17 -36.5t-9 -43.5q-3 -20 -8 -37q-12 -44 -27 -85.5t-30 -79.5l1 1q-35 -88 -60 -182t-25 -210q0 -21 9 -38.5t24 -30t33.5 -19.5t36.5 -7q21 0 41 14t34 43q15 -2 27.5 -3.5t21.5 -1.5q57 0 112 30t100.5 76.5t79 104t48.5 113.5zM306 104l-29 20 q10 5 19.5 10.5t20.5 12.5q20 14 35.5 25.5t29.5 24.5l33 28q17 17 31.5 40t22.5 46q14 44 14 75q0 32 -14 58.5t-46 47.5q-4 3 -11.5 8.5t-13.5 10t-6.5 5t8.5 -5.5q-4 -13 -7.5 -27t-6.5 -28t-6.5 -27.5t-8.5 -29.5l-26 -86l-22 -95q-3 -26 -8 -48l-5 -27zM270 146l5 30 q2 12 4 22.5t4 27.5l22 95l28 89q3 10 6.5 23.5t6.5 29.5q5 20 12 44.5t23 59.5q6 -3 15 -9t18.5 -12t18.5 -11.5t14 -9.5l-1 1q40 -27 58.5 -62t18.5 -78t-16 -88v1q-10 -30 -26.5 -55.5t-39.5 -48.5l-33 -28q-17 -14 -34.5 -28t-34.5 -26q-5 -3 -16 -9.5t-23 -13 t-22.5 -12t-15.5 -8.5zM-18 217q-48 -1 -79 19t-31 48q0 19 17.5 37.5t55.5 32.5h8q14 26 51.5 50t98.5 32q9 1 34.5 1.5t58.5 0.5h29.5t29.5 -1q9 2 18.5 3.5t23.5 1.5h-1q30 1 58 -5.5t49.5 -18.5t34.5 -29.5t13 -39.5q0 -37 -45 -82q-10 -4 -18 -7t-14 -6q-8 -5 -18 -8.5 t-20 -7.5q-43 -14 -90 -19.5t-93 -5.5q-19 0 -38.5 0.5t-38.5 1.5q-20 1 -40 1.5t-40 0.5q-4 -1 -9 -1q-1 0 -8 -0.5t-9 -0.5zM-17 255q2 0 2.5 0.5t1.5 0.5q-2 0 0 1q21 0 45 -0.5t46 -1.5q19 -1 37.5 -1.5t37.5 -0.5q45 0 87.5 4.5t83.5 18.5q8 2 15.5 5.5t16.5 8.5 q15 8 30 13q11 12 18 24.5t7 21.5q0 13 -9.5 23t-25 17t-36.5 10.5t-43 2.5q-14 0 -22.5 -1.5t-16.5 -3.5q-15 1 -31 1h-31q-31 0 -55 -0.5t-33 -1.5h1q-59 -8 -89.5 -31t-37.5 -49l-29 -2q-23 -9 -32 -16.5t-9 -13.5q0 -11 23.5 -19.5t58.5 -7.5z" />
<glyph unicode="&#xd1;" horiz-adv-x="630" d="M86 509q10 34 28 73t41.5 72t52 55t61.5 22q29 0 65 -25q16 -38 27 -66t18.5 -52t12 -46t8.5 -48l5 10q14 31 27 61t20 58q11 37 34 64t51 44t57.5 25.5t55.5 8.5q44 0 65 -23.5t2 -60.5q0 -2 0.5 -8t1.5 -12q1 -8 2 -15.5t1 -21.5q0 -17 -4 -36.5t-15 -39.5 q-12 -21 -24 -49.5t-24.5 -61.5t-25 -69t-24.5 -72q-18 -54 -36.5 -106.5t-37.5 -95.5t-37 -72.5t-34 -36.5l2 1q-32 -18 -52 -25.5t-42 -7.5q-18 0 -40 3h2q-22 1 -36.5 22.5t-24.5 53t-16.5 68.5t-11.5 71q-2 15 -1.5 16.5t1 -1.5t1 -7t-1.5 1q-13 -39 -22.5 -63.5 t-17 -40.5t-14.5 -26.5t-14 -20.5l-12 -17q-7 -18 -21.5 -32t-32.5 -23t-37.5 -13.5t-37.5 -4.5q-19 0 -35 4.5t-26 13.5t-13 23t5 34q4 44 18 109t32 135t37.5 137t36.5 115v-1zM124 496q-17 -47 -36.5 -113.5t-37 -136t-31 -134t-17.5 -106.5q-5 -14 4 -20.5t25 -6.5 q26 0 54.5 12.5t38.5 38.5l15 22q8 11 16 24t18.5 39t26.5 72.5t40 125.5q22 -44 29 -74.5t12 -61.5q4 -29 9 -60.5t11.5 -58t14.5 -44t17 -18.5q22 -3 35 -3q17 0 32 6t43 22q11 5 25.5 31t30.5 65.5t33.5 89t34.5 101.5q13 37 26 74.5t26 72t25 63.5t23 50q8 16 11.5 30.5 t3.5 25.5q0 5 -1 14.5t-2 17.5q-2 14 -1.5 25.5t5.5 20.5q7 11 -4 17t-29 6q-21 0 -45 -6.5t-46.5 -20.5t-41 -35t-27.5 -51v1q-8 -30 -21.5 -62t-27.5 -63q-9 -20 -19.5 -44t-16.5 -41l-35 4q-5 46 -10 78t-12 61.5t-17.5 60t-28.5 73.5q-17 11 -33 11q-24 0 -46.5 -19.5 t-41.5 -48.5t-33.5 -63t-23.5 -63v-1zM342 916q6 5 12 9l12 8q2 1 3 1l20 14q28 17 54 25.5t48 -0.5h-2q18 -6 30 -18t17 -42l-2 3l2 -6q0 -1 0.5 -1t0.5 -1v1l5 -11q1 -6 5 -13q9 1 20 6q8 7 17 15t17 13q24 16 46 16q21 0 32.5 -14t3.5 -47q-5 -20 -20 -35.5t-32 -28.5 q-17 -16 -30.5 -27t-24.5 -18t-22 -10t-24 -3q-14 0 -36 6h-1q-17 4 -33 19q-8 6 -16 13t-15 5l-24 -19q-21 -17 -43 -29.5t-42 -4.5q-11 6 -21 14q-13 9 -21 22.5t-8 27.5q0 25 19.5 54.5t51.5 54.5v1h1zM361 881q-23 -18 -37 -38t-14 -37q0 -11 13 -18q5 -5 8 -6.5t5 -3.5 q6 0 18.5 9t25.5 20q7 5 15 12t15 12q25 8 42.5 -2t31.5 -21q5 -5 9 -8t9 -4q8 -2 14 -3t14 -1q16 0 32 11t45 39q13 10 23.5 21t14.5 22v-2q3 12 2 12q-9 0 -24 -10q-9 -6 -17 -13l-16 -14q-14 -6 -29.5 -10.5t-32.5 -6.5q-9 14 -15 24.5t-9 18.5l-6 12q-2 4 -4 9.5t1 11.5 q-2 9 -6.5 12t-12.5 6q-12 5 -29 -1.5t-37 -18.5l2 1l-29 -21h-2l-9 -6l1 -2l-11 -6h-1zM537 909l-1 1v3q0 -2 0.5 -2.5t0.5 -1.5zM381 895q-1 0 -2 -1z" />
<glyph unicode="&#xd2;" d="M254 720q34 28 74 42.5t79 14.5q13 0 25.5 -1t25.5 -5q17 17 35.5 22.5t41.5 5.5q36 0 71.5 -19.5t60.5 -52.5l2 -6q-1 5 -0.5 4t2 -4.5t3 -8.5t3.5 -8l14 -35v2q13 -31 18.5 -66t5.5 -73q0 -51 -10 -106.5t-27 -109t-38.5 -102.5t-44.5 -89q-14 -23 -30.5 -46.5t-35 -46 t-40 -42t-43.5 -34.5l1 1q-32 -23 -70 -39q-39 -15 -94 -15q-37 0 -72.5 8.5t-62.5 27.5l2 -2q-37 19 -62.5 45t-41.5 57.5t-23 67t-7 73.5q0 40 7 83t18.5 84.5t26 81t29.5 74.5q12 25 29.5 55.5t38.5 60.5t44 57t45 45v-1zM280 689q-21 -17 -42.5 -42t-41 -52.5t-36 -56 t-27.5 -51.5q-14 -33 -27.5 -71t-24.5 -78t-18 -80.5t-7 -77.5q0 -66 24 -120t85 -85q24 -17 55.5 -24.5t62.5 -7.5q43 0 80 13q32 13 60 33q44 29 79 70.5t59 85.5q22 37 42.5 83.5t36.5 97.5t25.5 103.5t9.5 102.5q0 68 -22 124q-3 9 -7 17.5t-7 16.5l-6 16q-20 23 -46 38 t-52 15q-33 0 -66 -34q-36 12 -62 12q-33 0 -66 -12t-61 -35v-1zM333 66q-8 -10 -16.5 -17t-16.5 -13l-19 -13q-15 6 -26.5 18.5t-19.5 26.5t-13 27t-6 19l-2 14q0 1 0.5 2.5t0.5 2.5q6 51 24 101t43.5 98t55.5 92.5t58 84.5q4 6 12 15.5t16.5 17.5t17 12.5t15.5 1.5 q8 -2 11.5 -8t4.5 -14t0.5 -16.5t-0.5 -14.5q0 -57 -10.5 -118t-29 -119.5t-44 -110.5t-56.5 -90v1zM301 91q28 35 52 82.5t41.5 101t27.5 109.5t11 108l-5 -7q-27 -38 -55 -81t-52.5 -89t-42.5 -93t-23 -93v1q-1 -1 -1 -5l2 -11l-1 4q2 -7 7 -23t16 -25v-1q13 8 23 21v1z M409 956q-6 33 6 56t34.5 36t50 17.5t51.5 0.5q33 -2 63.5 -21t46.5 -54q-5 -15 -6.5 -26.5t-1.5 -22.5q0 -8 0.5 -15t0.5 -15q1 -12 1.5 -27t-1.5 -27q-3 -32 -22.5 -45t-45.5 -13q-16 0 -32.5 5t-27.5 12l-5 11l4 -5q-2 2 -2 3t-2 3q-8 5 -13 15l-3 5l-6 8l3 -4 q-12 14 -23.5 25.5l-25.5 25.5q-17 9 -22 14.5t-12 14.5q-2 3 -4.5 6.5t-5.5 6.5l-1 21l7 7zM448 959l1 -5l-6 14q5 -5 6.5 -7.5t3.5 -4.5l-1 1q5 -7 9 -10.5t16 -10.5q14 -14 29.5 -30t27.5 -30l5 -6l5 -9q1 0 5 -2l8 -13v-1q12 -5 29 -5q11 0 19 4.5t9 16.5q2 13 1.5 25 t-1.5 24q0 8 -0.5 16t-0.5 16q0 12 0.5 23.5t4.5 24.5q-11 17 -30.5 26t-42.5 10q-16 3 -34 0t-33 -11.5t-23.5 -23.5t-3.5 -37z" />
<glyph unicode="&#xd3;" d="M254 720q34 28 74 42.5t79 14.5q13 0 25.5 -1t25.5 -5q17 17 35.5 22.5t41.5 5.5q36 0 71.5 -19.5t60.5 -52.5l2 -6q-1 5 -0.5 4t2 -4.5t3 -8.5t3.5 -8l14 -35v2q13 -31 18.5 -66t5.5 -73q0 -51 -10 -106.5t-27 -109t-38.5 -102.5t-44.5 -89q-14 -23 -30.5 -46.5t-35 -46 t-40 -42t-43.5 -34.5l1 1q-32 -23 -70 -39q-39 -15 -94 -15q-37 0 -72.5 8.5t-62.5 27.5l2 -2q-37 19 -62.5 45t-41.5 57.5t-23 67t-7 73.5q0 40 7 83t18.5 84.5t26 81t29.5 74.5q12 25 29.5 55.5t38.5 60.5t44 57t45 45v-1zM280 689q-21 -17 -42.5 -42t-41 -52.5t-36 -56 t-27.5 -51.5q-14 -33 -27.5 -71t-24.5 -78t-18 -80.5t-7 -77.5q0 -66 24 -120t85 -85q24 -17 55.5 -24.5t62.5 -7.5q43 0 80 13q32 13 60 33q44 29 79 70.5t59 85.5q22 37 42.5 83.5t36.5 97.5t25.5 103.5t9.5 102.5q0 68 -22 124q-3 9 -7 17.5t-7 16.5l-6 16q-20 23 -46 38 t-52 15q-33 0 -66 -34q-36 12 -62 12q-33 0 -66 -12t-61 -35v-1zM333 66q-8 -10 -16.5 -17t-16.5 -13l-19 -13q-15 6 -26.5 18.5t-19.5 26.5t-13 27t-6 19l-2 14q0 1 0.5 2.5t0.5 2.5q6 51 24 101t43.5 98t55.5 92.5t58 84.5q4 6 12 15.5t16.5 17.5t17 12.5t15.5 1.5 q8 -2 11.5 -8t4.5 -14t0.5 -16.5t-0.5 -14.5q0 -57 -10.5 -118t-29 -119.5t-44 -110.5t-56.5 -90v1zM301 91q28 35 52 82.5t41.5 101t27.5 109.5t11 108l-5 -7q-27 -38 -55 -81t-52.5 -89t-42.5 -93t-23 -93v1q-1 -1 -1 -5l2 -11l-1 4q2 -7 7 -23t16 -25v-1q13 8 23 21v1z M621 1086q24 -2 45.5 -8.5t38 -16.5t26.5 -23t10 -28q0 -11 -5 -22t-16 -22q-2 -6 -5.5 -12t-6.5 -11q-24 -24 -43.5 -41t-36.5 -29t-32 -20.5t-30 -14.5q-21 -8 -46 -8t-44.5 11.5t-19.5 41.5q0 14 12 41l2 3q2 15 11 35t21 39.5t24 35t21 21.5t18 10.5t15 6.5q17 8 33 11 h7h1zM621 1046q-10 -2 -17.5 -4.5t-12.5 -4.5q-10 -3 -23 -12l2 1q-7 -5 -17 -19t-19.5 -31t-16.5 -35t-8 -30l-8 -8q-5 -10 -5 -20q0 -8 7 -10.5t17 -2.5q8 0 16.5 2t15.5 4l-1 -1q13 6 26.5 13t28 17.5t31.5 25t37 34.5q9 14 12 24q15 12 15 21q0 14 -24.5 24t-57.5 12h1 h1z" />
<glyph unicode="&#xd4;" d="M254 720q34 28 74 42.5t79 14.5q13 0 25.5 -1t25.5 -5q17 17 35.5 22.5t41.5 5.5q36 0 71.5 -19.5t60.5 -52.5l2 -6q-1 5 -0.5 4t2 -4.5t3 -8.5t3.5 -8l14 -35v2q13 -31 18.5 -66t5.5 -73q0 -51 -10 -106.5t-27 -109t-38.5 -102.5t-44.5 -89q-14 -23 -30.5 -46.5t-35 -46 t-40 -42t-43.5 -34.5l1 1q-32 -23 -70 -39q-39 -15 -94 -15q-37 0 -72.5 8.5t-62.5 27.5l2 -2q-37 19 -62.5 45t-41.5 57.5t-23 67t-7 73.5q0 40 7 83t18.5 84.5t26 81t29.5 74.5q12 25 29.5 55.5t38.5 60.5t44 57t45 45v-1zM280 689q-21 -17 -42.5 -42t-41 -52.5t-36 -56 t-27.5 -51.5q-14 -33 -27.5 -71t-24.5 -78t-18 -80.5t-7 -77.5q0 -66 24 -120t85 -85q24 -17 55.5 -24.5t62.5 -7.5q43 0 80 13q32 13 60 33q44 29 79 70.5t59 85.5q22 37 42.5 83.5t36.5 97.5t25.5 103.5t9.5 102.5q0 68 -22 124q-3 9 -7 17.5t-7 16.5l-6 16q-20 23 -46 38 t-52 15q-33 0 -66 -34q-36 12 -62 12q-33 0 -66 -12t-61 -35v-1zM333 66q-8 -10 -16.5 -17t-16.5 -13l-19 -13q-15 6 -26.5 18.5t-19.5 26.5t-13 27t-6 19l-2 14q0 1 0.5 2.5t0.5 2.5q6 51 24 101t43.5 98t55.5 92.5t58 84.5q4 6 12 15.5t16.5 17.5t17 12.5t15.5 1.5 q8 -2 11.5 -8t4.5 -14t0.5 -16.5t-0.5 -14.5q0 -57 -10.5 -118t-29 -119.5t-44 -110.5t-56.5 -90v1zM301 91q28 35 52 82.5t41.5 101t27.5 109.5t11 108l-5 -7q-27 -38 -55 -81t-52.5 -89t-42.5 -93t-23 -93v1q-1 -1 -1 -5l2 -11l-1 4q2 -7 7 -23t16 -25v-1q13 8 23 21v1z M498 809q-46 -37 -91 -48q-26 -8 -45 -8q-26 0 -42 11.5t-16 36.5q0 20 19 53q26 31 49.5 58.5t47 53t49 50.5t55.5 53l14 14q13 12 27.5 25t31.5 19l-1 -1q16 7 30.5 11t26.5 4q25 0 46 -22q9 -37 -19 -69q7 -26 9.5 -54t2.5 -54q5 -14 8 -30.5t3 -32.5q0 -27 -13 -52 t-51 -41q-26 -9 -47.5 -7t-33.5 30q0 16 5 31q-3 15 -11 29q-24 -30 -53 -59zM472 839q18 18 41 45.5t47 58.5l21 -42q7 -12 13.5 -25.5t8.5 -32.5q0 -2 -0.5 -5.5t-0.5 -5.5q-4 -7 -4 -14q10 -2 27 6l-1 -1q23 10 31 25t8 31q0 14 -3.5 28.5t-7.5 27.5q0 29 -3.5 61.5 t-12.5 69.5q1 0 2 1q3 3 3 2q19 19 21 31q-2 1 -9 1q-8 0 -18.5 -3.5t-23.5 -8.5q-11 -5 -20.5 -13.5t-20.5 -18.5l-21 -19l1 1q-54 -51 -101 -102.5t-95 -107.5q-10 -17 -10 -28q0 -4 5 -6t13 -2q14 0 40 9q33 7 70 37zM563 840l-1 -4q1 1 1 3v1z" />
<glyph unicode="&#xd5;" d="M254 720q34 28 74 42.5t79 14.5q13 0 25.5 -1t25.5 -5q17 17 35.5 22.5t41.5 5.5q36 0 71.5 -19.5t60.5 -52.5l2 -6q-1 5 -0.5 4t2 -4.5t3 -8.5t3.5 -8l14 -35v2q13 -31 18.5 -66t5.5 -73q0 -51 -10 -106.5t-27 -109t-38.5 -102.5t-44.5 -89q-14 -23 -30.5 -46.5t-35 -46 t-40 -42t-43.5 -34.5l1 1q-32 -23 -70 -39q-39 -15 -94 -15q-37 0 -72.5 8.5t-62.5 27.5l2 -2q-37 19 -62.5 45t-41.5 57.5t-23 67t-7 73.5q0 40 7 83t18.5 84.5t26 81t29.5 74.5q12 25 29.5 55.5t38.5 60.5t44 57t45 45v-1zM280 689q-21 -17 -42.5 -42t-41 -52.5t-36 -56 t-27.5 -51.5q-14 -33 -27.5 -71t-24.5 -78t-18 -80.5t-7 -77.5q0 -66 24 -120t85 -85q24 -17 55.5 -24.5t62.5 -7.5q43 0 80 13q32 13 60 33q44 29 79 70.5t59 85.5q22 37 42.5 83.5t36.5 97.5t25.5 103.5t9.5 102.5q0 68 -22 124q-3 9 -7 17.5t-7 16.5l-6 16q-20 23 -46 38 t-52 15q-33 0 -66 -34q-36 12 -62 12q-33 0 -66 -12t-61 -35v-1zM333 66q-8 -10 -16.5 -17t-16.5 -13l-19 -13q-15 6 -26.5 18.5t-19.5 26.5t-13 27t-6 19l-2 14q0 1 0.5 2.5t0.5 2.5q6 51 24 101t43.5 98t55.5 92.5t58 84.5q4 6 12 15.5t16.5 17.5t17 12.5t15.5 1.5 q8 -2 11.5 -8t4.5 -14t0.5 -16.5t-0.5 -14.5q0 -57 -10.5 -118t-29 -119.5t-44 -110.5t-56.5 -90v1zM301 91q28 35 52 82.5t41.5 101t27.5 109.5t11 108l-5 -7q-27 -38 -55 -81t-52.5 -89t-42.5 -93t-23 -93v1q-1 -1 -1 -5l2 -11l-1 4q2 -7 7 -23t16 -25v-1q13 8 23 21v1z M386 955q6 5 12 9l12 8q2 1 3 1l20 14q28 17 54 25.5t48 -0.5h-2q18 -6 30 -18t17 -42l-2 3l2 -6q0 -1 0.5 -1t0.5 -1v1l5 -11q1 -6 5 -13q9 1 20 6q8 7 17 15t17 13q24 16 46 16q21 0 32.5 -14t3.5 -47q-5 -20 -20 -35.5t-32 -28.5q-17 -16 -30.5 -27t-24.5 -18t-22 -10 t-24 -3q-14 0 -36 6h-1q-17 4 -33 19q-8 6 -16 13t-15 5l-24 -19q-21 -17 -43 -29.5t-42 -4.5q-11 6 -21 14q-13 9 -21 22.5t-8 27.5q0 25 19.5 54.5t51.5 54.5v1h1zM405 920q-23 -18 -37 -38t-14 -37q0 -11 13 -18q5 -5 8 -6.5t5 -3.5q6 0 18.5 9t25.5 20q7 5 15 12t15 12 q25 8 42.5 -2t31.5 -21q5 -5 9 -8t9 -4q8 -2 14 -3t14 -1q16 0 32 11t45 39q13 10 23.5 21t14.5 22v-2q3 12 2 12q-9 0 -24 -10q-9 -6 -17 -13l-16 -14q-14 -6 -29.5 -10.5t-32.5 -6.5q-9 14 -15 24.5t-9 18.5l-6 12q-2 4 -4 9.5t1 11.5q-2 9 -6.5 12t-12.5 6 q-12 5 -29 -1.5t-37 -18.5l2 1l-29 -21h-2l-9 -6l1 -2l-11 -6h-1zM581 948l-1 1v3q0 -2 0.5 -2.5t0.5 -1.5zM425 934q-1 0 -2 -1z" />
<glyph unicode="&#xd6;" d="M254 720q34 28 74 42.5t79 14.5q13 0 25.5 -1t25.5 -5q17 17 35.5 22.5t41.5 5.5q36 0 71.5 -19.5t60.5 -52.5l2 -6q-1 5 -0.5 4t2 -4.5t3 -8.5t3.5 -8l14 -35v2q13 -31 18.5 -66t5.5 -73q0 -51 -10 -106.5t-27 -109t-38.5 -102.5t-44.5 -89q-14 -23 -30.5 -46.5t-35 -46 t-40 -42t-43.5 -34.5l1 1q-32 -23 -70 -39q-39 -15 -94 -15q-37 0 -72.5 8.5t-62.5 27.5l2 -2q-37 19 -62.5 45t-41.5 57.5t-23 67t-7 73.5q0 40 7 83t18.5 84.5t26 81t29.5 74.5q12 25 29.5 55.5t38.5 60.5t44 57t45 45v-1zM280 689q-21 -17 -42.5 -42t-41 -52.5t-36 -56 t-27.5 -51.5q-14 -33 -27.5 -71t-24.5 -78t-18 -80.5t-7 -77.5q0 -66 24 -120t85 -85q24 -17 55.5 -24.5t62.5 -7.5q43 0 80 13q32 13 60 33q44 29 79 70.5t59 85.5q22 37 42.5 83.5t36.5 97.5t25.5 103.5t9.5 102.5q0 68 -22 124q-3 9 -7 17.5t-7 16.5l-6 16q-20 23 -46 38 t-52 15q-33 0 -66 -34q-36 12 -62 12q-33 0 -66 -12t-61 -35v-1zM333 66q-8 -10 -16.5 -17t-16.5 -13l-19 -13q-15 6 -26.5 18.5t-19.5 26.5t-13 27t-6 19l-2 14q0 1 0.5 2.5t0.5 2.5q6 51 24 101t43.5 98t55.5 92.5t58 84.5q4 6 12 15.5t16.5 17.5t17 12.5t15.5 1.5 q8 -2 11.5 -8t4.5 -14t0.5 -16.5t-0.5 -14.5q0 -57 -10.5 -118t-29 -119.5t-44 -110.5t-56.5 -90v1zM301 91q28 35 52 82.5t41.5 101t27.5 109.5t11 108l-5 -7q-27 -38 -55 -81t-52.5 -89t-42.5 -93t-23 -93v1q-1 -1 -1 -5l2 -11l-1 4q2 -7 7 -23t16 -25v-1q13 8 23 21v1z M358 794q-31 13 -43.5 32t-12.5 41q0 19 10 38.5t26 35.5t36 27.5t39 14.5q21 3 30.5 2t24.5 -4h-4q2 0 8 -2.5t8 -2.5q1 0 3 -1q4 -2 5 -3q20 -17 30 -35.5t10 -36.5t-8 -34.5t-21 -31t-30 -25t-34 -16.5q-19 -6 -30.5 -7t-26.5 2h3q-3 0 -6 1t-6 1t-6 1q-6 2 -11 7z M380 826q-2 2 -3.5 2t-3.5 1q-2 0 -4 1l15 -2q11 -2 18 -2t21 5q25 8 45 27t20 42q0 24 -18 38q-2 0 -4 2q-2 0 -3.5 0.5t-2.5 0.5q-12 2 -19 3t-21 -1h1q-14 -2 -28 -9.5t-25.5 -18t-18.5 -23.5t-7 -25q0 -10 7.5 -19.5t24.5 -17.5zM579 803q-30 16 -42.5 37.5t-12.5 45.5 q0 22 10 44t26 40.5t36 31.5t39 17q22 4 33 3t29 -7q4 -1 7 -1l9 -9l-1 1q21 -20 30 -40.5t9 -40.5t-8 -39.5t-21.5 -36t-30 -29t-33.5 -18.5q-20 -7 -31 -8t-28 3h4q-2 0 -5.5 1t-5.5 1t-5 1q-2 1 -5 1.5t-5 2.5zM599 838q-1 0 -2 0.5t-2 0.5h-3l15 -2q11 -2 17 -2t20 5 q25 8 46 32t21 53q0 14 -4 26.5t-15 21.5q-1 0 -4 3h-2q-13 5 -21 5.5t-22 -2.5t-28 -12.5t-25 -22.5t-18.5 -28t-7.5 -30q0 -13 7.5 -25t25.5 -22z" />
<glyph unicode="&#xd7;" horiz-adv-x="627" d="M491 615q31 19 48 27.5t37 8.5q8 0 20.5 -2t30.5 -6l12 -3l6 -2q6 -2 7 -2q10 -8 20 -20t15.5 -24.5t4 -25.5t-13.5 -24q-11 -16 -31 -36.5t-44 -42t-49.5 -41.5t-46.5 -34q6 -20 9.5 -43.5t6.5 -47.5q3 -23 6.5 -41t5.5 -28l-1 4l3 -8q2 -4 3.5 -7.5t5.5 -7.5 q8 -20 -3.5 -33.5t-34 -21.5t-50.5 -12t-53 -4h-24.5t-17.5 2q-14 8 -23 15t-17 17.5t-16 26t-20 39.5l-6 13l30 -7q-14 -10 -26 -19.5t-25 -20.5l-18 -16l-10 -9q-13 -13 -30 -26t-52 -27q-14 -3 -32 -5t-37 -2q-22 0 -42 5.5t-31 15.5q-43 11 -43 49q0 8 2.5 18.5 t7.5 24.5q14 17 35.5 41.5t47 51.5t54 52.5t56.5 43.5q-5 9 -7.5 18t-5.5 20v-1q-3 10 -5.5 19t-7.5 16q-26 7 -43 21t-17 36q0 11 3.5 21t13.5 23l18 13q34 20 68.5 30.5t67.5 10.5q43 0 82 -18q9 -2 20 -8t23 -14t23 -17t19 -18q14 9 31 19t28 16l14 8zM498 572h1 q-14 -8 -39 -23t-54 -38q-3 9 -13 22t-22.5 25t-25 21t-21.5 11q-36 18 -71 18q-29 0 -57.5 -8.5t-55.5 -24.5l2 1l-12 -9q-3 -5 -5.5 -10t-2.5 -7q0 -6 11.5 -10.5t29.5 -8.5q14 -17 19.5 -32.5t10.5 -29.5q3 -11 9 -24t26 -35q-36 -20 -69 -46.5t-61 -54t-50.5 -53 t-36.5 -42.5q-6 -18 -6 -25t31 -13q3 -9 16 -13t29 -4q14 0 30 2t30 5q29 11 41 21t22 20l12 11l18 16q13 11 35.5 28.5t36.5 27.5l17 -34l16.5 -33t12 -21.5t10.5 -13.5t12 -9q6 -1 14 -1h17q16 0 34 0.5t33.5 2t26 4t10.5 5.5q-4 5 -5.5 9.5t-3.5 9.5q-1 2 -1 3t-1 2 q-5 20 -8.5 39t-6.5 38q-3 26 -8 53.5t-19 59.5q22 14 52 35.5t58.5 45.5t51 46.5t31.5 37.5q7 6 -2.5 17t-18.5 18q1 -3 5 -3h3l-18 4l1 -1q-16 3 -27 5t-16 2q-11 0 -24.5 -6.5t-39.5 -23.5z" />
<glyph unicode="&#xd8;" d="M254 720q34 28 74 42.5t79 14.5q13 0 25.5 -1t25.5 -5q17 17 35.5 22.5t41.5 5.5q36 0 71.5 -19.5t60.5 -52.5l2 -6q-1 5 -0.5 4t2 -4.5t3 -8.5t3.5 -8l14 -35v2q13 -31 18.5 -66t5.5 -73q0 -51 -10 -106.5t-27 -109t-38.5 -102.5t-44.5 -89q-14 -23 -30.5 -46.5t-35 -46 t-40 -42t-43.5 -34.5l1 1q-32 -23 -70 -39q-39 -15 -94 -15q-37 0 -72.5 8.5t-62.5 27.5l2 -2q-37 19 -62.5 45t-41.5 57.5t-23 67t-7 73.5q0 40 7 83t18.5 84.5t26 81t29.5 74.5q12 25 29.5 55.5t38.5 60.5t44 57t45 45v-1zM280 689q-21 -17 -42.5 -42t-41 -52.5t-36 -56 t-27.5 -51.5q-14 -33 -27.5 -71t-24.5 -78t-18 -80.5t-7 -77.5q0 -66 24 -120t85 -85q24 -17 55.5 -24.5t62.5 -7.5q43 0 80 13q32 13 60 33q44 29 79 70.5t59 85.5q22 37 42.5 83.5t36.5 97.5t25.5 103.5t9.5 102.5q0 68 -22 124q-3 9 -7 17.5t-7 16.5l-6 16q-20 23 -46 38 t-52 15q-33 0 -66 -34q-36 12 -62 12q-33 0 -66 -12t-61 -35v-1zM333 66q-8 -10 -16.5 -17t-16.5 -13l-19 -13q-15 6 -26.5 18.5t-19.5 26.5t-13 27t-6 19l-2 14q0 1 0.5 2.5t0.5 2.5q6 51 24 101t43.5 98t55.5 92.5t58 84.5q4 6 12 15.5t16.5 17.5t17 12.5t15.5 1.5 q8 -2 11.5 -8t4.5 -14t0.5 -16.5t-0.5 -14.5q0 -57 -10.5 -118t-29 -119.5t-44 -110.5t-56.5 -90v1zM301 91q28 35 52 82.5t41.5 101t27.5 109.5t11 108l-5 -7q-27 -38 -55 -81t-52.5 -89t-42.5 -93t-23 -93v1q-1 -1 -1 -5l2 -11l-1 4q2 -7 7 -23t16 -25v-1q13 8 23 21v1z M481 838l2 3q2 29 30.5 54.5t89.5 36.5h11q25 -1 47.5 -4t42 -12.5t34.5 -27t25 -47.5q3 -23 -7 -41.5t-23 -33.5q3 -17 -2.5 -36.5t-25.5 -42.5q-35 -32 -62.5 -69.5t-55.5 -76.5l1 1q-5 -7 -10.5 -14t-10.5 -14q-46 -64 -91 -135t-90 -143q-60 -97 -121.5 -191.5 t-130.5 -179.5q-17 -19 -42 -19q-15 0 -31.5 7.5t-30 21t-22.5 32t-9 41.5q0 16 5 33.5t16 34.5l-1 -3q52 119 112.5 223t123.5 208q35 57 70 115.5t70 121.5l-1 -1l25 47q13 26 26.5 51.5t28.5 48.5zM508 805q-15 -23 -28 -47t-25 -49l-26 -48q-35 -63 -70 -122t-70 -116v1 q-63 -104 -123.5 -208t-112.5 -223q-8 -12 -11 -23.5t-3 -21.5q0 -14 5 -25.5t13 -19.5t17 -12.5t18 -4.5q3 0 6.5 1.5t5.5 3.5q63 78 125.5 174.5t122.5 192.5q45 73 90.5 144t92.5 136l19 26q30 42 60 81.5t66 74.5l-1 -2q12 14 13 29t-4 28q12 15 24.5 31.5t10.5 28.5 l1 -3q-7 19 -18 30.5t-25 17.5t-31.5 8.5t-36.5 3.5h1h-3q-47 -9 -68.5 -25.5t-19.5 -33.5q-3 -12 -4.5 -15.5t-2 -3.5t-0.5 1.5t-1 0.5z" />
<glyph unicode="&#xd9;" d="M390 709q8 -23 -5.5 -67t-35.5 -100q-13 -32 -26 -66.5t-23.5 -69.5t-17 -68.5t-4.5 -63.5q3 -6 16 11.5t32 50t41.5 76t45.5 89t44 89t37 77.5q8 19 18 40t23 38.5t30.5 28.5t40.5 11q11 0 23 -3q15 14 33.5 21t36.5 7q31 0 56 -19t28 -56q3 -20 -11 -68t-37 -119 q-30 -94 -69 -226.5t-69 -287.5q-2 -23 -15 -41.5t-32 -31.5t-42.5 -20t-45.5 -7q-27 0 -49 10t-33 30q-11 -8 -23.5 -14.5t-24.5 -12.5h1l-9 -4q-16 -5 -32 -7.5t-32 -2.5q-33 0 -66.5 9t-62.5 26t-52 41.5t-33 55.5q-8 26 -12 55t-4 58q0 60 13 124.5t33 127.5t43 121.5 t43 106.5l-1 -1q3 7 8.5 19t12.5 24.5t14 24t12 18.5q2 4 11 13l12 11l-2 -2l5 3l4 3q5 5 7 6t5 1q3 2 7.5 3t7.5 2l-1 -1l16 3l5 1q5 1 11.5 1t10.5 -1q8 -1 15.5 -3t16.5 -6h1l12 -7l11 -10l3 -3l3 -5q1 -1 2 -3q2 -4 4 -6t2 -3q1 -2 2.5 -4.5t2.5 -4.5v-3l2 -3zM345 714 l2 -4q0 1 -0.5 2t-0.5 3v-1q-4 6 -6 11l-1 2l-1 2l-10 8l-4 3q-12 4 -27 6q-3 1 -7 0h-6l-11 -3l-12 -5l-2 -2l-4 -1l-12 -11q-4 -5 -10.5 -15.5t-13.5 -23t-12.5 -24.5t-8.5 -19q-19 -47 -41.5 -103.5t-41.5 -117.5t-32 -123t-13 -120q0 -27 3 -52.5t11 -48.5q8 -25 26 -44 t42.5 -32.5t52.5 -20.5t55 -7q13 0 24.5 2t22.5 4q1 0 1.5 0.5t1.5 0.5h-2l7 3q9 4 18.5 9t17.5 10.5t13.5 11.5t6.5 14v5l40 1v-2v-3l3 -29q3 -13 16.5 -19.5t31.5 -6.5q16 0 32.5 4.5t30 13.5t22.5 22t10 29q14 75 32 147t36.5 138t37 124.5t34.5 107.5q22 67 35 111 t11 55q-1 21 -14 32.5t-30 11.5q-12 0 -27 -8.5t-29 -26.5q-14 5 -23 7.5t-14 2.5q-14 0 -25.5 -8.5t-20.5 -22t-16 -30.5t-14 -33q-19 -41 -46.5 -96t-58 -110.5t-61.5 -104t-57 -77.5t-44.5 -31.5t-24.5 35.5q-2 34 4.5 71t17 74.5t24.5 74t27 69.5q20 49 32.5 87t8.5 52z M338 733v-3v2v1zM308 -20l-1 -1zM349 937q-6 33 6 56t34.5 36t50 17.5t51.5 0.5q33 -2 63.5 -21t46.5 -54q-5 -15 -6.5 -26.5t-1.5 -22.5q0 -8 0.5 -15t0.5 -15q1 -12 1.5 -27t-1.5 -27q-3 -32 -22.5 -45t-45.5 -13q-16 0 -32.5 5t-27.5 12l-5 11l4 -5q-2 2 -2 3t-2 3 q-8 5 -13 15l-3 5l-6 8l3 -4q-12 14 -23.5 25.5l-25.5 25.5q-17 9 -22 14.5t-12 14.5q-2 3 -4.5 6.5t-5.5 6.5l-1 21l7 7zM388 940l1 -5l-6 14q5 -5 6.5 -7.5t3.5 -4.5l-1 1q5 -7 9 -10.5t16 -10.5q14 -14 29.5 -30t27.5 -30l5 -6l5 -9q1 0 5 -2l8 -13v-1q12 -5 29 -5 q11 0 19 4.5t9 16.5q2 13 1.5 25t-1.5 24q0 8 -0.5 16t-0.5 16q0 12 0.5 23.5t4.5 24.5q-11 17 -30.5 26t-42.5 10q-16 3 -34 0t-33 -11.5t-23.5 -23.5t-3.5 -37z" />
<glyph unicode="&#xda;" d="M390 709q8 -23 -5.5 -67t-35.5 -100q-13 -32 -26 -66.5t-23.5 -69.5t-17 -68.5t-4.5 -63.5q3 -6 16 11.5t32 50t41.5 76t45.5 89t44 89t37 77.5q8 19 18 40t23 38.5t30.5 28.5t40.5 11q11 0 23 -3q15 14 33.5 21t36.5 7q31 0 56 -19t28 -56q3 -20 -11 -68t-37 -119 q-30 -94 -69 -226.5t-69 -287.5q-2 -23 -15 -41.5t-32 -31.5t-42.5 -20t-45.5 -7q-27 0 -49 10t-33 30q-11 -8 -23.5 -14.5t-24.5 -12.5h1l-9 -4q-16 -5 -32 -7.5t-32 -2.5q-33 0 -66.5 9t-62.5 26t-52 41.5t-33 55.5q-8 26 -12 55t-4 58q0 60 13 124.5t33 127.5t43 121.5 t43 106.5l-1 -1q3 7 8.5 19t12.5 24.5t14 24t12 18.5q2 4 11 13l12 11l-2 -2l5 3l4 3q5 5 7 6t5 1q3 2 7.5 3t7.5 2l-1 -1l16 3l5 1q5 1 11.5 1t10.5 -1q8 -1 15.5 -3t16.5 -6h1l12 -7l11 -10l3 -3l3 -5q1 -1 2 -3q2 -4 4 -6t2 -3q1 -2 2.5 -4.5t2.5 -4.5v-3l2 -3zM345 714 l2 -4q0 1 -0.5 2t-0.5 3v-1q-4 6 -6 11l-1 2l-1 2l-10 8l-4 3q-12 4 -27 6q-3 1 -7 0h-6l-11 -3l-12 -5l-2 -2l-4 -1l-12 -11q-4 -5 -10.5 -15.5t-13.5 -23t-12.5 -24.5t-8.5 -19q-19 -47 -41.5 -103.5t-41.5 -117.5t-32 -123t-13 -120q0 -27 3 -52.5t11 -48.5q8 -25 26 -44 t42.5 -32.5t52.5 -20.5t55 -7q13 0 24.5 2t22.5 4q1 0 1.5 0.5t1.5 0.5h-2l7 3q9 4 18.5 9t17.5 10.5t13.5 11.5t6.5 14v5l40 1v-2v-3l3 -29q3 -13 16.5 -19.5t31.5 -6.5q16 0 32.5 4.5t30 13.5t22.5 22t10 29q14 75 32 147t36.5 138t37 124.5t34.5 107.5q22 67 35 111 t11 55q-1 21 -14 32.5t-30 11.5q-12 0 -27 -8.5t-29 -26.5q-14 5 -23 7.5t-14 2.5q-14 0 -25.5 -8.5t-20.5 -22t-16 -30.5t-14 -33q-19 -41 -46.5 -96t-58 -110.5t-61.5 -104t-57 -77.5t-44.5 -31.5t-24.5 35.5q-2 34 4.5 71t17 74.5t24.5 74t27 69.5q20 49 32.5 87t8.5 52z M338 733v-3v2v1zM308 -20l-1 -1zM538 1032q24 -2 45.5 -8.5t38 -16.5t26.5 -23t10 -28q0 -11 -5 -22t-16 -22q-2 -6 -5.5 -12t-6.5 -11q-24 -24 -43.5 -41t-36.5 -29t-32 -20.5t-30 -14.5q-21 -8 -46 -8t-44.5 11.5t-19.5 41.5q0 14 12 41l2 3q2 15 11 35t21 39.5t24 35 t21 21.5t18 10.5t15 6.5q17 8 33 11h7h1zM538 992q-10 -2 -17.5 -4.5t-12.5 -4.5q-10 -3 -23 -12l2 1q-7 -5 -17 -19t-19.5 -31t-16.5 -35t-8 -30l-8 -8q-5 -10 -5 -20q0 -8 7 -10.5t17 -2.5q8 0 16.5 2t15.5 4l-1 -1q13 6 26.5 13t28 17.5t31.5 25t37 34.5q9 14 12 24 q15 12 15 21q0 14 -24.5 24t-57.5 12h1h1z" />
</font>
</defs>
</svg>
